font.ufo
<glyph name="exclam" format="1">
  <advance width="425"/>
  <unicode hex="0021"/>
  <outline>
    <contour>
      <point x="149" y="252" type="line"/>
      <point x="294" y="252" type="line"/>
      <point x="314" y="752" type="line"/>
      <point x="129" y="752" type="line"/>
    </contour>
    <contour>
      <point x="225" y="0" type="curve" smooth="yes"/>
      <point x="278" y="0"/>
      <point x="319" y="41"/>
      <point x="319" y="93" type="curve" smooth="yes"/>
      <point x="319" y="146"/>
      <point x="278" y="187"/>
      <point x="225" y="187" type="curve" smooth="yes"/>
      <point x="173" y="187"/>
      <point x="132" y="146"/>
      <point x="132" y="93" type="curve" smooth="yes"/>
      <point x="132" y="41"/>
      <point x="173" y="0"/>
    </contour>
  </outline>
</glyph>
<glyph name="quotedbl" format="1">
  <advance width="411"/>
  <unicode hex="0022"/>
  <outline>
    <contour>
      <point x="53" y="579" type="line"/>
      <point x="168" y="579" type="line"/>
      <point x="181" y="800" type="line"/>
      <point x="40" y="800" type="line"/>
    </contour>
    <contour>
      <point x="243" y="579" type="line"/>
      <point x="358" y="579" type="line"/>
      <point x="371" y="800" type="line"/>
      <point x="230" y="800" type="line"/>
    </contour>
  </outline>
</glyph>
<glyph name="numbersign" format="1">
  <advance width="929"/>
  <unicode hex="0023"/>
  <outline>
    <contour>
      <point x="135" y="0" type="line"/>
      <point x="295" y="0" type="line"/>
      <point x="453" y="740" type="line"/>
      <point x="293" y="740" type="line"/>
    </contour>
    <contour>
      <point x="461" y="0" type="line"/>
      <point x="621" y="0" type="line"/>
      <point x="779" y="740" type="line"/>
      <point x="619" y="740" type="line"/>
    </contour>
    <contour>
      <point x="15" y="142" type="line"/>
      <point x="802" y="142" type="line"/>
      <point x="802" y="296" type="line"/>
      <point x="15" y="296" type="line"/>
    </contour>
    <contour>
      <point x="80" y="449" type="line"/>
      <point x="867" y="449" type="line"/>
      <point x="867" y="603" type="line"/>
      <point x="80" y="603" type="line"/>
    </contour>
  </outline>
</glyph>
<glyph name="quotesingle" format="1">
  <advance width="221"/>
  <unicode hex="0027"/>
  <outline>
    <contour>
      <point x="53" y="579" type="line"/>
      <point x="168" y="579" type="line"/>
      <point x="181" y="800" type="line"/>
      <point x="40" y="800" type="line"/>
    </contour>
  </outline>
</glyph>
<glyph name="parenright" format="1">
  <advance width="482"/>
  <unicode hex="0029"/>
  <outline>
    <contour>
      <point x="143" y="991" type="curve"/>
      <point x="-26" y="991" type="line"/>
      <point x="-26" y="975" type="line"/>
      <point x="162" y="821"/>
      <point x="250" y="624"/>
      <point x="250" y="402" type="curve" smooth="yes"/>
      <point x="250" y="180"/>
      <point x="162" y="-17"/>
      <point x="-26" y="-171" type="curve"/>
      <point x="-26" y="-187" type="line"/>
      <point x="143" y="-187" type="line"/>
      <point x="299" y="-69"/>
      <point x="415" y="143"/>
      <point x="415" y="403" type="curve" smooth="yes"/>
      <point x="415" y="661"/>
      <point x="299" y="873"/>
    </contour>
  </outline>
</glyph>
<glyph name="asterisk" format="1">
  <advance width="534"/>
  <unicode hex="002A"/>
  <outline>
    <contour>
      <point x="329" y="740" type="line"/>
      <point x="210" y="740" type="line"/>
      <point x="236" y="608" type="line"/>
      <point x="132" y="695" type="line"/>
      <point x="75" y="592" type="line"/>
      <point x="197" y="552" type="line"/>
      <point x="74" y="509" type="line"/>
      <point x="136" y="401" type="line"/>
      <point x="235" y="490" type="line"/>
      <point x="211" y="360" type="line"/>
      <point x="328" y="360" type="line"/>
      <point x="303" y="490" type="line"/>
      <point x="403" y="402" type="line"/>
      <point x="463" y="508" type="line"/>
      <point x="340" y="550" type="line"/>
      <point x="463" y="593" type="line"/>
      <point x="407" y="695" type="line"/>
      <point x="303" y="608" type="line"/>
    </contour>
  </outline>
</glyph>
<glyph name="plus" format="1">
  <advance width="650"/>
  <unicode hex="002B"/>
  <outline>
    <contour>
      <point x="243" y="605" type="line"/>
      <point x="243" y="95" type="line"/>
      <point x="407" y="95" type="line"/>
      <point x="407" y="605" type="line"/>
    </contour>
    <contour>
      <point x="70" y="272" type="line"/>
      <point x="580" y="272" type="line"/>
      <point x="580" y="427" type="line"/>
      <point x="70" y="427" type="line"/>
    </contour>
  </outline>
</glyph>
<glyph name="comma" format="1">
  <advance width="241"/>
  <unicode hex="002C"/>
  <outline>
    <contour>
      <point x="30" y="106" type="line"/>
      <point x="30" y="-47" type="line"/>
      <point x="103" y="-47" type="line"/>
      <point x="103" y="-63" type="line" smooth="yes"/>
      <point x="103" y="-108"/>
      <point x="85" y="-119"/>
      <point x="51" y="-119" type="curve"/>
      <point x="51" y="-184" type="line"/>
      <point x="216" y="-184"/>
      <point x="226" y="-17"/>
      <point x="171" y="106" type="curve"/>
    </contour>
  </outline>
</glyph>
<glyph name="period" format="1">
  <advance width="257"/>
  <unicode hex="002E"/>
  <outline>
    <contour>
      <point x="128" y="0" type="curve" smooth="yes"/>
      <point x="181" y="0"/>
      <point x="222" y="41"/>
      <point x="222" y="93" type="curve" smooth="yes"/>
      <point x="222" y="146"/>
      <point x="181" y="187"/>
      <point x="128" y="187" type="curve" smooth="yes"/>
      <point x="76" y="187"/>
      <point x="35" y="146"/>
      <point x="35" y="93" type="curve" smooth="yes"/>
      <point x="35" y="41"/>
      <point x="76" y="0"/>
    </contour>
  </outline>
</glyph>
<glyph name="slash" format="1">
  <advance width="453"/>
  <unicode hex="002F"/>
  <outline>
    <contour>
      <point x="10" y="-187" type="line"/>
      <point x="175" y="-187" type="line"/>
      <point x="443" y="950" type="line"/>
      <point x="278" y="950" type="line"/>
    </contour>
  </outline>
</glyph>
<glyph name="one" format="1">
  <advance width="421"/>
  <unicode hex="0031"/>
  <outline>
    <contour>
      <point x="149" y="0" type="line"/>
      <point x="326" y="0" type="line"/>
      <point x="326" y="710" type="line"/>
      <point x="28" y="710" type="line"/>
      <point x="28" y="551" type="line"/>
      <point x="149" y="551" type="line"/>
    </contour>
  </outline>
</glyph>
<glyph name="three" format="1">
  <advance width="605"/>
  <unicode hex="0033"/>
  <outline>
    <contour>
      <point x="54" y="524" type="curve"/>
      <point x="220" y="524" type="line"/>
      <point x="221" y="542"/>
      <point x="229" y="598"/>
      <point x="296" y="598" type="curve" smooth="yes"/>
      <point x="340" y="598"/>
      <point x="371" y="572"/>
      <point x="371" y="528" type="curve" smooth="yes"/>
      <point x="371" y="462"/>
      <point x="315" y="448"/>
      <point x="257" y="448" type="curve" smooth="yes"/>
      <point x="225" y="448" type="line"/>
      <point x="225" y="309" type="line"/>
      <point x="257" y="309" type="line" smooth="yes"/>
      <point x="348" y="309"/>
      <point x="385" y="283"/>
      <point x="385" y="220" type="curve" smooth="yes"/>
      <point x="385" y="171"/>
      <point x="356" y="136"/>
      <point x="303" y="136" type="curve" smooth="yes"/>
      <point x="240" y="136"/>
      <point x="209" y="174"/>
      <point x="208" y="231" type="curve"/>
      <point x="42" y="231" type="line"/>
      <point x="42" y="67"/>
      <point x="160" y="-4"/>
      <point x="303" y="-4" type="curve" smooth="yes"/>
      <point x="459" y="-4"/>
      <point x="550" y="78"/>
      <point x="550" y="207" type="curve" smooth="yes"/>
      <point x="550" y="300"/>
      <point x="505" y="354"/>
      <point x="438" y="380" type="curve"/>
      <point x="438" y="384" type="line"/>
      <point x="470" y="397"/>
      <point x="537" y="447"/>
      <point x="537" y="549" type="curve" smooth="yes"/>
      <point x="537" y="658"/>
      <point x="455" y="744"/>
      <point x="303" y="744" type="curve" smooth="yes"/>
      <point x="154" y="744"/>
      <point x="54" y="666"/>
    </contour>
  </outline>
</glyph>
<glyph name="five" format="1">
  <advance width="650"/>
  <unicode hex="0035"/>
  <outline>
    <contour>
      <point x="92" y="731" type="line"/>
      <point x="92" y="290" type="line"/>
      <point x="257" y="290" type="line"/>
      <point x="263" y="323"/>
      <point x="291" y="351"/>
      <point x="341" y="351" type="curve" smooth="yes"/>
      <point x="403" y="351"/>
      <point x="436" y="312"/>
      <point x="436" y="249" type="curve" smooth="yes"/>
      <point x="436" y="186"/>
      <point x="407" y="140"/>
      <point x="341" y="140" type="curve" smooth="yes"/>
      <point x="286" y="140"/>
      <point x="251" y="168"/>
      <point x="244" y="206" type="curve"/>
      <point x="75" y="206" type="line"/>
      <point x="87" y="89"/>
      <point x="179" y="0"/>
      <point x="338" y="0" type="curve" smooth="yes"/>
      <point x="507" y="0"/>
      <point x="601" y="100"/>
      <point x="601" y="254" type="curve" smooth="yes"/>
      <point x="601" y="356"/>
      <point x="547" y="493"/>
      <point x="367" y="493" type="curve" smooth="yes"/>
      <point x="315" y="493"/>
      <point x="272" y="475"/>
      <point x="247" y="453" type="curve"/>
      <point x="247" y="581" type="line"/>
      <point x="548" y="581" type="line"/>
      <point x="548" y="731" type="line"/>
    </contour>
  </outline>
</glyph>
<glyph name="seven" format="1">
  <advance width="560"/>
  <unicode hex="0037"/>
  <outline>
    <contour>
      <point x="41" y="721" type="line"/>
      <point x="41" y="581" type="line"/>
      <point x="351" y="581" type="line"/>
      <point x="78" y="0" type="line"/>
      <point x="263" y="0" type="line"/>
      <point x="523" y="595" type="line"/>
      <point x="523" y="721" type="line"/>
    </contour>
  </outline>
</glyph>
<glyph name="nine" format="1">
  <advance width="637"/>
  <unicode hex="0039"/>
  <outline>
    <contour>
      <point x="82" y="224" type="line"/>
      <point x="84" y="109"/>
      <point x="149" y="0"/>
      <point x="320" y="0" type="curve" smooth="yes"/>
      <point x="532" y="0"/>
      <point x="580" y="133"/>
      <point x="580" y="372" type="curve" smooth="yes"/>
      <point x="580" y="600"/>
      <point x="528" y="745"/>
      <point x="314" y="745" type="curve" smooth="yes"/>
      <point x="158" y="745"/>
      <point x="64" y="649"/>
      <point x="64" y="501" type="curve" smooth="yes"/>
      <point x="64" y="337"/>
      <point x="163" y="270"/>
      <point x="295" y="270" type="curve" smooth="yes"/>
      <point x="352" y="270"/>
      <point x="405" y="291"/>
      <point x="429" y="314" type="curve"/>
      <point x="429" y="189"/>
      <point x="399" y="140"/>
      <point x="332" y="140" type="curve" smooth="yes"/>
      <point x="277" y="140"/>
      <point x="248" y="173"/>
      <point x="241" y="224" type="curve"/>
    </contour>
    <contour>
      <point x="323" y="410" type="curve" smooth="yes"/>
      <point x="254" y="410"/>
      <point x="228" y="461"/>
      <point x="228" y="506" type="curve" smooth="yes"/>
      <point x="228" y="560"/>
      <point x="260" y="605"/>
      <point x="320" y="605" type="curve" smooth="yes"/>
      <point x="378" y="605"/>
      <point x="415" y="573"/>
      <point x="415" y="504" type="curve" smooth="yes"/>
      <point x="415" y="447"/>
      <point x="380" y="410"/>
    </contour>
  </outline>
</glyph>
<glyph name="less" format="1">
  <advance width="553"/>
  <unicode hex="003C"/>
  <outline>
    <contour>
      <point x="278" y="350" type="line"/>
      <point x="482" y="571" type="line"/>
      <point x="268" y="571" type="line"/>
      <point x="64" y="350" type="line"/>
      <point x="268" y="129" type="line"/>
      <point x="482" y="129" type="line"/>
    </contour>
  </outline>
</glyph>
<glyph name="equal" format="1">
  <advance width="780"/>
  <unicode hex="003D"/>
  <outline>
    <contour>
      <point x="110" y="145" type="line"/>
      <point x="670" y="145" type="line"/>
      <point x="670" y="299" type="line"/>
      <point x="110" y="299" type="line"/>
    </contour>
    <contour>
      <point x="110" y="400" type="line"/>
      <point x="670" y="400" type="line"/>
      <point x="670" y="554" type="line"/>
      <point x="110" y="554" type="line"/>
    </contour>
  </outline>
</glyph>
<glyph name="greater" format="1">
  <advance width="560"/>
  <unicode hex="003E"/>
  <outline>
    <contour>
      <point x="64" y="129" type="line"/>
      <point x="278" y="129" type="line"/>
      <point x="482" y="350" type="line"/>
      <point x="278" y="571" type="line"/>
      <point x="64" y="571" type="line"/>
      <point x="268" y="350" type="line"/>
    </contour>
  </outline>
</glyph>
<glyph name="question" format="1">
  <advance width="651"/>
  <unicode hex="003F"/>
  <outline>
    <contour>
      <point x="90" y="545" type="curve"/>
      <point x="251" y="545" type="line"/>
      <point x="251" y="591"/>
      <point x="278" y="621"/>
      <point x="326" y="621" type="curve" smooth="yes"/>
      <point x="370" y="621"/>
      <point x="398" y="590"/>
      <point x="398" y="545" type="curve" smooth="yes"/>
      <point x="398" y="472"/>
      <point x="340" y="458"/>
      <point x="246" y="458" type="curve" smooth="yes"/>
      <point x="179" y="458" type="line"/>
      <point x="179" y="252" type="line"/>
      <point x="340" y="252" type="line"/>
      <point x="340" y="347" type="line"/>
      <point x="477" y="349"/>
      <point x="564" y="399"/>
      <point x="564" y="543" type="curve" smooth="yes"/>
      <point x="564" y="682"/>
      <point x="462" y="761"/>
      <point x="324" y="761" type="curve" smooth="yes"/>
      <point x="170" y="761"/>
      <point x="87" y="665"/>
    </contour>
    <contour>
      <point x="170" y="93" type="curve" smooth="yes"/>
      <point x="170" y="41"/>
      <point x="211" y="0"/>
      <point x="263" y="0" type="curve" smooth="yes"/>
      <point x="316" y="0"/>
      <point x="357" y="41"/>
      <point x="357" y="93" type="curve" smooth="yes"/>
      <point x="357" y="146"/>
      <point x="316" y="187"/>
      <point x="263" y="187" type="curve" smooth="yes"/>
      <point x="211" y="187"/>
      <point x="170" y="146"/>
    </contour>
  </outline>
</glyph>
<glyph name="A" format="1">
  <advance width="713"/>
  <unicode hex="0041"/>
  <outline>
    <contour>
      <point x="357" y="704" type="move" name="top"/>
    </contour>
    <contour>
      <point x="704" y="0" type="move" name="ogonek"/>
    </contour>
    <contour>
      <point x="253" y="704" type="line"/>
      <point x="9" y="0" type="line"/>
      <point x="191" y="0" type="line"/>
      <point x="395" y="614" type="line"/>
      <point x="318" y="614" type="line"/>
      <point x="521" y="0" type="line"/>
      <point x="704" y="0" type="line"/>
      <point x="461" y="704" type="line"/>
    </contour>
    <contour>
      <point x="113" y="118" type="line"/>
      <point x="584" y="118" type="line"/>
      <point x="541" y="248" type="line"/>
      <point x="156" y="248" type="line"/>
    </contour>
  </outline>
</glyph>
<glyph name="D" format="1">
  <advance width="739"/>
  <unicode hex="0044"/>
  <outline>
    <contour>
      <point x="370" y="704" type="move" name="top"/>
    </contour>
    <contour>
      <point x="322" y="702" type="curve" smooth="yes"/>
      <point x="75" y="702" type="line"/>
      <point x="75" y="0" type="line"/>
      <point x="322" y="0" type="line" smooth="yes"/>
      <point x="545" y="0"/>
      <point x="706" y="143"/>
      <point x="706" y="351" type="curve" smooth="yes"/>
      <point x="706" y="560"/>
      <point x="545" y="702"/>
    </contour>
    <contour>
      <point x="246" y="130" type="line"/>
      <point x="246" y="572" type="line"/>
      <point x="322" y="572" type="line" smooth="yes"/>
      <point x="454" y="572"/>
      <point x="532" y="485"/>
      <point x="532" y="351" type="curve" smooth="yes"/>
      <point x="532" y="217"/>
      <point x="454" y="130"/>
      <point x="322" y="130" type="curve" smooth="yes"/>
    </contour>
  </outline>
</glyph>
<glyph name="F" format="1">
  <advance width="575"/>
  <unicode hex="0046"/>
  <outline>
    <contour>
      <point x="75" y="0" type="line"/>
      <point x="246" y="0" type="line"/>
      <point x="246" y="291" type="line"/>
      <point x="460" y="291" type="line"/>
      <point x="460" y="421" type="line"/>
      <point x="246" y="421" type="line"/>
      <point x="246" y="572" type="line"/>
      <point x="532" y="572" type="line"/>
      <point x="532" y="702" type="line"/>
      <point x="75" y="702" type="line"/>
    </contour>
  </outline>
</glyph>
<glyph name="H" format="1">
  <advance width="763"/>
  <unicode hex="0048"/>
  <outline>
    <contour>
      <point x="75" y="0" type="line"/>
      <point x="246" y="0" type="line"/>
      <point x="246" y="702" type="line"/>
      <point x="75" y="702" type="line"/>
    </contour>
    <contour>
      <point x="517" y="0" type="line"/>
      <point x="688" y="0" type="line"/>
      <point x="688" y="702" type="line"/>
      <point x="517" y="702" type="line"/>
    </contour>
    <contour>
      <point x="226" y="291" type="line"/>
      <point x="541" y="291" type="line"/>
      <point x="541" y="421" type="line"/>
      <point x="226" y="421" type="line"/>
    </contour>
  </outline>
</glyph>
<glyph name="I" format="1">
  <advance width="321"/>
  <unicode hex="0049"/>
  <outline>
    <contour>
      <point x="161" y="704" type="move" name="top"/>
    </contour>
    <contour>
      <point x="246" y="0" type="move" name="ogonek"/>
    </contour>
    <contour>
      <point x="75" y="0" type="line"/>
      <point x="246" y="0" type="line"/>
      <point x="246" y="702" type="line"/>
      <point x="75" y="702" type="line"/>
    </contour>
  </outline>
</glyph>
<glyph name="J" format="1">
  <advance width="594"/>
  <unicode hex="004A"/>
  <outline>
    <contour>
      <point x="323" y="224" type="line"/>
      <point x="323" y="167"/>
      <point x="294" y="146"/>
      <point x="261" y="146" type="curve" smooth="yes"/>
      <point x="228" y="146"/>
      <point x="200" y="167"/>
      <point x="199" y="224" type="curve"/>
      <point x="29" y="224" type="line"/>
      <point x="29" y="73"/>
      <point x="131" y="-7"/>
      <point x="261" y="-7" type="curve" smooth="yes"/>
      <point x="391" y="-7"/>
      <point x="494" y="73"/>
      <point x="494" y="224" type="curve" smooth="yes"/>
      <point x="494" y="702" type="line"/>
      <point x="323" y="702" type="line"/>
    </contour>
  </outline>
</glyph>
<glyph name="L" format="1">
  <advance width="479"/>
  <unicode hex="004C"/>
  <outline>
    <contour>
      <point x="270" y="10" type="move" name="commaaccent"/>
    </contour>
    <contour>
      <point x="240" y="704" type="move" name="top"/>
    </contour>
    <contour>
      <point x="459" y="704" type="move" name="topright"/>
    </contour>
    <contour>
      <point x="270" y="0" type="move" name="bottom"/>
    </contour>
    <contour>
      <point x="75" y="702" type="line"/>
      <point x="75" y="0" type="line"/>
      <point x="459" y="0" type="line"/>
      <point x="459" y="130" type="line"/>
      <point x="246" y="130" type="line"/>
      <point x="246" y="702" type="line"/>
    </contour>
  </outline>
</glyph>
<glyph name="N" format="1">
  <advance width="778"/>
  <unicode hex="004E"/>
  <outline>
    <contour>
      <point x="389" y="704" type="move" name="top"/>
    </contour>
    <contour>
      <point x="389" y="0" type="move" name="bottom"/>
    </contour>
    <contour>
      <point x="532" y="704" type="line"/>
      <point x="532" y="261" type="line"/>
      <point x="246" y="704" type="line"/>
      <point x="75" y="704" type="line"/>
      <point x="75" y="0" type="line"/>
      <point x="246" y="0" type="line"/>
      <point x="246" y="443" type="line"/>
      <point x="532" y="0" type="line"/>
      <point x="703" y="0" type="line"/>
      <point x="703" y="704" type="line"/>
    </contour>
  </outline>
</glyph>
<glyph name="O" format="1">
  <advance width="788"/>
  <unicode hex="004F"/>
  <outline>
    <contour>
      <point x="394" y="704" type="move" name="top"/>
    </contour>
    <contour>
      <point x="34" y="353" type="curve" smooth="yes"/>
      <point x="34" y="142"/>
      <point x="195" y="-7"/>
      <point x="394" y="-7" type="curve" smooth="yes"/>
      <point x="593" y="-7"/>
      <point x="753" y="142"/>
      <point x="753" y="353" type="curve" smooth="yes"/>
      <point x="753" y="564"/>
      <point x="594" y="712"/>
      <point x="394" y="712" type="curve" smooth="yes"/>
      <point x="195" y="712"/>
      <point x="34" y="564"/>
    </contour>
    <contour>
      <point x="579" y="353" type="curve" smooth="yes"/>
      <point x="579" y="231"/>
      <point x="506" y="151"/>
      <point x="394" y="151" type="curve" smooth="yes"/>
      <point x="281" y="151"/>
      <point x="208" y="231"/>
      <point x="208" y="353" type="curve" smooth="yes"/>
      <point x="208" y="476"/>
      <point x="281" y="555"/>
      <point x="394" y="555" type="curve" smooth="yes"/>
      <point x="506" y="555"/>
      <point x="579" y="476"/>
    </contour>
  </outline>
</glyph>
<glyph name="Q" format="1">
  <advance width="794"/>
  <unicode hex="0051"/>
  <outline>
    <contour>
      <point x="417" y="75" type="line"/>
      <point x="556" y="-115" type="line"/>
      <point x="763" y="-115" type="line"/>
      <point x="590" y="107" type="line"/>
    </contour>
    <component base="O"/>
  </outline>
</glyph>
<glyph name="R" format="1">
  <advance width="668"/>
  <unicode hex="0052"/>
  <outline>
    <contour>
      <point x="334" y="704" type="move" name="top"/>
    </contour>
    <contour>
      <point x="334" y="0" type="move" name="bottom"/>
    </contour>
    <contour>
      <point x="436" y="487" type="curve" smooth="yes"/>
      <point x="436" y="437"/>
      <point x="404" y="403"/>
      <point x="352" y="403" type="curve" smooth="yes"/>
      <point x="246" y="403" type="line"/>
      <point x="246" y="572" type="line"/>
      <point x="352" y="572" type="line" smooth="yes"/>
      <point x="404" y="572"/>
      <point x="436" y="536"/>
    </contour>
    <contour>
      <point x="75" y="702" type="line"/>
      <point x="75" y="0" type="line"/>
      <point x="246" y="0" type="line"/>
      <point x="246" y="273" type="line"/>
      <point x="352" y="273" type="line" smooth="yes"/>
      <point x="558" y="273"/>
      <point x="610" y="406"/>
      <point x="610" y="487" type="curve" smooth="yes"/>
      <point x="610" y="598"/>
      <point x="524" y="702"/>
      <point x="352" y="702" type="curve" smooth="yes"/>
    </contour>
    <contour>
      <point x="242" y="315" type="line"/>
      <point x="424" y="0" type="line"/>
      <point x="624" y="0" type="line"/>
      <point x="435" y="315" type="line"/>
    </contour>
  </outline>
</glyph>
<glyph name="T" format="1">
  <advance width="608"/>
  <unicode hex="0054"/>
  <outline>
    <contour>
      <point x="304" y="704" type="move" name="top"/>
    </contour>
    <contour>
      <point x="304" y="0" type="move" name="bottom"/>
    </contour>
    <contour>
      <point x="27" y="572" type="line"/>
      <point x="218" y="572" type="line"/>
      <point x="218" y="0" type="line"/>
      <point x="389" y="0" type="line"/>
      <point x="389" y="572" type="line"/>
      <point x="581" y="572" type="line"/>
      <point x="581" y="702" type="line"/>
      <point x="27" y="702" type="line"/>
    </contour>
  </outline>
</glyph>
<glyph name="W" format="1">
  <advance width="1045"/>
  <unicode hex="0057"/>
  <outline>
    <contour>
      <point x="205" y="0" type="line"/>
      <point x="401" y="0" type="line"/>
      <point x="535" y="490" type="line"/>
      <point x="510" y="490" type="line"/>
      <point x="646" y="0" type="line"/>
      <point x="842" y="0" type="line"/>
      <point x="1038" y="702" type="line"/>
      <point x="854" y="702" type="line"/>
      <point x="728" y="101" type="line"/>
      <point x="775" y="101" type="line"/>
      <point x="630" y="702" type="line"/>
      <point x="436" y="702" type="line"/>
      <point x="287" y="101" type="line"/>
      <point x="334" y="101" type="line"/>
      <point x="189" y="702" type="line"/>
      <point x="6" y="702" type="line"/>
    </contour>
  </outline>
</glyph>
<glyph name="X" format="1">
  <advance width="736"/>
  <unicode hex="0058"/>
  <outline>
    <contour>
      <point x="492" y="0" type="line"/>
      <point x="686" y="0" type="line"/>
      <point x="244" y="702" type="line"/>
      <point x="50" y="702" type="line"/>
    </contour>
    <contour>
      <point x="301" y="398" type="line"/>
      <point x="50" y="0" type="line"/>
      <point x="244" y="0" type="line"/>
      <point x="399" y="265" type="line"/>
    </contour>
    <contour>
      <point x="436" y="304" type="line"/>
      <point x="687" y="702" type="line"/>
      <point x="493" y="702" type="line"/>
      <point x="338" y="437" type="line"/>
    </contour>
  </outline>
</glyph>
<glyph name="Y" format="1">
  <advance width="687"/>
  <unicode hex="0059"/>
  <outline>
    <contour>
      <point x="344" y="704" type="move" name="top"/>
    </contour>
    <contour>
      <point x="258" y="226" type="line"/>
      <point x="258" y="0" type="line"/>
      <point x="429" y="0" type="line"/>
      <point x="429" y="226" type="line"/>
      <point x="672" y="702" type="line"/>
      <point x="478" y="702" type="line"/>
      <point x="309" y="304" type="line"/>
      <point x="378" y="304" type="line"/>
      <point x="209" y="702" type="line"/>
      <point x="15" y="702" type="line"/>
    </contour>
  </outline>
</glyph>
<glyph name="bracketleft" format="1">
  <advance width="510"/>
  <unicode hex="005B"/>
  <outline>
    <contour>
      <point x="120" y="-188" type="line"/>
      <point x="420" y="-188" type="line"/>
      <point x="420" y="-49" type="line"/>
      <point x="280" y="-49" type="line"/>
      <point x="280" y="811" type="line"/>
      <point x="420" y="811" type="line"/>
      <point x="420" y="950" type="line"/>
      <point x="120" y="950" type="line"/>
    </contour>
  </outline>
</glyph>
<glyph name="backslash" format="1">
  <advance width="802"/>
  <unicode hex="005C"/>
  <outline>
    <contour>
      <point x="348" y="950" type="line"/>
      <point x="183" y="950" type="line"/>
      <point x="451" y="-187" type="line"/>
      <point x="616" y="-187" type="line"/>
    </contour>
  </outline>
</glyph>
<glyph name="bracketright" format="1">
  <advance width="508"/>
  <unicode hex="005D"/>
  <outline>
    <contour>
      <point x="389" y="950" type="line"/>
      <point x="89" y="950" type="line"/>
      <point x="89" y="811" type="line"/>
      <point x="229" y="811" type="line"/>
      <point x="229" y="-49" type="line"/>
      <point x="89" y="-49" type="line"/>
      <point x="89" y="-188" type="line"/>
      <point x="389" y="-188" type="line"/>
    </contour>
  </outline>
</glyph>
<glyph name="asciicircum" format="1">
  <advance width="709"/>
  <unicode hex="005E"/>
  <outline>
    <contour>
      <point x="507" y="165" type="line"/>
      <point x="679" y="165" type="line"/>
      <point x="438" y="704" type="line"/>
      <point x="272" y="704" type="line"/>
      <point x="30" y="165" type="line"/>
      <point x="202" y="165" type="line"/>
      <point x="355" y="506" type="line"/>
    </contour>
  </outline>
</glyph>
<glyph name="underscore" format="1">
  <advance width="780"/>
  <unicode hex="005F"/>
  <outline>
    <contour>
      <point x="85" y="-205" type="line"/>
      <point x="705" y="-205" type="line"/>
      <point x="705" y="-41" type="line"/>
      <point x="85" y="-41" type="line"/>
    </contour>
  </outline>
</glyph>
<glyph name="grave" format="1">
  <advance width="291"/>
  <unicode hex="0060"/>
  <outline>
    <contour>
      <point x="135" y="558" type="move" name="_top"/>
    </contour>
    <contour>
      <point x="10" y="697" type="line"/>
      <point x="251" y="596" type="line"/>
      <point x="251" y="714" type="line"/>
      <point x="10" y="830" type="line"/>
    </contour>
  </outline>
</glyph>
<glyph name="d" format="1">
  <advance width="698"/>
  <unicode hex="0064"/>
  <outline>
    <contour>
      <point x="623" y="740" type="move" name="topright"/>
    </contour>
    <contour>
      <point x="34" y="278" type="curve" smooth="yes"/>
      <point x="34" y="108"/>
      <point x="149" y="-7"/>
      <point x="288" y="-7" type="curve" smooth="yes"/>
      <point x="361" y="-7"/>
      <point x="414" y="27"/>
      <point x="452" y="81" type="curve"/>
      <point x="452" y="0" type="line"/>
      <point x="623" y="0" type="line"/>
      <point x="623" y="740" type="line"/>
      <point x="452" y="740" type="line"/>
      <point x="452" y="485" type="line"/>
      <point x="416" y="535"/>
      <point x="361" y="564"/>
      <point x="288" y="564" type="curve" smooth="yes"/>
      <point x="149" y="564"/>
      <point x="34" y="448"/>
    </contour>
    <contour>
      <point x="452" y="279" type="curve" smooth="yes"/>
      <point x="452" y="185"/>
      <point x="388" y="141"/>
      <point x="330" y="141" type="curve" smooth="yes"/>
      <point x="272" y="141"/>
      <point x="208" y="184"/>
      <point x="208" y="278" type="curve" smooth="yes"/>
      <point x="208" y="372"/>
      <point x="272" y="416"/>
      <point x="330" y="416" type="curve" smooth="yes"/>
      <point x="388" y="416"/>
      <point x="452" y="373"/>
    </contour>
  </outline>
</glyph>
<glyph name="e" format="1">
  <advance width="632"/>
  <unicode hex="0065"/>
  <outline>
    <contour>
      <point x="316" y="558" type="move" name="top"/>
    </contour>
    <contour>
      <point x="509" y="78" type="move" name="ogonek"/>
    </contour>
    <contour>
      <point x="316" y="0" type="move" name="bottom"/>
    </contour>
    <contour>
      <point x="194" y="223" type="line"/>
      <point x="593" y="223" type="line"/>
      <point x="596" y="242"/>
      <point x="597" y="260"/>
      <point x="597" y="277" type="curve" smooth="yes"/>
      <point x="597" y="462"/>
      <point x="471" y="564"/>
      <point x="311" y="564" type="curve" smooth="yes"/>
      <point x="151" y="564"/>
      <point x="34" y="456"/>
      <point x="34" y="280" type="curve" smooth="yes"/>
      <point x="34" y="104"/>
      <point x="151" y="-7"/>
      <point x="312" y="-7" type="curve" smooth="yes"/>
      <point x="446" y="-7"/>
      <point x="548" y="70"/>
      <point x="579" y="180" type="curve"/>
      <point x="394" y="180" type="line"/>
      <point x="375" y="157"/>
      <point x="360" y="139"/>
      <point x="312" y="139" type="curve" smooth="yes"/>
      <point x="247" y="139"/>
      <point x="208" y="184"/>
      <point x="208" y="240" type="curve" smooth="yes"/>
      <point x="208" y="308" type="line" smooth="yes"/>
      <point x="208" y="372"/>
      <point x="253" y="418"/>
      <point x="311" y="418" type="curve" smooth="yes"/>
      <point x="369" y="418"/>
      <point x="414" y="383"/>
      <point x="419" y="330" type="curve"/>
      <point x="196" y="330" type="line"/>
    </contour>
  </outline>
</glyph>
<glyph name="g" format="1">
  <advance width="698"/>
  <unicode hex="0067"/>
  <outline>
    <contour>
      <point x="349" y="558" type="move" name="top"/>
    </contour>
    <contour>
      <point x="452" y="279" type="curve" smooth="yes"/>
      <point x="452" y="185"/>
      <point x="388" y="141"/>
      <point x="330" y="141" type="curve" smooth="yes"/>
      <point x="272" y="141"/>
      <point x="208" y="184"/>
      <point x="208" y="278" type="curve" smooth="yes"/>
      <point x="208" y="372"/>
      <point x="272" y="416"/>
      <point x="330" y="416" type="curve" smooth="yes"/>
      <point x="388" y="416"/>
      <point x="452" y="373"/>
    </contour>
    <contour>
      <point x="34" y="278" type="curve" smooth="yes"/>
      <point x="34" y="108"/>
      <point x="149" y="-7"/>
      <point x="288" y="-7" type="curve" smooth="yes"/>
      <point x="361" y="-7"/>
      <point x="414" y="27"/>
      <point x="452" y="81" type="curve"/>
      <point x="452" y="3" type="line" smooth="yes"/>
      <point x="452" y="-94"/>
      <point x="400" y="-128"/>
      <point x="343" y="-128" type="curve" smooth="yes"/>
      <point x="282" y="-128"/>
      <point x="240" y="-109"/>
      <point x="223" y="-65" type="curve"/>
      <point x="55" y="-65" type="line"/>
      <point x="69" y="-211"/>
      <point x="177" y="-276"/>
      <point x="343" y="-276" type="curve" smooth="yes"/>
      <point x="545" y="-276"/>
      <point x="623" y="-147"/>
      <point x="623" y="3" type="curve" smooth="yes"/>
      <point x="623" y="558" type="line"/>
      <point x="452" y="558" type="line"/>
      <point x="452" y="485" type="line"/>
      <point x="416" y="535"/>
      <point x="361" y="564"/>
      <point x="288" y="564" type="curve" smooth="yes"/>
      <point x="149" y="564"/>
      <point x="34" y="448"/>
    </contour>
  </outline>
</glyph>
<glyph name="i" format="1">
  <advance width="321"/>
  <unicode hex="0069"/>
  <outline>
    <contour>
      <point x="246" y="0" type="move" name="ogonek"/>
    </contour>
    <contour>
      <point x="75" y="0" type="line"/>
      <point x="246" y="0" type="line"/>
      <point x="246" y="558" type="line"/>
      <point x="75" y="558" type="line"/>
    </contour>
    <contour>
      <point x="160" y="592" type="curve" smooth="yes"/>
      <point x="216" y="592"/>
      <point x="260" y="636"/>
      <point x="260" y="692" type="curve" smooth="yes"/>
      <point x="260" y="749"/>
      <point x="216" y="793"/>
      <point x="160" y="793" type="curve" smooth="yes"/>
      <point x="104" y="793"/>
      <point x="60" y="749"/>
      <point x="60" y="692" type="curve" smooth="yes"/>
      <point x="60" y="636"/>
      <point x="104" y="592"/>
    </contour>
  </outline>
</glyph>
<glyph name="k" format="1">
  <advance width="653"/>
  <unicode hex="006B"/>
  <outline>
    <contour>
      <point x="327" y="0" type="move" name="bottom"/>
    </contour>
    <contour>
      <point x="75" y="0" type="line"/>
      <point x="246" y="0" type="line"/>
      <point x="246" y="740" type="line"/>
      <point x="75" y="740" type="line"/>
    </contour>
    <contour>
      <point x="207" y="273" type="line"/>
      <point x="422" y="0" type="line"/>
      <point x="649" y="0" type="line"/>
      <point x="401" y="284" type="line"/>
      <point x="394" y="254" type="line"/>
      <point x="649" y="558" type="line"/>
      <point x="419" y="558" type="line"/>
    </contour>
  </outline>
</glyph>
<glyph name="l" format="1">
  <advance width="321"/>
  <unicode hex="006C"/>
  <outline>
    <contour>
      <point x="161" y="10" type="move" name="commaaccent"/>
    </contour>
    <contour>
      <point x="161" y="740" type="move" name="top"/>
    </contour>
    <contour>
      <point x="301" y="558" type="move" name="topright"/>
    </contour>
    <contour>
      <point x="161" y="0" type="move" name="bottom"/>
    </contour>
    <contour>
      <point x="75" y="0" type="line"/>
      <point x="246" y="0" type="line"/>
      <point x="246" y="740" type="line"/>
      <point x="75" y="740" type="line"/>
    </contour>
  </outline>
</glyph>
<glyph name="o" format="1">
  <advance width="653"/>
  <unicode hex="006F"/>
  <outline>
    <contour>
      <point x="327" y="558" type="move" name="top"/>
    </contour>
    <contour>
      <point x="35" y="280" type="curve" smooth="yes"/>
      <point x="35" y="104"/>
      <point x="167" y="-7"/>
      <point x="328" y="-7" type="curve" smooth="yes"/>
      <point x="489" y="-7"/>
      <point x="618" y="104"/>
      <point x="618" y="280" type="curve" smooth="yes"/>
      <point x="618" y="456"/>
      <point x="487" y="564"/>
      <point x="327" y="564" type="curve" smooth="yes"/>
      <point x="166" y="564"/>
      <point x="35" y="456"/>
    </contour>
    <contour>
      <point x="444" y="279" type="curve" smooth="yes"/>
      <point x="444" y="182"/>
      <point x="386" y="139"/>
      <point x="328" y="139" type="curve" smooth="yes"/>
      <point x="270" y="139"/>
      <point x="209" y="182"/>
      <point x="209" y="279" type="curve" smooth="yes"/>
      <point x="209" y="376"/>
      <point x="268" y="418"/>
      <point x="327" y="418" type="curve" smooth="yes"/>
      <point x="384" y="418"/>
      <point x="444" y="376"/>
    </contour>
  </outline>
</glyph>
<glyph name="s" format="1">
  <advance width="555"/>
  <unicode hex="0073"/>
  <outline>
    <contour>
      <point x="278" y="558" type="move" name="top"/>
    </contour>
    <contour>
      <point x="278" y="0" type="move" name="bottom"/>
    </contour>
    <contour>
      <point x="37" y="390" type="curve" smooth="yes"/>
      <point x="37" y="197"/>
      <point x="352" y="262"/>
      <point x="352" y="174" type="curve" smooth="yes"/>
      <point x="352" y="147"/>
      <point x="323" y="126"/>
      <point x="283" y="126" type="curve" smooth="yes"/>
      <point x="243" y="126"/>
      <point x="216" y="139"/>
      <point x="211" y="177" type="curve"/>
      <point x="36" y="177" type="line"/>
      <point x="45" y="50"/>
      <point x="150" y="-7"/>
      <point x="282" y="-7" type="curve" smooth="yes"/>
      <point x="414" y="-7"/>
      <point x="516" y="64"/>
      <point x="516" y="170" type="curve" smooth="yes"/>
      <point x="516" y="369"/>
      <point x="201" y="304"/>
      <point x="201" y="390" type="curve" smooth="yes"/>
      <point x="201" y="417"/>
      <point x="226" y="431"/>
      <point x="268" y="431" type="curve" smooth="yes"/>
      <point x="311" y="431"/>
      <point x="335" y="421"/>
      <point x="339" y="381" type="curve"/>
      <point x="514" y="381" type="line"/>
      <point x="508" y="496"/>
      <point x="408" y="564"/>
      <point x="278" y="564" type="curve" smooth="yes"/>
      <point x="118" y="564"/>
      <point x="37" y="483"/>
    </contour>
  </outline>
</glyph>
<glyph name="y" format="1">
  <advance width="641"/>
  <unicode hex="0079"/>
  <outline>
    <contour>
      <point x="321" y="558" type="move" name="top"/>
    </contour>
    <contour>
      <point x="221" y="11" type="line"/>
      <point x="102" y="-266" type="line"/>
      <point x="281" y="-266" type="line"/>
      <point x="637" y="558" type="line"/>
      <point x="458" y="558" type="line"/>
      <point x="322" y="193" type="line"/>
      <point x="198" y="558" type="line"/>
      <point x="4" y="558" type="line"/>
    </contour>
  </outline>
</glyph>
<glyph name="z" format="1">
  <advance width="515"/>
  <unicode hex="007A"/>
  <outline>
    <contour>
      <point x="258" y="558" type="move" name="top"/>
    </contour>
    <contour>
      <point x="465" y="558" type="line"/>
      <point x="50" y="558" type="line"/>
      <point x="50" y="417" type="line"/>
      <point x="264" y="417" type="line"/>
      <point x="50" y="141" type="line"/>
      <point x="50" y="0" type="line"/>
      <point x="465" y="0" type="line"/>
      <point x="465" y="141" type="line"/>
      <point x="251" y="141" type="line"/>
      <point x="465" y="417" type="line"/>
    </contour>
  </outline>
</glyph>
<glyph name="bar" format="1">
  <advance width="381"/>
  <unicode hex="007C"/>
  <outline>
    <contour>
      <point x="105" y="815" type="line"/>
      <point x="105" y="-129" type="line"/>
      <point x="276" y="-129" type="line"/>
      <point x="276" y="815" type="line"/>
    </contour>
  </outline>
</glyph>
<glyph name="braceright" format="1">
  <advance width="511"/>
  <unicode hex="007D"/>
  <outline>
    <contour>
      <point x="289" y="371" type="line"/>
      <point x="216" y="357"/>
      <point x="183" y="318"/>
      <point x="183" y="252" type="curve" smooth="yes"/>
      <point x="183" y="187"/>
      <point x="199" y="135"/>
      <point x="199" y="61" type="curve" smooth="yes"/>
      <point x="199" y="-75"/>
      <point x="141" y="-172"/>
      <point x="63" y="-201" type="curve"/>
      <point x="63" y="-217" type="line"/>
      <point x="237" y="-217" type="line"/>
      <point x="275" y="-200"/>
      <point x="369" y="-141"/>
      <point x="369" y="44" type="curve" smooth="yes"/>
      <point x="369" y="116"/>
      <point x="352" y="169"/>
      <point x="352" y="238" type="curve" smooth="yes"/>
      <point x="352" y="283"/>
      <point x="373" y="340"/>
      <point x="449" y="342" type="curve"/>
      <point x="449" y="402" type="line"/>
      <point x="373" y="404"/>
      <point x="352" y="461"/>
      <point x="352" y="506" type="curve" smooth="yes"/>
      <point x="352" y="575"/>
      <point x="369" y="628"/>
      <point x="369" y="700" type="curve" smooth="yes"/>
      <point x="369" y="885"/>
      <point x="275" y="944"/>
      <point x="237" y="961" type="curve"/>
      <point x="63" y="961" type="line"/>
      <point x="63" y="945" type="line"/>
      <point x="141" y="916"/>
      <point x="199" y="819"/>
      <point x="199" y="683" type="curve" smooth="yes"/>
      <point x="199" y="609"/>
      <point x="183" y="557"/>
      <point x="183" y="492" type="curve" smooth="yes"/>
      <point x="183" y="426"/>
      <point x="216" y="387"/>
      <point x="289" y="373" type="curve"/>
    </contour>
  </outline>
</glyph>
<glyph name="sterling" format="1">
  <advance width="663"/>
  <unicode hex="00A3"/>
  <outline>
    <contour>
      <point x="98" y="516" type="curve" smooth="yes"/>
      <point x="98" y="409"/>
      <point x="145" y="341"/>
      <point x="145" y="285" type="curve" smooth="yes"/>
      <point x="145" y="190"/>
      <point x="115" y="134"/>
      <point x="54" y="80" type="curve"/>
      <point x="78" y="-4" type="line"/>
      <point x="588" y="-4" type="line"/>
      <point x="588" y="130" type="line"/>
      <point x="241" y="130" type="line"/>
      <point x="291" y="175"/>
      <point x="307" y="239"/>
      <point x="307" y="284" type="curve"/>
      <point x="307" y="358"/>
      <point x="260" y="417"/>
      <point x="260" y="509" type="curve" smooth="yes"/>
      <point x="260" y="575"/>
      <point x="290" y="607"/>
      <point x="345" y="607" type="curve" smooth="yes"/>
      <point x="405" y="607"/>
      <point x="427" y="570"/>
      <point x="427" y="520" type="curve"/>
      <point x="584" y="520" type="line"/>
      <point x="584" y="642"/>
      <point x="509" y="747"/>
      <point x="348" y="747" type="curve" smooth="yes"/>
      <point x="198" y="747"/>
      <point x="98" y="673"/>
    </contour>
    <contour>
      <point x="36" y="402" type="line"/>
      <point x="36" y="287" type="line"/>
      <point x="463" y="287" type="line"/>
      <point x="463" y="402" type="line"/>
    </contour>
  </outline>
</glyph>
<glyph name="brokenbar" format="1">
  <advance width="381"/>
  <unicode hex="00A6"/>
  <outline>
    <contour>
      <point x="105" y="281" type="line"/>
      <point x="105" y="-129" type="line"/>
      <point x="276" y="-129" type="line"/>
      <point x="276" y="281" type="line"/>
    </contour>
    <contour>
      <point x="276" y="405" type="line"/>
      <point x="276" y="815" type="line"/>
      <point x="105" y="815" type="line"/>
      <point x="105" y="405" type="line"/>
    </contour>
  </outline>
</glyph>
<glyph name="dieresis" format="1">
  <advance width="367"/>
  <unicode hex="00A8"/>
  <outline>
    <contour>
      <point x="184" y="558" type="move" name="_top"/>
    </contour>
    <contour>
      <point x="83" y="620" type="curve" smooth="yes"/>
      <point x="125" y="620"/>
      <point x="157" y="652"/>
      <point x="157" y="693" type="curve" smooth="yes"/>
      <point x="157" y="735"/>
      <point x="125" y="767"/>
      <point x="83" y="767" type="curve" smooth="yes"/>
      <point x="42" y="767"/>
      <point x="10" y="735"/>
      <point x="10" y="693" type="curve" smooth="yes"/>
      <point x="10" y="652"/>
      <point x="42" y="620"/>
    </contour>
    <contour>
      <point x="283" y="620" type="curve" smooth="yes"/>
      <point x="325" y="620"/>
      <point x="357" y="652"/>
      <point x="357" y="693" type="curve" smooth="yes"/>
      <point x="357" y="735"/>
      <point x="325" y="767"/>
      <point x="283" y="767" type="curve" smooth="yes"/>
      <point x="242" y="767"/>
      <point x="210" y="735"/>
      <point x="210" y="693" type="curve" smooth="yes"/>
      <point x="210" y="652"/>
      <point x="242" y="620"/>
    </contour>
  </outline>
</glyph>
<glyph name="copyright" format="1">
  <advance width="788"/>
  <unicode hex="00A9"/>
  <outline>
    <contour>
      <point x="746" y="353" type="curve" smooth="yes"/>
      <point x="746" y="142"/>
      <point x="603" y="-7"/>
      <point x="394" y="-7" type="curve" smooth="yes"/>
      <point x="185" y="-7"/>
      <point x="42" y="142"/>
      <point x="42" y="353" type="curve" smooth="yes"/>
      <point x="42" y="564"/>
      <point x="185" y="712"/>
      <point x="394" y="712" type="curve" smooth="yes"/>
      <point x="603" y="712"/>
      <point x="746" y="564"/>
    </contour>
    <contour>
      <point x="102" y="353" type="curve" smooth="yes"/>
      <point x="102" y="170"/>
      <point x="214" y="48"/>
      <point x="394" y="48" type="curve" smooth="yes"/>
      <point x="574" y="48"/>
      <point x="686" y="170"/>
      <point x="686" y="353" type="curve" smooth="yes"/>
      <point x="686" y="538"/>
      <point x="574" y="657"/>
      <point x="394" y="657" type="curve" smooth="yes"/>
      <point x="214" y="657"/>
      <point x="102" y="538"/>
    </contour>
    <contour>
      <point x="168" y="353" type="curve" smooth="yes"/>
      <point x="168" y="213"/>
      <point x="260" y="127"/>
      <point x="388" y="127" type="curve" smooth="yes"/>
      <point x="494" y="127"/>
      <point x="575" y="187"/>
      <point x="599" y="281" type="curve"/>
      <point x="453" y="281" type="line"/>
      <point x="438" y="252"/>
      <point x="422" y="242"/>
      <point x="388" y="242" type="curve" smooth="yes"/>
      <point x="332" y="242"/>
      <point x="306" y="289"/>
      <point x="306" y="353" type="curve" smooth="yes"/>
      <point x="306" y="416"/>
      <point x="332" y="463"/>
      <point x="388" y="463" type="curve" smooth="yes"/>
      <point x="422" y="463"/>
      <point x="442" y="447"/>
      <point x="453" y="424" type="curve"/>
      <point x="599" y="424" type="line"/>
      <point x="575" y="525"/>
      <point x="494" y="578"/>
      <point x="388" y="578" type="curve" smooth="yes"/>
      <point x="260" y="578"/>
      <point x="168" y="493"/>
    </contour>
  </outline>
</glyph>
<glyph name="logicalnot" format="1">
  <advance width="772"/>
  <unicode hex="00AC"/>
  <outline>
    <contour>
      <point x="30" y="312" type="line"/>
      <point x="541" y="312" type="line"/>
      <point x="541" y="180" type="line"/>
      <point x="712" y="180" type="line"/>
      <point x="712" y="442" type="line"/>
      <point x="30" y="442" type="line"/>
    </contour>
  </outline>
</glyph>
<glyph name="registered" format="1">
  <advance width="788"/>
  <unicode hex="00AE"/>
  <outline>
    <contour>
      <point x="778" y="353" type="curve" smooth="yes"/>
      <point x="778" y="142"/>
      <point x="629" y="-7"/>
      <point x="410" y="-7" type="curve" smooth="yes"/>
      <point x="191" y="-7"/>
      <point x="42" y="142"/>
      <point x="42" y="353" type="curve" smooth="yes"/>
      <point x="42" y="564"/>
      <point x="191" y="712"/>
      <point x="410" y="712" type="curve" smooth="yes"/>
      <point x="629" y="712"/>
      <point x="778" y="564"/>
    </contour>
    <contour>
      <point x="102" y="353" type="curve" smooth="yes"/>
      <point x="102" y="170"/>
      <point x="220" y="48"/>
      <point x="410" y="48" type="curve" smooth="yes"/>
      <point x="600" y="48"/>
      <point x="718" y="170"/>
      <point x="718" y="353" type="curve" smooth="yes"/>
      <point x="718" y="538"/>
      <point x="600" y="657"/>
      <point x="410" y="657" type="curve" smooth="yes"/>
      <point x="220" y="657"/>
      <point x="102" y="538"/>
    </contour>
    <contour>
      <point x="484" y="443" type="curve" smooth="yes"/>
      <point x="484" y="412"/>
      <point x="464" y="391"/>
      <point x="432" y="391" type="curve" smooth="yes"/>
      <point x="366" y="391" type="line"/>
      <point x="366" y="496" type="line"/>
      <point x="432" y="496" type="line" smooth="yes"/>
      <point x="464" y="496"/>
      <point x="484" y="474"/>
    </contour>
    <contour>
      <point x="260" y="577" type="line"/>
      <point x="260" y="141" type="line"/>
      <point x="366" y="141" type="line"/>
      <point x="366" y="311" type="line"/>
      <point x="432" y="311" type="line" smooth="yes"/>
      <point x="559" y="311"/>
      <point x="592" y="393"/>
      <point x="592" y="443" type="curve" smooth="yes"/>
      <point x="592" y="512"/>
      <point x="538" y="577"/>
      <point x="432" y="577" type="curve" smooth="yes"/>
    </contour>
    <contour>
      <point x="363" y="337" type="line"/>
      <point x="476" y="141" type="line"/>
      <point x="600" y="141" type="line"/>
      <point x="483" y="337" type="line"/>
    </contour>
  </outline>
</glyph>
<glyph name="macron" format="1">
  <advance width="420"/>
  <unicode hex="00AF"/>
  <outline>
    <contour>
      <point x="210" y="558" type="move" name="_top"/>
    </contour>
    <contour>
      <point x="10" y="628" type="line"/>
      <point x="410" y="628" type="line"/>
      <point x="410" y="746" type="line"/>
      <point x="10" y="746" type="line"/>
    </contour>
  </outline>
</glyph>
<glyph name="degree" format="1">
  <advance width="463"/>
  <unicode hex="00B0"/>
  <outline>
    <contour>
      <point x="25" y="529" type="curve" smooth="yes"/>
      <point x="25" y="418"/>
      <point x="111" y="347"/>
      <point x="233" y="347" type="curve" smooth="yes"/>
      <point x="355" y="347"/>
      <point x="438" y="418"/>
      <point x="438" y="529" type="curve" smooth="yes"/>
      <point x="438" y="641"/>
      <point x="354" y="709"/>
      <point x="232" y="709" type="curve" smooth="yes"/>
      <point x="110" y="709"/>
      <point x="25" y="641"/>
    </contour>
    <contour>
      <point x="306" y="528" type="curve" smooth="yes"/>
      <point x="306" y="467"/>
      <point x="269" y="440"/>
      <point x="233" y="440" type="curve" smooth="yes"/>
      <point x="196" y="440"/>
      <point x="157" y="467"/>
      <point x="157" y="528" type="curve" smooth="yes"/>
      <point x="157" y="590"/>
      <point x="195" y="617"/>
      <point x="232" y="617" type="curve" smooth="yes"/>
      <point x="268" y="617"/>
      <point x="306" y="590"/>
    </contour>
  </outline>
</glyph>
<glyph name="twosuperior" format="1">
  <advance width="383"/>
  <unicode hex="00B2"/>
  <outline>
    <contour>
      <point x="37" y="592" type="curve"/>
      <point x="167" y="592" type="line"/>
      <point x="167" y="610"/>
      <point x="176" y="622"/>
      <point x="192" y="622" type="curve" smooth="yes"/>
      <point x="208" y="622"/>
      <point x="217" y="610"/>
      <point x="217" y="592" type="curve" smooth="yes"/>
      <point x="217" y="567"/>
      <point x="197" y="550"/>
      <point x="161" y="528" type="curve"/>
      <point x="39" y="453" type="line"/>
      <point x="39" y="352" type="line"/>
      <point x="348" y="352" type="line"/>
      <point x="348" y="452" type="line"/>
      <point x="145" y="452" type="line"/>
      <point x="116" y="423" type="line"/>
      <point x="252" y="491" type="line"/>
      <point x="321" y="526"/>
      <point x="353" y="553"/>
      <point x="353" y="600" type="curve" smooth="yes"/>
      <point x="353" y="655"/>
      <point x="300" y="714"/>
      <point x="200" y="714" type="curve" smooth="yes"/>
      <point x="100" y="714"/>
      <point x="37" y="667"/>
    </contour>
  </outline>
</glyph>
<glyph name="acute" format="1">
  <advance width="261"/>
  <unicode hex="00B4"/>
  <outline>
    <contour>
      <point x="135" y="558" type="move" name="_top"/>
    </contour>
    <contour>
      <point x="10" y="714" type="line"/>
      <point x="10" y="596" type="line"/>
      <point x="251" y="697" type="line"/>
      <point x="251" y="830" type="line"/>
    </contour>
  </outline>
</glyph>
<glyph name="paragraph" format="1">
  <advance width="708"/>
  <unicode hex="00B6"/>
  <outline>
    <contour>
      <point x="266" y="702" type="line"/>
      <point x="97" y="702"/>
      <point x="28" y="598"/>
      <point x="28" y="487" type="curve" smooth="yes"/>
      <point x="28" y="376"/>
      <point x="97" y="273"/>
      <point x="266" y="273" type="curve" smooth="yes"/>
      <point x="289" y="273" type="line"/>
      <point x="289" y="0" type="line"/>
      <point x="430" y="0" type="line"/>
      <point x="430" y="572" type="line"/>
      <point x="492" y="572" type="line"/>
      <point x="492" y="0" type="line"/>
      <point x="633" y="0" type="line"/>
      <point x="633" y="702" type="line"/>
    </contour>
  </outline>
</glyph>
<glyph name="cedilla" format="1">
  <advance width="313"/>
  <unicode hex="00B8"/>
  <outline>
    <contour>
      <point x="114" y="0" type="move" name="_bottom"/>
    </contour>
    <contour>
      <point x="173" y="7" type="line"/>
      <point x="70" y="7" type="line"/>
      <point x="70" y="-122" type="line"/>
      <point x="125" y="-122" type="line" smooth="yes"/>
      <point x="160" y="-122"/>
      <point x="181" y="-117"/>
      <point x="181" y="-147" type="curve" smooth="yes"/>
      <point x="181" y="-177"/>
      <point x="160" y="-173"/>
      <point x="125" y="-173" type="curve" smooth="yes"/>
      <point x="10" y="-173" type="line"/>
      <point x="10" y="-266" type="line"/>
      <point x="173" y="-266" type="line" smooth="yes"/>
      <point x="238" y="-266"/>
      <point x="303" y="-227"/>
      <point x="303" y="-147" type="curve" smooth="yes"/>
      <point x="303" y="-67"/>
      <point x="238" y="-37"/>
      <point x="173" y="-37" type="curve"/>
    </contour>
  </outline>
</glyph>
<glyph name="onesuperior" format="1">
  <advance width="249"/>
  <unicode hex="00B9"/>
  <outline>
    <contour>
      <point x="80" y="352" type="line"/>
      <point x="209" y="352" type="line"/>
      <point x="209" y="704" type="line"/>
      <point x="20" y="704" type="line"/>
      <point x="20" y="605" type="line"/>
      <point x="80" y="605" type="line"/>
    </contour>
  </outline>
</glyph>
<glyph name="guillemotright" format="1">
  <advance width="557"/>
  <unicode hex="00BB"/>
  <outline>
    <contour>
      <point x="428" y="120" type="line"/>
      <point x="512" y="295" type="line"/>
      <point x="428" y="470" type="line"/>
      <point x="270" y="470" type="line"/>
      <point x="357" y="295" type="line"/>
      <point x="270" y="120" type="line"/>
    </contour>
    <contour>
      <point x="208" y="120" type="line"/>
      <point x="292" y="295" type="line"/>
      <point x="208" y="470" type="line"/>
      <point x="50" y="470" type="line"/>
      <point x="137" y="295" type="line"/>
      <point x="50" y="120" type="line"/>
    </contour>
  </outline>
</glyph>
<glyph name="onequarter" format="1">
  <advance width="786"/>
  <unicode hex="00BC"/>
  <outline>
    <contour>
      <point x="88" y="0" type="line"/>
      <point x="253" y="0" type="line"/>
      <point x="638" y="704" type="line"/>
      <point x="473" y="704" type="line"/>
    </contour>
    <contour>
      <point x="716" y="135" type="line"/>
      <point x="716" y="352" type="line"/>
      <point x="527" y="352" type="line"/>
      <point x="392" y="130" type="line"/>
      <point x="392" y="62" type="line"/>
      <point x="587" y="62" type="line"/>
      <point x="587" y="0" type="line"/>
      <point x="716" y="0" type="line"/>
      <point x="716" y="62" type="line"/>
      <point x="756" y="62" type="line"/>
      <point x="756" y="135" type="line"/>
    </contour>
    <contour>
      <point x="515" y="135" type="line"/>
      <point x="593" y="277" type="line"/>
      <point x="593" y="135" type="line"/>
    </contour>
    <component base="onesuperior" xOffset="20"/>
  </outline>
</glyph>
<glyph name="onehalf" format="1">
  <advance width="821"/>
  <unicode hex="00BD"/>
  <outline>
    <contour>
      <point x="88" y="0" type="line"/>
      <point x="253" y="0" type="line"/>
      <point x="638" y="704" type="line"/>
      <point x="473" y="704" type="line"/>
    </contour>
    <component base="twosuperior" xOffset="409" yOffset="-353"/>
    <component base="onesuperior" xOffset="20"/>
  </outline>
</glyph>
<glyph name="threequarters" format="1">
  <advance width="891"/>
  <unicode hex="00BE"/>
  <outline>
    <contour>
      <point x="203" y="0" type="line"/>
      <point x="368" y="0" type="line"/>
      <point x="753" y="704" type="line"/>
      <point x="588" y="704" type="line"/>
    </contour>
    <contour>
      <point x="831" y="135" type="line"/>
      <point x="831" y="352" type="line"/>
      <point x="642" y="352" type="line"/>
      <point x="507" y="130" type="line"/>
      <point x="507" y="62" type="line"/>
      <point x="702" y="62" type="line"/>
      <point x="702" y="0" type="line"/>
      <point x="831" y="0" type="line"/>
      <point x="831" y="62" type="line"/>
      <point x="871" y="62" type="line"/>
      <point x="871" y="135" type="line"/>
    </contour>
    <contour>
      <point x="630" y="135" type="line"/>
      <point x="708" y="277" type="line"/>
      <point x="708" y="135" type="line"/>
    </contour>
    <component base="threesuperior" xOffset="35"/>
  </outline>
</glyph>
<glyph name="multiply" format="1">
  <advance width="653"/>
  <unicode hex="00D7"/>
  <outline>
    <contour>
      <point x="81" y="489" type="line"/>
      <point x="464" y="106" type="line"/>
      <point x="576" y="217" type="line"/>
      <point x="193" y="600" type="line"/>
    </contour>
    <contour>
      <point x="188" y="107" type="line"/>
      <point x="569" y="490" type="line"/>
      <point x="458" y="600" type="line"/>
      <point x="77" y="217" type="line"/>
    </contour>
  </outline>
</glyph>
<glyph name="Oslash" format="1">
  <advance width="788"/>
  <unicode hex="00D8"/>
  <outline>
    <contour>
      <point x="23" y="0" type="line"/>
      <point x="127" y="0" type="line"/>
      <point x="765" y="704" type="line"/>
      <point x="661" y="704" type="line"/>
    </contour>
    <component base="O"/>
  </outline>
</glyph>
<glyph name="Thorn" format="1">
  <advance width="638"/>
  <unicode hex="00DE"/>
  <outline>
    <contour>
      <point x="246" y="268" type="line"/>
      <point x="246" y="437" type="line"/>
      <point x="352" y="437" type="line" smooth="yes"/>
      <point x="404" y="437"/>
      <point x="436" y="401"/>
      <point x="436" y="352" type="curve" smooth="yes"/>
      <point x="436" y="302"/>
      <point x="404" y="268"/>
      <point x="352" y="268" type="curve" smooth="yes"/>
    </contour>
    <contour>
      <point x="610" y="352" type="curve" smooth="yes"/>
      <point x="610" y="463"/>
      <point x="524" y="567"/>
      <point x="352" y="567" type="curve" smooth="yes"/>
      <point x="242" y="567" type="line"/>
      <point x="242" y="704" type="line"/>
      <point x="75" y="704" type="line"/>
      <point x="75" y="0" type="line"/>
      <point x="246" y="0" type="line"/>
      <point x="246" y="138" type="line"/>
      <point x="352" y="138" type="line" smooth="yes"/>
      <point x="558" y="138"/>
      <point x="610" y="271"/>
    </contour>
  </outline>
</glyph>
<glyph name="germandbls" format="1">
  <advance width="746"/>
  <unicode hex="00DF"/>
  <outline>
    <contour>
      <point x="75" y="513" type="curve" smooth="yes"/>
      <point x="75" y="0" type="line"/>
      <point x="246" y="0" type="line"/>
      <point x="245" y="513" type="line" smooth="yes"/>
      <point x="245" y="570"/>
      <point x="282" y="602"/>
      <point x="326" y="602" type="curve" smooth="yes"/>
      <point x="370" y="602"/>
      <point x="403" y="566"/>
      <point x="403" y="522" type="curve" smooth="yes"/>
      <point x="403" y="490"/>
      <point x="391" y="465"/>
      <point x="361" y="447" type="curve" smooth="yes"/>
      <point x="341" y="435" type="line"/>
      <point x="341" y="365" type="line"/>
      <point x="491" y="281" type="line" smooth="yes"/>
      <point x="534" y="257"/>
      <point x="551" y="237"/>
      <point x="551" y="206" type="curve" smooth="yes"/>
      <point x="551" y="172"/>
      <point x="522" y="141"/>
      <point x="492" y="141" type="curve" smooth="yes"/>
      <point x="462" y="141"/>
      <point x="437" y="159"/>
      <point x="432" y="197" type="curve"/>
      <point x="297" y="197" type="line"/>
      <point x="298" y="70"/>
      <point x="387" y="-7"/>
      <point x="502" y="-7" type="curve" smooth="yes"/>
      <point x="627" y="-7"/>
      <point x="725" y="82"/>
      <point x="725" y="206" type="curve" smooth="yes"/>
      <point x="725" y="299"/>
      <point x="685" y="354"/>
      <point x="585" y="410" type="curve" smooth="yes"/>
      <point x="460" y="480" type="line"/>
      <point x="401" y="406" type="line"/>
      <point x="461" y="432" type="line" smooth="yes"/>
      <point x="546" y="469"/>
      <point x="578" y="509"/>
      <point x="578" y="568" type="curve" smooth="yes"/>
      <point x="578" y="658"/>
      <point x="501" y="750"/>
      <point x="336" y="750" type="curve" smooth="yes"/>
      <point x="171" y="750"/>
      <point x="75" y="660"/>
    </contour>
  </outline>
</glyph>
<glyph name="eth" format="1">
  <advance width="652"/>
  <unicode hex="00F0"/>
  <outline>
    <contour>
      <point x="443" y="279" type="curve" smooth="yes"/>
      <point x="443" y="182"/>
      <point x="385" y="139"/>
      <point x="327" y="139" type="curve" smooth="yes"/>
      <point x="269" y="139"/>
      <point x="208" y="182"/>
      <point x="208" y="279" type="curve" smooth="yes"/>
      <point x="208" y="376"/>
      <point x="267" y="418"/>
      <point x="326" y="418" type="curve" smooth="yes"/>
      <point x="383" y="418"/>
      <point x="443" y="376"/>
    </contour>
    <contour>
      <point x="34" y="280" type="curve" smooth="yes"/>
      <point x="34" y="104"/>
      <point x="166" y="-7"/>
      <point x="327" y="-7" type="curve" smooth="yes"/>
      <point x="488" y="-7"/>
      <point x="617" y="104"/>
      <point x="617" y="317" type="curve" smooth="yes"/>
      <point x="617" y="478"/>
      <point x="538" y="630"/>
      <point x="420" y="740" type="curve"/>
      <point x="263" y="740" type="line"/>
      <point x="333" y="681"/>
      <point x="392" y="608"/>
      <point x="426" y="533" type="curve"/>
      <point x="390" y="553"/>
      <point x="354" y="564"/>
      <point x="312" y="564" type="curve" smooth="yes"/>
      <point x="156" y="564"/>
      <point x="34" y="456"/>
    </contour>
    <contour>
      <point x="270" y="655" type="line"/>
      <point x="270" y="588" type="line"/>
      <point x="545" y="672" type="line"/>
      <point x="545" y="739" type="line"/>
    </contour>
  </outline>
</glyph>
<glyph name="oslash" format="1">
  <advance width="653"/>
  <unicode hex="00F8"/>
  <outline>
    <contour>
      <point x="25" y="0" type="line"/>
      <point x="117" y="0" type="line"/>
      <point x="628" y="558" type="line"/>
      <point x="536" y="558" type="line"/>
    </contour>
    <component base="o" xOffset="1"/>
  </outline>
</glyph>
<glyph name="dcroat" format="1">
  <advance width="698"/>
  <unicode hex="0111"/>
  <outline>
    <contour>
      <point x="376" y="591" type="line"/>
      <point x="679" y="591" type="line"/>
      <point x="679" y="673" type="line"/>
      <point x="376" y="673" type="line"/>
    </contour>
    <component base="d"/>
  </outline>
</glyph>
<glyph name="eogonek" format="1">
  <advance width="632"/>
  <unicode hex="0119"/>
  <outline>
    <contour>
      <point x="34" y="280" type="curve" smooth="yes"/>
      <point x="34" y="117"/>
      <point x="134" y="10"/>
      <point x="276" y="-5" type="curve"/>
      <point x="276" y="-8"/>
      <point x="276" y="-12"/>
      <point x="276" y="-15" type="curve" smooth="yes"/>
      <point x="276" y="-95"/>
      <point x="341" y="-134"/>
      <point x="406" y="-134" type="curve" smooth="yes"/>
      <point x="549" y="-134" type="line"/>
      <point x="549" y="-41" type="line"/>
      <point x="454" y="-41" type="line" smooth="yes"/>
      <point x="419" y="-41"/>
      <point x="398" y="-45"/>
      <point x="398" y="-15" type="curve" smooth="yes"/>
      <point x="398" y="-2"/>
      <point x="405" y="6"/>
      <point x="429" y="15" type="curve" smooth="yes"/>
      <point x="485" y="36"/>
      <point x="554" y="91"/>
      <point x="579" y="180" type="curve"/>
      <point x="394" y="180" type="line"/>
      <point x="375" y="157"/>
      <point x="360" y="139"/>
      <point x="312" y="139" type="curve" smooth="yes"/>
      <point x="247" y="139"/>
      <point x="208" y="184"/>
      <point x="208" y="240" type="curve" smooth="yes"/>
      <point x="208" y="308" type="line" smooth="yes"/>
      <point x="208" y="372"/>
      <point x="253" y="418"/>
      <point x="311" y="418" type="curve" smooth="yes"/>
      <point x="369" y="418"/>
      <point x="414" y="383"/>
      <point x="419" y="330" type="curve"/>
      <point x="196" y="330" type="line"/>
      <point x="194" y="223" type="line"/>
      <point x="593" y="223" type="line"/>
      <point x="596" y="242"/>
      <point x="597" y="260"/>
      <point x="597" y="277" type="curve" smooth="yes"/>
      <point x="597" y="462"/>
      <point x="471" y="564"/>
      <point x="311" y="564" type="curve" smooth="yes"/>
      <point x="151" y="564"/>
      <point x="34" y="456"/>
    </contour>
  </outline>
</glyph>
<glyph name="dotlessi" format="1">
  <advance width="321"/>
  <unicode hex="0131"/>
  <outline>
    <contour>
      <point x="161" y="558" type="move" name="top"/>
    </contour>
    <contour>
      <point x="289" y="10" type="move" name="ogonek"/>
    </contour>
    <contour>
      <point x="75" y="0" type="line"/>
      <point x="246" y="0" type="line"/>
      <point x="246" y="558" type="line"/>
      <point x="75" y="558" type="line"/>
    </contour>
  </outline>
</glyph>
<glyph name="Lslash" format="1">
  <advance width="479"/>
  <unicode hex="0141"/>
  <outline>
    <contour>
      <point x="20" y="239" type="line"/>
      <point x="309" y="309" type="line"/>
      <point x="309" y="473" type="line"/>
      <point x="20" y="403" type="line"/>
    </contour>
    <contour>
      <point x="75" y="702" type="line"/>
      <point x="75" y="0" type="line"/>
      <point x="459" y="0" type="line"/>
      <point x="459" y="130" type="line"/>
      <point x="246" y="130" type="line"/>
      <point x="246" y="702" type="line"/>
    </contour>
  </outline>
</glyph>
<glyph name="lslash" format="1">
  <advance width="321"/>
  <unicode hex="0142"/>
  <outline>
    <contour>
      <point x="20" y="239" type="line"/>
      <point x="301" y="309" type="line"/>
      <point x="301" y="473" type="line"/>
      <point x="20" y="403" type="line"/>
    </contour>
    <contour>
      <point x="75" y="0" type="line"/>
      <point x="246" y="0" type="line"/>
      <point x="246" y="740" type="line"/>
      <point x="75" y="740" type="line"/>
    </contour>
  </outline>
</glyph>
<glyph name="OE" format="1">
  <advance width="1076"/>
  <unicode hex="0152"/>
  <outline>
    <contour>
      <point x="208" y="353" type="curve" smooth="yes"/>
      <point x="208" y="476"/>
      <point x="281" y="555"/>
      <point x="394" y="555" type="curve" smooth="yes"/>
      <point x="506" y="555"/>
      <point x="579" y="476"/>
      <point x="579" y="353" type="curve" smooth="yes"/>
      <point x="579" y="231"/>
      <point x="506" y="151"/>
      <point x="394" y="151" type="curve" smooth="yes"/>
      <point x="281" y="151"/>
      <point x="208" y="231"/>
    </contour>
    <contour>
      <point x="1004" y="572" type="line"/>
      <point x="1004" y="702" type="line"/>
      <point x="579" y="702" type="line"/>
      <point x="579" y="639" type="line"/>
      <point x="527" y="686"/>
      <point x="462" y="712"/>
      <point x="394" y="712" type="curve" smooth="yes"/>
      <point x="195" y="712"/>
      <point x="34" y="564"/>
      <point x="34" y="353" type="curve" smooth="yes"/>
      <point x="34" y="142"/>
      <point x="195" y="-7"/>
      <point x="394" y="-7" type="curve" smooth="yes"/>
      <point x="462" y="-7"/>
      <point x="527" y="20"/>
      <point x="579" y="63" type="curve"/>
      <point x="579" y="0" type="line"/>
      <point x="1004" y="0" type="line"/>
      <point x="1004" y="130" type="line"/>
      <point x="750" y="130" type="line"/>
      <point x="750" y="291" type="line"/>
      <point x="974" y="291" type="line"/>
      <point x="974" y="421" type="line"/>
      <point x="750" y="421" type="line"/>
      <point x="750" y="572" type="line"/>
    </contour>
  </outline>
</glyph>
<glyph name="oe" format="1">
  <advance width="1041"/>
  <unicode hex="0153"/>
  <outline>
    <contour>
      <point x="443" y="279" type="curve" smooth="yes"/>
      <point x="443" y="182"/>
      <point x="385" y="139"/>
      <point x="327" y="139" type="curve" smooth="yes"/>
      <point x="269" y="139"/>
      <point x="208" y="182"/>
      <point x="208" y="279" type="curve" smooth="yes"/>
      <point x="208" y="376"/>
      <point x="267" y="418"/>
      <point x="326" y="418" type="curve" smooth="yes"/>
      <point x="383" y="418"/>
      <point x="443" y="376"/>
    </contour>
    <contour>
      <point x="34" y="280" type="curve" smooth="yes"/>
      <point x="34" y="104"/>
      <point x="166" y="-7"/>
      <point x="327" y="-7" type="curve" smooth="yes"/>
      <point x="404" y="-7"/>
      <point x="475" y="25"/>
      <point x="527" y="84" type="curve"/>
      <point x="576" y="25"/>
      <point x="644" y="-7"/>
      <point x="721" y="-7" type="curve" smooth="yes"/>
      <point x="855" y="-7"/>
      <point x="957" y="70"/>
      <point x="988" y="180" type="curve"/>
      <point x="803" y="180" type="line"/>
      <point x="784" y="157"/>
      <point x="769" y="139"/>
      <point x="721" y="139" type="curve" smooth="yes"/>
      <point x="656" y="139"/>
      <point x="617" y="184"/>
      <point x="617" y="240" type="curve" smooth="yes"/>
      <point x="617" y="308" type="line" smooth="yes"/>
      <point x="617" y="372"/>
      <point x="662" y="418"/>
      <point x="720" y="418" type="curve" smooth="yes"/>
      <point x="778" y="418"/>
      <point x="823" y="383"/>
      <point x="828" y="330" type="curve"/>
      <point x="565" y="330" type="line"/>
      <point x="563" y="223" type="line"/>
      <point x="1002" y="223" type="line"/>
      <point x="1005" y="242"/>
      <point x="1006" y="260"/>
      <point x="1006" y="277" type="curve" smooth="yes"/>
      <point x="1006" y="462"/>
      <point x="880" y="564"/>
      <point x="720" y="564" type="curve" smooth="yes"/>
      <point x="643" y="564"/>
      <point x="575" y="532"/>
      <point x="526" y="473" type="curve"/>
      <point x="474" y="532"/>
      <point x="403" y="564"/>
      <point x="326" y="564" type="curve" smooth="yes"/>
      <point x="165" y="564"/>
      <point x="34" y="456"/>
    </contour>
  </outline>
</glyph>
<glyph name="Uogonek" format="1">
  <advance width="731"/>
  <unicode hex="0172"/>
  <outline>
    <contour>
      <point x="72" y="283" type="line"/>
      <point x="72" y="117"/>
      <point x="173" y="23"/>
      <point x="297" y="-1" type="curve"/>
      <point x="296" y="-8"/>
      <point x="295" y="-16"/>
      <point x="295" y="-24" type="curve" smooth="yes"/>
      <point x="295" y="-104"/>
      <point x="360" y="-143"/>
      <point x="425" y="-143" type="curve" smooth="yes"/>
      <point x="568" y="-143" type="line"/>
      <point x="568" y="-50" type="line"/>
      <point x="455" y="-50" type="line" smooth="yes"/>
      <point x="426" y="-50"/>
      <point x="417" y="-42"/>
      <point x="417" y="-26" type="curve" smooth="yes"/>
      <point x="417" y="-11"/>
      <point x="429" y="-2"/>
      <point x="463" y="8" type="curve" smooth="yes"/>
      <point x="558" y="36"/>
      <point x="660" y="121"/>
      <point x="660" y="283" type="curve" smooth="yes"/>
      <point x="660" y="702" type="line"/>
      <point x="489" y="702" type="line"/>
      <point x="489" y="283" type="line" smooth="yes"/>
      <point x="489" y="200"/>
      <point x="446" y="152"/>
      <point x="365" y="152" type="curve" smooth="yes"/>
      <point x="284" y="152"/>
      <point x="243" y="200"/>
      <point x="243" y="283" type="curve" smooth="yes"/>
      <point x="243" y="702" type="line"/>
      <point x="72" y="702" type="line"/>
    </contour>
  </outline>
</glyph>
<glyph name="circumflex" format="1">
  <advance width="330"/>
  <unicode hex="02C6"/>
  <outline>
    <contour>
      <point x="165" y="558" type="move" name="_top"/>
    </contour>
    <contour>
      <point x="320" y="712" type="line"/>
      <point x="165" y="796" type="line"/>
      <point x="10" y="712" type="line"/>
      <point x="10" y="594" type="line"/>
      <point x="165" y="681" type="line"/>
      <point x="320" y="594" type="line"/>
    </contour>
  </outline>
</glyph>
<glyph name="breve" format="1">
  <advance width="360"/>
  <unicode hex="02D8"/>
  <outline>
    <contour>
      <point x="180" y="558" type="move" name="_top"/>
    </contour>
    <contour>
      <point x="350" y="766" type="curve" smooth="yes"/>
      <point x="350" y="796" type="line"/>
      <point x="265" y="796" type="line"/>
      <point x="265" y="754"/>
      <point x="245" y="729"/>
      <point x="180" y="729" type="curve" smooth="yes"/>
      <point x="115" y="729"/>
      <point x="95" y="754"/>
      <point x="95" y="796" type="curve"/>
      <point x="10" y="796" type="line"/>
      <point x="10" y="766" type="line" smooth="yes"/>
      <point x="10" y="659"/>
      <point x="80" y="604"/>
      <point x="180" y="604" type="curve" smooth="yes"/>
      <point x="280" y="604"/>
      <point x="350" y="659"/>
    </contour>
  </outline>
</glyph>
<glyph name="dotaccent" format="1">
  <advance width="167"/>
  <unicode hex="02D9"/>
  <outline>
    <contour>
      <point x="84" y="558" type="move" name="_top"/>
    </contour>
    <contour>
      <point x="83" y="620" type="curve" smooth="yes"/>
      <point x="125" y="620"/>
      <point x="157" y="652"/>
      <point x="157" y="693" type="curve" smooth="yes"/>
      <point x="157" y="735"/>
      <point x="125" y="767"/>
      <point x="83" y="767" type="curve" smooth="yes"/>
      <point x="42" y="767"/>
      <point x="10" y="735"/>
      <point x="10" y="693" type="curve" smooth="yes"/>
      <point x="10" y="652"/>
      <point x="42" y="620"/>
    </contour>
  </outline>
</glyph>
<glyph name="ogonek" format="1">
  <advance width="293"/>
  <unicode hex="02DB"/>
  <outline>
    <contour>
      <point x="243" y="0" type="move" name="_ogonek"/>
    </contour>
    <contour>
      <point x="10" y="-93" type="curve" smooth="yes"/>
      <point x="10" y="-173"/>
      <point x="75" y="-212"/>
      <point x="140" y="-212" type="curve" smooth="yes"/>
      <point x="283" y="-212" type="line"/>
      <point x="283" y="-119" type="line"/>
      <point x="188" y="-119" type="line" smooth="yes"/>
      <point x="153" y="-119"/>
      <point x="132" y="-123"/>
      <point x="132" y="-93" type="curve" smooth="yes"/>
      <point x="132" y="-63"/>
      <point x="153" y="-68"/>
      <point x="188" y="-68" type="curve" smooth="yes"/>
      <point x="243" y="-68" type="line"/>
      <point x="243" y="17" type="line"/>
      <point x="140" y="17" type="line"/>
      <point x="75" y="17"/>
      <point x="10" y="-13"/>
    </contour>
  </outline>
</glyph>
<glyph name="tilde" format="1">
  <advance width="410"/>
  <unicode hex="02DC"/>
  <outline>
    <contour>
      <point x="205" y="558" type="move" name="_top"/>
    </contour>
    <contour>
      <point x="10" y="610" type="curve"/>
      <point x="92" y="610" type="line"/>
      <point x="97" y="641"/>
      <point x="113" y="655"/>
      <point x="136" y="655" type="curve" smooth="yes"/>
      <point x="176" y="655"/>
      <point x="207" y="610"/>
      <point x="267" y="610" type="curve" smooth="yes"/>
      <point x="335" y="610"/>
      <point x="383" y="653"/>
      <point x="400" y="758" type="curve"/>
      <point x="317" y="758" type="line"/>
      <point x="313" y="727"/>
      <point x="297" y="713"/>
      <point x="274" y="713" type="curve" smooth="yes"/>
      <point x="234" y="713"/>
      <point x="203" y="758"/>
      <point x="143" y="758" type="curve" smooth="yes"/>
      <point x="75" y="758"/>
      <point x="27" y="715"/>
    </contour>
  </outline>
</glyph>
<glyph name="pi" format="1">
  <advance width="707"/>
  <unicode hex="03C0"/>
  <outline>
    <contour>
      <point x="20" y="428" type="line"/>
      <point x="90" y="428" type="line"/>
      <point x="90" y="0" type="line"/>
      <point x="261" y="0" type="line"/>
      <point x="261" y="428" type="line"/>
      <point x="446" y="428" type="line"/>
      <point x="446" y="0" type="line"/>
      <point x="617" y="0" type="line"/>
      <point x="617" y="428" type="line"/>
      <point x="687" y="428" type="line"/>
      <point x="687" y="558" type="line"/>
      <point x="20" y="558" type="line"/>
    </contour>
  </outline>
</glyph>
<glyph name="dvAnusvara" format="1">
  <advance width="0"/>
  <unicode hex="0902"/>
  <outline>
    <contour>
      <point x="-75" y="740" type="move" name="_abvm.e"/>
    </contour>
    <contour>
      <point x="-158" y="838" type="curve" smooth="yes"/>
      <point x="-105" y="838"/>
      <point x="-63" y="880"/>
      <point x="-63" y="932" type="curve" smooth="yes"/>
      <point x="-63" y="985"/>
      <point x="-105" y="1027"/>
      <point x="-158" y="1027" type="curve" smooth="yes"/>
      <point x="-210" y="1027"/>
      <point x="-252" y="985"/>
      <point x="-252" y="932" type="curve" smooth="yes"/>
      <point x="-252" y="880"/>
      <point x="-210" y="838"/>
    </contour>
  </outline>
</glyph>
<glyph name="dvVisarga" format="1">
  <advance width="233"/>
  <unicode hex="0903"/>
  <outline>
    <contour>
      <point x="116" y="401" type="curve" smooth="yes"/>
      <point x="159" y="401"/>
      <point x="193" y="435"/>
      <point x="193" y="477" type="curve" smooth="yes"/>
      <point x="193" y="520"/>
      <point x="159" y="554"/>
      <point x="116" y="554" type="curve" smooth="yes"/>
      <point x="74" y="554"/>
      <point x="40" y="520"/>
      <point x="40" y="477" type="curve" smooth="yes"/>
      <point x="40" y="435"/>
      <point x="74" y="401"/>
    </contour>
    <contour>
      <point x="116" y="118" type="curve" smooth="yes"/>
      <point x="159" y="118"/>
      <point x="193" y="152"/>
      <point x="193" y="194" type="curve" smooth="yes"/>
      <point x="193" y="237"/>
      <point x="159" y="271"/>
      <point x="116" y="271" type="curve" smooth="yes"/>
      <point x="74" y="271"/>
      <point x="40" y="237"/>
      <point x="40" y="194" type="curve" smooth="yes"/>
      <point x="40" y="152"/>
      <point x="74" y="118"/>
    </contour>
  </outline>
</glyph>
<glyph name="dvA" format="1">
  <advance width="865"/>
  <unicode hex="0905"/>
  <outline>
    <contour>
      <point x="626" y="0" type="line"/>
      <point x="790" y="0" type="line"/>
      <point x="790" y="600" type="line"/>
      <point x="885" y="600" type="line"/>
      <point x="885" y="740" type="line"/>
      <point x="626" y="740" type="line"/>
      <point x="626" y="396" type="line"/>
      <point x="411" y="396" type="line"/>
      <point x="411" y="258" type="line"/>
      <point x="626" y="258" type="line"/>
    </contour>
    <contour>
      <point x="249" y="485" type="line"/>
      <point x="249" y="341" type="line"/>
      <point x="249" y="341"/>
      <point x="267" y="341"/>
      <point x="276" y="341" type="curve" smooth="yes"/>
      <point x="343" y="341"/>
      <point x="376" y="317"/>
      <point x="376" y="269" type="curve" smooth="yes"/>
      <point x="376" y="231"/>
      <point x="354" y="202"/>
      <point x="311" y="202" type="curve" smooth="yes"/>
      <point x="269" y="202"/>
      <point x="244" y="232"/>
      <point x="244" y="271" type="curve"/>
      <point x="87" y="271" type="line"/>
      <point x="87" y="137"/>
      <point x="178" y="60"/>
      <point x="309" y="60" type="curve" smooth="yes"/>
      <point x="438" y="60"/>
      <point x="531" y="130"/>
      <point x="531" y="270" type="curve" smooth="yes"/>
      <point x="531" y="330"/>
      <point x="495" y="390"/>
      <point x="434" y="415" type="curve"/>
      <point x="434" y="418" type="line"/>
      <point x="486" y="440"/>
      <point x="522" y="493"/>
      <point x="522" y="562" type="curve" smooth="yes"/>
      <point x="522" y="675"/>
      <point x="440" y="749"/>
      <point x="313" y="749" type="curve" smooth="yes"/>
      <point x="185" y="749"/>
      <point x="93" y="667"/>
      <point x="93" y="547" type="curve"/>
      <point x="250" y="547" type="line"/>
      <point x="252" y="581"/>
      <point x="270" y="607"/>
      <point x="309" y="607" type="curve" smooth="yes"/>
      <point x="350" y="607"/>
      <point x="363" y="577"/>
      <point x="363" y="548" type="curve" smooth="yes"/>
      <point x="363" y="505"/>
      <point x="329" y="485"/>
      <point x="280" y="485" type="curve" smooth="yes"/>
    </contour>
  </outline>
</glyph>
<glyph name="dvUU" format="1">
  <advance width="848"/>
  <unicode hex="090A"/>
  <outline>
    <contour>
      <point x="497" y="703" type="line"/>
      <point x="341" y="703" type="line"/>
      <point x="341" y="582" type="line" smooth="yes"/>
      <point x="341" y="496"/>
      <point x="327" y="456"/>
      <point x="253" y="456" type="curve" smooth="yes"/>
      <point x="216" y="456" type="line"/>
      <point x="216" y="313" type="line"/>
      <point x="216" y="313"/>
      <point x="253" y="313"/>
      <point x="263" y="313" type="curve" smooth="yes"/>
      <point x="328" y="313"/>
      <point x="369" y="290"/>
      <point x="369" y="232" type="curve" smooth="yes"/>
      <point x="369" y="184"/>
      <point x="339" y="153"/>
      <point x="291" y="153" type="curve" smooth="yes"/>
      <point x="235" y="153"/>
      <point x="199" y="195"/>
      <point x="199" y="253" type="curve"/>
      <point x="45" y="253" type="line"/>
      <point x="45" y="102"/>
      <point x="143" y="9"/>
      <point x="289" y="9" type="curve" smooth="yes"/>
      <point x="428" y="9"/>
      <point x="522" y="94"/>
      <point x="522" y="229" type="curve" smooth="yes"/>
      <point x="522" y="305"/>
      <point x="471" y="357"/>
      <point x="412" y="382" type="curve"/>
      <point x="412" y="388" type="line"/>
      <point x="478" y="417"/>
      <point x="497" y="481"/>
      <point x="497" y="584" type="curve" smooth="yes"/>
    </contour>
    <contour>
      <point x="867" y="600" type="line"/>
      <point x="867" y="740" type="line"/>
      <point x="-20" y="740" type="line"/>
      <point x="-20" y="600" type="line"/>
    </contour>
    <contour>
      <point x="408" y="382" type="line"/>
      <point x="436" y="248" type="line"/>
      <point x="569" y="248" type="line"/>
      <point x="581" y="248" type="line"/>
      <point x="620" y="248"/>
      <point x="655" y="235"/>
      <point x="655" y="193" type="curve" smooth="yes"/>
      <point x="655" y="153"/>
      <point x="623" y="137"/>
      <point x="559" y="142" type="curve"/>
      <point x="559" y="17" type="line"/>
      <point x="722" y="1"/>
      <point x="815" y="65"/>
      <point x="815" y="196" type="curve"/>
      <point x="815" y="325"/>
      <point x="725" y="382"/>
      <point x="582" y="382" type="curve"/>
      <point x="568" y="382" type="line"/>
    </contour>
  </outline>
</glyph>
<glyph name="dvvL" format="1">
  <advance width="911"/>
  <unicode hex="090C"/>
  <outline>
    <contour>
      <point x="824" y="-79" type="curve" smooth="yes"/>
      <point x="849" y="-79"/>
      <point x="876" y="-77"/>
      <point x="903" y="-72" type="curve"/>
      <point x="903" y="57" type="line"/>
      <point x="883" y="52"/>
      <point x="862" y="50"/>
      <point x="843" y="50" type="curve" smooth="yes"/>
      <point x="792" y="50"/>
      <point x="751" y="70"/>
      <point x="751" y="115" type="curve"/>
      <point x="751" y="158"/>
      <point x="776" y="184"/>
      <point x="850" y="184" type="curve" smooth="yes"/>
      <point x="854" y="184"/>
      <point x="858" y="184"/>
      <point x="862" y="184" type="curve"/>
      <point x="870" y="211"/>
      <point x="873" y="238"/>
      <point x="873" y="269" type="curve" smooth="yes"/>
      <point x="873" y="414"/>
      <point x="795" y="493"/>
      <point x="691" y="511" type="curve"/>
      <point x="691" y="600" type="line"/>
      <point x="931" y="600" type="line"/>
      <point x="931" y="740" type="line"/>
      <point x="-20" y="740" type="line"/>
      <point x="-20" y="600" type="line"/>
      <point x="533" y="600" type="line"/>
      <point x="533" y="487" type="line"/>
      <point x="504" y="470"/>
      <point x="483" y="445"/>
      <point x="469" y="415" type="curve"/>
      <point x="438" y="477"/>
      <point x="378" y="515"/>
      <point x="290" y="515" type="curve" smooth="yes"/>
      <point x="164" y="515"/>
      <point x="63" y="435"/>
      <point x="63" y="269" type="curve" smooth="yes"/>
      <point x="63" y="101"/>
      <point x="176" y="-1"/>
      <point x="370" y="13" type="curve"/>
      <point x="370" y="155" type="line"/>
      <point x="287" y="150"/>
      <point x="228" y="178"/>
      <point x="228" y="270" type="curve" smooth="yes"/>
      <point x="228" y="330"/>
      <point x="254" y="371"/>
      <point x="312" y="371" type="curve" smooth="yes"/>
      <point x="399" y="371"/>
      <point x="400" y="280"/>
      <point x="392" y="206" type="curve"/>
      <point x="542" y="206" type="line"/>
      <point x="533" y="280"/>
      <point x="535" y="371"/>
      <point x="627" y="371" type="curve"/>
      <point x="689" y="371"/>
      <point x="711" y="324"/>
      <point x="711" y="266" type="curve"/>
      <point x="644" y="244"/>
      <point x="596" y="187"/>
      <point x="596" y="108" type="curve" smooth="yes"/>
      <point x="596" y="-16"/>
      <point x="692" y="-79"/>
    </contour>
  </outline>
</glyph>
<glyph name="dvKHA" format="1">
  <advance width="958"/>
  <unicode hex="0916"/>
  <outline>
    <contour>
      <point x="237" y="297" type="line"/>
      <point x="382" y="317"/>
      <point x="408" y="391"/>
      <point x="408" y="592" type="curve" smooth="yes"/>
      <point x="408" y="610" type="line"/>
      <point x="243" y="610" type="line"/>
      <point x="243" y="591" type="line" smooth="yes"/>
      <point x="243" y="441"/>
      <point x="219" y="410"/>
      <point x="95" y="407" type="curve" smooth="yes"/>
      <point x="87" y="407"/>
      <point x="79" y="407"/>
      <point x="71" y="407" type="curve"/>
      <point x="71" y="276" type="line" smooth="yes"/>
      <point x="71" y="96"/>
      <point x="180" y="-4"/>
      <point x="353" y="-4" type="curve" smooth="yes"/>
      <point x="515" y="-4"/>
      <point x="632" y="89"/>
      <point x="623" y="242" type="curve"/>
      <point x="471" y="242" type="line"/>
      <point x="469" y="177"/>
      <point x="433" y="136"/>
      <point x="351" y="136" type="curve" smooth="yes"/>
      <point x="269" y="136"/>
      <point x="237" y="187"/>
      <point x="237" y="258" type="curve" smooth="yes"/>
    </contour>
    <contour>
      <point x="648" y="403" type="curve" smooth="yes"/>
      <point x="697" y="403"/>
      <point x="725" y="373"/>
      <point x="725" y="322" type="curve"/>
      <point x="751" y="343" type="line"/>
      <point x="774" y="454"/>
      <point x="711" y="529"/>
      <point x="605" y="529" type="curve" smooth="yes"/>
      <point x="494" y="529"/>
      <point x="419" y="440"/>
      <point x="419" y="323" type="curve" smooth="yes"/>
      <point x="419" y="207"/>
      <point x="492" y="116"/>
      <point x="605" y="116" type="curve" smooth="yes"/>
      <point x="711" y="116"/>
      <point x="774" y="192"/>
      <point x="751" y="303" type="curve"/>
      <point x="725" y="324" type="line"/>
      <point x="725" y="273"/>
      <point x="694" y="243"/>
      <point x="648" y="243" type="curve" smooth="yes"/>
      <point x="598" y="243"/>
      <point x="566" y="272"/>
      <point x="566" y="323" type="curve" smooth="yes"/>
      <point x="566" y="373"/>
      <point x="598" y="403"/>
    </contour>
    <contour>
      <point x="726" y="0" type="line"/>
      <point x="883" y="0" type="line"/>
      <point x="883" y="600" type="line"/>
      <point x="978" y="600" type="line"/>
      <point x="978" y="740" type="line"/>
      <point x="-20" y="740" type="line"/>
      <point x="-20" y="600" type="line"/>
      <point x="726" y="600" type="line"/>
    </contour>
  </outline>
</glyph>
<glyph name="dvCHA" format="1">
  <advance width="830"/>
  <unicode hex="091B"/>
  <outline>
    <contour>
      <point x="529" y="-12" type="move" name="blwm.virama"/>
    </contour>
    <contour>
      <point x="676" y="740" type="move" name="abvm.e"/>
    </contour>
    <contour>
      <point x="529" y="-91" type="move" name="blwm.u"/>
    </contour>
    <contour>
      <point x="850" y="600" type="line"/>
      <point x="850" y="740" type="line"/>
      <point x="-20" y="740" type="line"/>
      <point x="-20" y="600" type="line"/>
    </contour>
    <contour>
      <point x="676" y="600" type="line"/>
      <point x="521" y="600" type="line"/>
      <point x="518" y="441" type="line"/>
      <point x="676" y="441" type="line"/>
    </contour>
    <contour>
      <point x="583" y="422" type="curve" smooth="yes"/>
      <point x="623" y="422"/>
      <point x="639" y="382"/>
      <point x="639" y="334" type="curve" smooth="yes"/>
      <point x="639" y="218"/>
      <point x="557" y="167"/>
      <point x="409" y="167" type="curve" smooth="yes"/>
      <point x="320" y="167"/>
      <point x="242" y="196"/>
      <point x="242" y="258" type="curve" smooth="yes"/>
      <point x="242" y="306"/>
      <point x="280" y="332"/>
      <point x="323" y="332" type="curve"/>
      <point x="344" y="332" type="line"/>
      <point x="344" y="464" type="line"/>
      <point x="330" y="464" type="line" smooth="yes"/>
      <point x="258" y="464"/>
      <point x="247" y="505"/>
      <point x="247" y="590" type="curve" smooth="yes"/>
      <point x="247" y="618" type="line"/>
      <point x="82" y="618" type="line"/>
      <point x="82" y="591" type="line" smooth="yes"/>
      <point x="82" y="493"/>
      <point x="101" y="432"/>
      <point x="170" y="400" type="curve"/>
      <point x="170" y="394" type="line"/>
      <point x="112" y="366"/>
      <point x="75" y="312"/>
      <point x="75" y="238" type="curve" smooth="yes"/>
      <point x="75" y="94"/>
      <point x="242" y="30"/>
      <point x="413" y="30" type="curve" smooth="yes"/>
      <point x="665" y="30"/>
      <point x="778" y="151"/>
      <point x="778" y="332" type="curve" smooth="yes"/>
      <point x="778" y="463"/>
      <point x="714" y="543"/>
      <point x="578" y="543" type="curve"/>
      <point x="448" y="543"/>
      <point x="371" y="495"/>
      <point x="387" y="262" type="curve"/>
      <point x="524" y="262" type="line"/>
      <point x="519" y="376"/>
      <point x="531" y="422"/>
    </contour>
  </outline>
</glyph>
<glyph name="dvJA" format="1">
  <advance width="857"/>
  <unicode hex="091C"/>
  <outline>
    <contour>
      <point x="211" y="357" type="curve" smooth="yes"/>
      <point x="211" y="497" type="line"/>
      <point x="47" y="497" type="line"/>
      <point x="47" y="330" type="line" smooth="yes"/>
      <point x="47" y="204"/>
      <point x="112" y="96"/>
      <point x="287" y="96" type="curve" smooth="yes"/>
      <point x="442" y="96"/>
      <point x="513" y="178"/>
      <point x="513" y="330" type="curve" smooth="yes"/>
      <point x="513" y="497" type="line"/>
      <point x="352" y="497" type="line"/>
      <point x="352" y="357" type="line" smooth="yes"/>
      <point x="352" y="283"/>
      <point x="345" y="236"/>
      <point x="285" y="236" type="curve" smooth="yes"/>
      <point x="225" y="236"/>
      <point x="211" y="283"/>
    </contour>
    <contour>
      <point x="618" y="366" type="line"/>
      <point x="618" y="0" type="line"/>
      <point x="782" y="0" type="line"/>
      <point x="782" y="600" type="line"/>
      <point x="877" y="600" type="line"/>
      <point x="877" y="740" type="line"/>
      <point x="-20" y="740" type="line"/>
      <point x="-20" y="600" type="line"/>
      <point x="618" y="600" type="line"/>
      <point x="618" y="497" type="line"/>
      <point x="366" y="497" type="line"/>
      <point x="366" y="366" type="line"/>
    </contour>
  </outline>
</glyph>
<glyph name="dvTTHA" format="1">
  <advance width="671"/>
  <unicode hex="0920"/>
  <outline>
    <contour>
      <point x="427" y="-3" type="move" name="blwm.virama"/>
    </contour>
    <contour>
      <point x="419" y="740" type="move" name="abvm.e"/>
    </contour>
    <contour>
      <point x="447" y="-88" type="move" name="blwm.u"/>
    </contour>
    <contour>
      <point x="419" y="534" type="curve"/>
      <point x="419" y="600" type="line"/>
      <point x="691" y="600" type="line"/>
      <point x="691" y="740" type="line"/>
      <point x="-20" y="740" type="line"/>
      <point x="-20" y="600" type="line"/>
      <point x="255" y="600" type="line"/>
      <point x="255" y="534" type="line"/>
      <point x="136" y="506"/>
      <point x="53" y="417"/>
      <point x="53" y="286" type="curve" smooth="yes"/>
      <point x="53" y="126"/>
      <point x="176" y="29"/>
      <point x="337" y="29" type="curve" smooth="yes"/>
      <point x="498" y="29"/>
      <point x="621" y="126"/>
      <point x="621" y="286" type="curve" smooth="yes"/>
      <point x="621" y="417"/>
      <point x="538" y="506"/>
    </contour>
    <contour>
      <point x="337" y="406" type="curve" smooth="yes"/>
      <point x="412" y="406"/>
      <point x="459" y="357"/>
      <point x="459" y="286" type="curve" smooth="yes"/>
      <point x="459" y="215"/>
      <point x="412" y="166"/>
      <point x="337" y="166" type="curve" smooth="yes"/>
      <point x="262" y="166"/>
      <point x="215" y="215"/>
      <point x="215" y="286" type="curve" smooth="yes"/>
      <point x="215" y="357"/>
      <point x="262" y="406"/>
    </contour>
  </outline>
</glyph>
<glyph name="dvDDHA" format="1">
  <advance width="644"/>
  <unicode hex="0922"/>
  <outline>
    <contour>
      <point x="455" y="-46" type="move" name="blwm.virama"/>
    </contour>
    <contour>
      <point x="494" y="740" type="move" name="abvm.e"/>
    </contour>
    <contour>
      <point x="455" y="-124" type="move" name="blwm.u"/>
    </contour>
    <contour>
      <point x="330" y="410" type="line"/>
      <point x="494" y="410" type="line"/>
      <point x="494" y="600" type="line"/>
      <point x="664" y="600" type="line"/>
      <point x="664" y="740" type="line"/>
      <point x="-20" y="740" type="line"/>
      <point x="-20" y="600" type="line"/>
      <point x="330" y="600" type="line"/>
    </contour>
    <contour>
      <point x="262" y="195" type="curve"/>
      <point x="398" y="195" type="line"/>
      <point x="398" y="217"/>
      <point x="406" y="243"/>
      <point x="440" y="243" type="curve" smooth="yes"/>
      <point x="471" y="243"/>
      <point x="483" y="221"/>
      <point x="483" y="195" type="curve" smooth="yes"/>
      <point x="483" y="152"/>
      <point x="441" y="128"/>
      <point x="376" y="128" type="curve" smooth="yes"/>
      <point x="261" y="128"/>
      <point x="209" y="181"/>
      <point x="209" y="260" type="curve" smooth="yes"/>
      <point x="209" y="360"/>
      <point x="284" y="409"/>
      <point x="388" y="410" type="curve"/>
      <point x="384" y="546" type="line"/>
      <point x="191" y="548"/>
      <point x="48" y="458"/>
      <point x="48" y="265" type="curve" smooth="yes"/>
      <point x="48" y="84"/>
      <point x="189" y="-10"/>
      <point x="370" y="-10" type="curve" smooth="yes"/>
      <point x="512" y="-10"/>
      <point x="632" y="58"/>
      <point x="632" y="200" type="curve" smooth="yes"/>
      <point x="632" y="303"/>
      <point x="547" y="367"/>
      <point x="440" y="367" type="curve" smooth="yes"/>
      <point x="318" y="367"/>
      <point x="259" y="305"/>
    </contour>
  </outline>
</glyph>
<glyph name="dvNNA" format="1">
  <advance width="899"/>
  <unicode hex="0923"/>
  <outline>
    <contour>
      <point x="537" y="367" type="curve" smooth="yes"/>
      <point x="537" y="675" type="line"/>
      <point x="375" y="675" type="line"/>
      <point x="375" y="360" type="line" smooth="yes"/>
      <point x="375" y="312"/>
      <point x="358" y="276"/>
      <point x="310" y="276" type="curve"/>
      <point x="263" y="276"/>
      <point x="245" y="312"/>
      <point x="245" y="360" type="curve" smooth="yes"/>
      <point x="245" y="675" type="line"/>
      <point x="83" y="675" type="line"/>
      <point x="83" y="367" type="line" smooth="yes"/>
      <point x="83" y="229"/>
      <point x="151" y="136"/>
      <point x="310" y="136" type="curve"/>
      <point x="469" y="136"/>
      <point x="537" y="229"/>
    </contour>
    <contour>
      <point x="919" y="600" type="line"/>
      <point x="919" y="740" type="line"/>
      <point x="-20" y="740" type="line"/>
      <point x="-20" y="600" type="line"/>
      <point x="660" y="600" type="line"/>
      <point x="660" y="0" type="line"/>
      <point x="824" y="0" type="line"/>
      <point x="824" y="600" type="line"/>
    </contour>
  </outline>
</glyph>
<glyph name="dvDA" format="1">
  <advance width="613"/>
  <unicode hex="0926"/>
  <outline>
    <contour>
      <point x="551" y="-47" type="move" name="blwm.virama"/>
    </contour>
    <contour>
      <point x="521" y="740" type="move" name="abvm.e"/>
    </contour>
    <contour>
      <point x="551" y="-28" type="move" name="blwm.u"/>
    </contour>
    <contour>
      <point x="551" y="-28" type="line"/>
      <point x="551" y="264" type="line"/>
      <point x="402" y="264" type="line"/>
      <point x="402" y="220"/>
      <point x="371" y="192"/>
      <point x="320" y="192" type="curve"/>
      <point x="260" y="192"/>
      <point x="222" y="223"/>
      <point x="222" y="284" type="curve" smooth="yes"/>
      <point x="222" y="350"/>
      <point x="273" y="387"/>
      <point x="344" y="387" type="curve" smooth="yes"/>
      <point x="521" y="387" type="line"/>
      <point x="521" y="600" type="line"/>
      <point x="633" y="600" type="line"/>
      <point x="633" y="740" type="line"/>
      <point x="-20" y="740" type="line"/>
      <point x="-20" y="600" type="line"/>
      <point x="357" y="600" type="line"/>
      <point x="357" y="532" type="line"/>
      <point x="334" y="532" type="line" smooth="yes"/>
      <point x="177" y="532"/>
      <point x="58" y="454"/>
      <point x="58" y="291" type="curve" smooth="yes"/>
      <point x="58" y="126"/>
      <point x="166" y="55"/>
      <point x="284" y="55" type="curve" smooth="yes"/>
      <point x="334" y="55"/>
      <point x="369" y="69"/>
      <point x="388" y="88" type="curve"/>
      <point x="388" y="-28" type="line"/>
    </contour>
  </outline>
</glyph>
<glyph name="dvPA" format="1">
  <advance width="693"/>
  <unicode hex="092A"/>
  <outline>
    <contour>
      <point x="453" y="0" type="line"/>
      <point x="618" y="0" type="line"/>
      <point x="618" y="600" type="line"/>
      <point x="713" y="600" type="line"/>
      <point x="713" y="740" type="line"/>
      <point x="-20" y="740" type="line"/>
      <point x="-20" y="600" type="line"/>
      <point x="80" y="600" type="line"/>
      <point x="80" y="426" type="line" smooth="yes"/>
      <point x="80" y="280"/>
      <point x="158" y="166"/>
      <point x="306" y="166" type="curve" smooth="yes"/>
      <point x="437" y="166"/>
      <point x="487" y="251"/>
      <point x="493" y="342" type="curve"/>
      <point x="453" y="423" type="line"/>
      <point x="453" y="348"/>
      <point x="416" y="305"/>
      <point x="351" y="305" type="curve" smooth="yes"/>
      <point x="272" y="305"/>
      <point x="245" y="352"/>
      <point x="245" y="422" type="curve" smooth="yes"/>
      <point x="245" y="600" type="line"/>
      <point x="453" y="600" type="line"/>
    </contour>
  </outline>
</glyph>
<glyph name="dvPHA" format="1">
  <advance width="972"/>
  <unicode hex="092B"/>
  <outline>
    <contour>
      <point x="595" y="0" type="move" name="blwm.virama"/>
    </contour>
    <contour>
      <point x="595" y="740" type="move" name="abvm.e"/>
    </contour>
    <contour>
      <point x="595" y="0" type="move" name="blwm.u"/>
    </contour>
    <contour>
      <point x="430" y="0" type="line"/>
      <point x="595" y="0" type="line"/>
      <point x="595" y="600" type="line"/>
      <point x="992" y="600" type="line"/>
      <point x="992" y="740" type="line"/>
      <point x="-20" y="740" type="line"/>
      <point x="-20" y="600" type="line"/>
      <point x="77" y="600" type="line"/>
      <point x="77" y="450" type="line" smooth="yes"/>
      <point x="77" y="304"/>
      <point x="145" y="186"/>
      <point x="293" y="186" type="curve" smooth="yes"/>
      <point x="424" y="186"/>
      <point x="466" y="276"/>
      <point x="471" y="374" type="curve"/>
      <point x="430" y="453" type="line"/>
      <point x="430" y="375"/>
      <point x="405" y="325"/>
      <point x="338" y="325" type="curve" smooth="yes"/>
      <point x="259" y="325"/>
      <point x="242" y="376"/>
      <point x="242" y="446" type="curve" smooth="yes"/>
      <point x="242" y="600" type="line"/>
      <point x="430" y="600" type="line"/>
    </contour>
    <contour>
      <point x="673" y="79" type="line"/>
      <point x="835" y="59"/>
      <point x="938" y="150"/>
      <point x="938" y="307" type="curve" smooth="yes"/>
      <point x="938" y="432"/>
      <point x="861" y="531"/>
      <point x="730" y="531" type="curve" smooth="yes"/>
      <point x="597" y="531"/>
      <point x="538" y="430"/>
      <point x="562" y="309" type="curve"/>
      <point x="595" y="287" type="line"/>
      <point x="595" y="345"/>
      <point x="631" y="390"/>
      <point x="690" y="390" type="curve" smooth="yes"/>
      <point x="747" y="390"/>
      <point x="781" y="354"/>
      <point x="781" y="302" type="curve" smooth="yes"/>
      <point x="781" y="237"/>
      <point x="742" y="210"/>
      <point x="672" y="213" type="curve"/>
    </contour>
  </outline>
</glyph>
<glyph name="dvBA" format="1">
  <advance width="667"/>
  <unicode hex="092C"/>
  <outline>
    <contour>
      <point x="279" y="54" type="curve" smooth="yes"/>
      <point x="345" y="54"/>
      <point x="401" y="75"/>
      <point x="435" y="115" type="curve"/>
      <point x="435" y="0" type="line"/>
      <point x="592" y="0" type="line"/>
      <point x="592" y="600" type="line"/>
      <point x="687" y="600" type="line"/>
      <point x="687" y="740" type="line"/>
      <point x="-20" y="740" type="line"/>
      <point x="-20" y="600" type="line"/>
      <point x="435" y="600" type="line"/>
      <point x="435" y="490" type="line"/>
      <point x="401" y="530"/>
      <point x="345" y="552"/>
      <point x="279" y="552" type="curve" smooth="yes"/>
      <point x="138" y="552"/>
      <point x="35" y="449"/>
      <point x="35" y="303" type="curve" smooth="yes"/>
      <point x="35" y="157"/>
      <point x="138" y="54"/>
    </contour>
    <contour>
      <point x="177" y="303" type="curve" smooth="yes"/>
      <point x="177" y="379"/>
      <point x="236" y="431"/>
      <point x="312" y="431" type="curve" smooth="yes"/>
      <point x="388" y="431"/>
      <point x="444" y="379"/>
      <point x="444" y="303" type="curve"/>
      <point x="444" y="227"/>
      <point x="388" y="175"/>
      <point x="312" y="175" type="curve" smooth="yes"/>
      <point x="236" y="175"/>
      <point x="177" y="223"/>
    </contour>
    <contour>
      <point x="414" y="183" type="line"/>
      <point x="500" y="234" type="line"/>
      <point x="164" y="459" type="line"/>
      <point x="104" y="390" type="line"/>
    </contour>
  </outline>
</glyph>
<glyph name="dvLA" format="1">
  <advance width="911"/>
  <unicode hex="0932"/>
  <outline>
    <contour>
      <point x="715" y="-29" type="move" name="blwm.virama"/>
    </contour>
    <contour>
      <point x="691" y="740" type="move" name="abvm.e"/>
    </contour>
    <contour>
      <point x="704" y="-102" type="move" name="blwm.u"/>
    </contour>
    <contour>
      <point x="542" y="206" type="line"/>
      <point x="533" y="280"/>
      <point x="537" y="371"/>
      <point x="624" y="371" type="curve" smooth="yes"/>
      <point x="681" y="371"/>
      <point x="708" y="330"/>
      <point x="708" y="270" type="curve" smooth="yes"/>
      <point x="708" y="178"/>
      <point x="649" y="150"/>
      <point x="566" y="155" type="curve"/>
      <point x="566" y="13" type="line"/>
      <point x="760" y="-1"/>
      <point x="873" y="101"/>
      <point x="873" y="269" type="curve" smooth="yes"/>
      <point x="873" y="414"/>
      <point x="795" y="493"/>
      <point x="691" y="511" type="curve"/>
      <point x="691" y="600" type="line"/>
      <point x="931" y="600" type="line"/>
      <point x="931" y="740" type="line"/>
      <point x="-20" y="740" type="line"/>
      <point x="-20" y="600" type="line"/>
      <point x="533" y="600" type="line"/>
      <point x="533" y="487" type="line"/>
      <point x="504" y="470"/>
      <point x="483" y="445"/>
      <point x="469" y="415" type="curve"/>
      <point x="438" y="477"/>
      <point x="378" y="515"/>
      <point x="290" y="515" type="curve" smooth="yes"/>
      <point x="164" y="515"/>
      <point x="63" y="435"/>
      <point x="63" y="269" type="curve" smooth="yes"/>
      <point x="63" y="101"/>
      <point x="176" y="-1"/>
      <point x="370" y="13" type="curve"/>
      <point x="370" y="155" type="line"/>
      <point x="287" y="150"/>
      <point x="228" y="178"/>
      <point x="228" y="270" type="curve" smooth="yes"/>
      <point x="228" y="330"/>
      <point x="254" y="371"/>
      <point x="312" y="371" type="curve" smooth="yes"/>
      <point x="399" y="371"/>
      <point x="400" y="280"/>
      <point x="392" y="206" type="curve"/>
    </contour>
  </outline>
</glyph>
<glyph name="dvLLA" format="1">
  <advance width="927"/>
  <unicode hex="0933"/>
  <outline>
    <contour>
      <point x="759" y="-11" type="move" name="blwm.virama"/>
    </contour>
    <contour>
      <point x="730" y="740" type="move" name="abvm.e"/>
    </contour>
    <contour>
      <point x="759" y="-82" type="move" name="blwm.u"/>
    </contour>
    <contour>
      <point x="572" y="392" type="line"/>
      <point x="730" y="407" type="line"/>
      <point x="730" y="600" type="line"/>
      <point x="947" y="600" type="line"/>
      <point x="947" y="740" type="line"/>
      <point x="-20" y="740" type="line"/>
      <point x="-20" y="600" type="line"/>
      <point x="572" y="600" type="line"/>
    </contour>
    <contour>
      <point x="476" y="388" type="curve"/>
      <point x="437" y="472"/>
      <point x="351" y="498"/>
      <point x="282" y="498" type="curve" smooth="yes"/>
      <point x="149" y="498"/>
      <point x="48" y="407"/>
      <point x="48" y="264" type="curve" smooth="yes"/>
      <point x="48" y="121"/>
      <point x="149" y="30"/>
      <point x="282" y="30" type="curve" smooth="yes"/>
      <point x="350" y="30"/>
      <point x="443" y="59"/>
      <point x="475" y="139" type="curve"/>
      <point x="512" y="64"/>
      <point x="592" y="30"/>
      <point x="670" y="30" type="curve" smooth="yes"/>
      <point x="803" y="30"/>
      <point x="903" y="122"/>
      <point x="903" y="264" type="curve" smooth="yes"/>
      <point x="903" y="407"/>
      <point x="803" y="498"/>
      <point x="670" y="498" type="curve" smooth="yes"/>
      <point x="601" y="498"/>
      <point x="519" y="478"/>
    </contour>
    <contour>
      <point x="650" y="358" type="curve" smooth="yes"/>
      <point x="706" y="358"/>
      <point x="744" y="320"/>
      <point x="744" y="264" type="curve" smooth="yes"/>
      <point x="744" y="208"/>
      <point x="706" y="170"/>
      <point x="650" y="170" type="curve" smooth="yes"/>
      <point x="594" y="170"/>
      <point x="556" y="207"/>
      <point x="556" y="264" type="curve" smooth="yes"/>
      <point x="556" y="318"/>
      <point x="593" y="358"/>
    </contour>
    <contour>
      <point x="302" y="170" type="curve" smooth="yes"/>
      <point x="246" y="170"/>
      <point x="208" y="207"/>
      <point x="208" y="264" type="curve" smooth="yes"/>
      <point x="208" y="320"/>
      <point x="245" y="358"/>
      <point x="302" y="358" type="curve" smooth="yes"/>
      <point x="358" y="358"/>
      <point x="395" y="319"/>
      <point x="396" y="264" type="curve" smooth="yes"/>
      <point x="396" y="208"/>
      <point x="358" y="170"/>
    </contour>
  </outline>
</glyph>
<glyph name="dvSSA" format="1">
  <advance width="701"/>
  <unicode hex="0937"/>
  <outline>
    <contour>
      <point x="461" y="0" type="line"/>
      <point x="626" y="0" type="line"/>
      <point x="626" y="600" type="line"/>
      <point x="721" y="600" type="line"/>
      <point x="721" y="740" type="line"/>
      <point x="-20" y="740" type="line"/>
      <point x="-20" y="600" type="line"/>
      <point x="78" y="600" type="line"/>
      <point x="78" y="390" type="line" smooth="yes"/>
      <point x="78" y="244"/>
      <point x="163" y="146"/>
      <point x="303" y="146" type="curve" smooth="yes"/>
      <point x="446" y="146"/>
      <point x="491" y="227"/>
      <point x="492" y="316" type="curve"/>
      <point x="461" y="403" type="line"/>
      <point x="456" y="325"/>
      <point x="421" y="285"/>
      <point x="357" y="285" type="curve" smooth="yes"/>
      <point x="278" y="285"/>
      <point x="243" y="334"/>
      <point x="243" y="404" type="curve" smooth="yes"/>
      <point x="243" y="600" type="line"/>
      <point x="461" y="600" type="line"/>
    </contour>
    <contour>
      <point x="472" y="328" type="line"/>
      <point x="563" y="385" type="line"/>
      <point x="227" y="610" type="line"/>
      <point x="162" y="535" type="line"/>
    </contour>
  </outline>
</glyph>
<glyph name="dvHA" format="1">
  <advance width="618"/>
  <unicode hex="0939"/>
  <outline>
    <contour>
      <point x="384" y="-117" type="move" name="blwm.virama"/>
    </contour>
    <contour>
      <point x="487" y="740" type="move" name="abvm.e"/>
    </contour>
    <contour>
      <point x="436" y="-199" type="move" name="blwm.u"/>
    </contour>
    <contour>
      <point x="322" y="338" type="line"/>
      <point x="279" y="338"/>
      <point x="254" y="352"/>
      <point x="254" y="380" type="curve" smooth="yes"/>
      <point x="254" y="414"/>
      <point x="284" y="420"/>
      <point x="323" y="420" type="curve" smooth="yes"/>
      <point x="487" y="420" type="line"/>
      <point x="487" y="518" type="line"/>
      <point x="341" y="551" type="line"/>
      <point x="289" y="551" type="line" smooth="yes"/>
      <point x="161" y="551"/>
      <point x="92" y="494"/>
      <point x="92" y="400" type="curve" smooth="yes"/>
      <point x="92" y="303"/>
      <point x="183" y="245"/>
      <point x="322" y="245" type="curve"/>
    </contour>
    <contour>
      <point x="321" y="215" type="curve" smooth="yes"/>
      <point x="364" y="215"/>
      <point x="396" y="193"/>
      <point x="396" y="159" type="curve"/>
      <point x="556" y="159" type="line"/>
      <point x="556" y="282"/>
      <point x="452" y="350"/>
      <point x="321" y="350" type="curve" smooth="yes"/>
      <point x="164" y="350"/>
      <point x="72" y="267"/>
      <point x="72" y="132" type="curve"/>
      <point x="72" y="-6"/>
      <point x="164" y="-91"/>
      <point x="321" y="-91" type="curve" smooth="yes"/>
      <point x="452" y="-91"/>
      <point x="556" y="-23"/>
      <point x="556" y="100" type="curve"/>
      <point x="396" y="100" type="line"/>
      <point x="396" y="65"/>
      <point x="364" y="44"/>
      <point x="321" y="44" type="curve" smooth="yes"/>
      <point x="272" y="44"/>
      <point x="235" y="74"/>
      <point x="235" y="131" type="curve"/>
      <point x="235" y="189"/>
      <point x="274" y="215"/>
    </contour>
    <contour>
      <point x="322" y="516" type="line"/>
      <point x="487" y="516" type="line"/>
      <point x="487" y="600" type="line"/>
      <point x="638" y="600" type="line"/>
      <point x="638" y="740" type="line"/>
      <point x="-20" y="740" type="line"/>
      <point x="-20" y="600" type="line"/>
      <point x="322" y="600" type="line"/>
    </contour>
  </outline>
</glyph>
<glyph name="dvNukta" format="1">
  <advance width="0"/>
  <unicode hex="093C"/>
  <outline>
    <contour>
      <point x="-277" y="-272" type="curve" smooth="yes"/>
      <point x="-224" y="-272"/>
      <point x="-182" y="-230"/>
      <point x="-182" y="-178" type="curve" smooth="yes"/>
      <point x="-182" y="-125"/>
      <point x="-224" y="-83"/>
      <point x="-277" y="-83" type="curve" smooth="yes"/>
      <point x="-329" y="-83"/>
      <point x="-371" y="-125"/>
      <point x="-371" y="-178" type="curve" smooth="yes"/>
      <point x="-371" y="-230"/>
      <point x="-329" y="-272"/>
    </contour>
  </outline>
</glyph>
<glyph name="dvmE" format="1">
  <advance width="0"/>
  <unicode hex="0947"/>
  <outline>
    <contour>
      <point x="-75" y="740" type="move" name="_abvm.e"/>
    </contour>
    <contour>
      <point x="-82" y="734" type="line"/>
      <point x="-217" y="969"/>
      <point x="-272" y="993"/>
      <point x="-436" y="994" type="curve" smooth="yes"/>
      <point x="-483" y="994" type="line"/>
      <point x="-483" y="868" type="line"/>
      <point x="-431" y="868" type="line" smooth="yes"/>
      <point x="-324" y="868"/>
      <point x="-305" y="851"/>
      <point x="-227" y="734" type="curve"/>
    </contour>
  </outline>
</glyph>
<glyph name="dvKxA" format="1">
  <advance width="987"/>
  <unicode hex="0958"/>
  <outline>
    <contour>
      <point x="590" y="-26" type="move" name="blwm.virama"/>
    </contour>
    <contour>
      <point x="590" y="740" type="move" name="abvm.e"/>
    </contour>
    <contour>
      <point x="636" y="-137" type="move" name="blwm.u"/>
    </contour>
    <component base="dvKA"/>
    <component base="dvNukta" xOffset="528" yOffset="115"/>
  </outline>
</glyph>
<glyph name="dvPHxA" format="1">
  <advance width="972"/>
  <unicode hex="095E"/>
  <outline>
    <contour>
      <point x="595" y="-38" type="move" name="blwm.virama"/>
    </contour>
    <contour>
      <point x="595" y="740" type="move" name="abvm.e"/>
    </contour>
    <contour>
      <point x="654" y="-107" type="move" name="blwm.u"/>
    </contour>
    <component base="dvPHA"/>
    <component base="dvNukta" xOffset="526" yOffset="155"/>
  </outline>
</glyph>
<glyph name="dvvRR" format="1">
  <advance width="1040"/>
  <unicode hex="0960"/>
  <outline>
    <contour>
      <point x="467" y="0" type="line"/>
      <point x="631" y="0" type="line"/>
      <point x="631" y="600" type="line"/>
      <point x="1060" y="600" type="line"/>
      <point x="1060" y="740" type="line"/>
      <point x="-20" y="740" type="line"/>
      <point x="-20" y="600" type="line"/>
      <point x="467" y="600" type="line"/>
    </contour>
    <contour>
      <point x="226" y="254" type="line"/>
      <point x="226" y="331"/>
      <point x="266" y="390"/>
      <point x="341" y="390" type="curve" smooth="yes"/>
      <point x="423" y="390"/>
      <point x="467" y="342"/>
      <point x="467" y="263" type="curve"/>
      <point x="544" y="217" type="line"/>
      <point x="548" y="383"/>
      <point x="489" y="528"/>
      <point x="312" y="528" type="curve" smooth="yes"/>
      <point x="153" y="528"/>
      <point x="63" y="414"/>
      <point x="63" y="254" type="curve"/>
    </contour>
    <contour>
      <point x="89" y="7" type="curve"/>
      <point x="89" y="0" type="line"/>
      <point x="304" y="0" type="line"/>
      <point x="533" y="243" type="line"/>
      <point x="454" y="339" type="line"/>
      <point x="454" y="339"/>
      <point x="138" y="53"/>
    </contour>
    <contour>
      <point x="822" y="533" type="line"/>
      <point x="822" y="184" type="line"/>
      <point x="964" y="184" type="line"/>
      <point x="964" y="533" type="line"/>
    </contour>
    <contour>
      <point x="774" y="334" type="line"/>
      <point x="918" y="334"/>
      <point x="964" y="372"/>
      <point x="964" y="513" type="curve" smooth="yes"/>
      <point x="964" y="547" type="line"/>
      <point x="822" y="547" type="line"/>
      <point x="822" y="513" type="line" smooth="yes"/>
      <point x="822" y="478"/>
      <point x="811" y="468"/>
      <point x="774" y="468" type="curve" smooth="yes"/>
      <point x="590" y="468" type="line"/>
      <point x="590" y="334" type="line"/>
    </contour>
    <contour>
      <point x="1028" y="-119" type="line"/>
      <point x="1012" y="-123"/>
      <point x="975" y="-131"/>
      <point x="939" y="-131" type="curve" smooth="yes"/>
      <point x="897" y="-131"/>
      <point x="857" y="-120"/>
      <point x="857" y="-81" type="curve" smooth="yes"/>
      <point x="857" y="-36"/>
      <point x="897" y="-28"/>
      <point x="946" y="-28" type="curve" smooth="yes"/>
      <point x="986" y="-28" type="line"/>
      <point x="986" y="94" type="line"/>
      <point x="986" y="94"/>
      <point x="983" y="94"/>
      <point x="946" y="94" type="curve" smooth="yes"/>
      <point x="908" y="94"/>
      <point x="857" y="95"/>
      <point x="857" y="138" type="curve" smooth="yes"/>
      <point x="857" y="178"/>
      <point x="895" y="183"/>
      <point x="935" y="184" type="curve" smooth="yes"/>
      <point x="935" y="184"/>
      <point x="940" y="184"/>
      <point x="946" y="184" type="curve"/>
      <point x="943" y="276" type="line"/>
      <point x="917" y="276" type="line" smooth="yes"/>
      <point x="827" y="276"/>
      <point x="702" y="251"/>
      <point x="702" y="140" type="curve" smooth="yes"/>
      <point x="702" y="83"/>
      <point x="746" y="43"/>
      <point x="798" y="29" type="curve"/>
      <point x="745" y="11"/>
      <point x="702" y="-35"/>
      <point x="702" y="-97" type="curve" smooth="yes"/>
      <point x="702" y="-212"/>
      <point x="814" y="-251"/>
      <point x="926" y="-251" type="curve" smooth="yes"/>
      <point x="960" y="-251"/>
      <point x="999" y="-248"/>
      <point x="1028" y="-240" type="curve"/>
    </contour>
  </outline>
</glyph>
<glyph name="danda" format="1">
  <advance width="334"/>
  <unicode hex="0964"/>
  <outline>
    <contour>
      <point x="140" y="740" type="line"/>
      <point x="140" y="0" type="line"/>
      <point x="304" y="0" type="line"/>
      <point x="304" y="740" type="line"/>
    </contour>
  </outline>
</glyph>
<glyph name="zerowidthnonjoiner" format="1">
  <advance width="0"/>
  <unicode hex="200C"/>
  <outline>
    <contour>
      <point x="24" y="-230" type="line"/>
      <point x="24" y="811" type="line"/>
      <point x="-23" y="811" type="line"/>
      <point x="-23" y="-230" type="line"/>
    </contour>
  </outline>
</glyph>
<glyph name="zerowidthjoiner" format="1">
  <advance width="0"/>
  <unicode hex="200D"/>
  <outline>
    <contour>
      <point x="129" y="593" type="line"/>
      <point x="33" y="688" type="line"/>
      <point x="129" y="784" type="line"/>
      <point x="97" y="816" type="line"/>
      <point x="1" y="721" type="line"/>
      <point x="-94" y="816" type="line"/>
      <point x="-127" y="783" type="line"/>
      <point x="-32" y="688" type="line"/>
      <point x="-125" y="595" type="line"/>
      <point x="-92" y="562" type="line"/>
      <point x="-23" y="635" type="line"/>
      <point x="-23" y="-230" type="line"/>
      <point x="24" y="-230" type="line"/>
      <point x="24" y="635" type="line"/>
      <point x="96" y="560" type="line"/>
    </contour>
  </outline>
</glyph>
<glyph name="endash" format="1">
  <advance width="695"/>
  <unicode hex="2013"/>
  <outline>
    <contour>
      <point x="70" y="280" type="line"/>
      <point x="625" y="280" type="line"/>
      <point x="625" y="422" type="line"/>
      <point x="70" y="422" type="line"/>
    </contour>
  </outline>
</glyph>
<glyph name="emdash" format="1">
  <advance width="930"/>
  <unicode hex="2014"/>
  <outline>
    <contour>
      <point x="70" y="280" type="line"/>
      <point x="860" y="280" type="line"/>
      <point x="860" y="422" type="line"/>
      <point x="70" y="422" type="line"/>
    </contour>
  </outline>
</glyph>
<glyph name="bullet" format="1">
  <advance width="501"/>
  <unicode hex="2022"/>
  <outline>
    <contour>
      <point x="250" y="183" type="curve" smooth="yes"/>
      <point x="335" y="183"/>
      <point x="401" y="249"/>
      <point x="401" y="333" type="curve" smooth="yes"/>
      <point x="401" y="418"/>
      <point x="335" y="484"/>
      <point x="250" y="484" type="curve" smooth="yes"/>
      <point x="166" y="484"/>
      <point x="100" y="418"/>
      <point x="100" y="333" type="curve" smooth="yes"/>
      <point x="100" y="249"/>
      <point x="166" y="183"/>
    </contour>
  </outline>
</glyph>
<glyph name="guilsinglleft" format="1">
  <advance width="337"/>
  <unicode hex="2039"/>
  <outline>
    <contour>
      <point x="200" y="295" type="line"/>
      <point x="287" y="470" type="line"/>
      <point x="129" y="470" type="line"/>
      <point x="45" y="295" type="line"/>
      <point x="129" y="120" type="line"/>
      <point x="287" y="120" type="line"/>
    </contour>
  </outline>
</glyph>
<glyph name="guilsinglright" format="1">
  <advance width="337"/>
  <unicode hex="203A"/>
  <outline>
    <contour>
      <point x="208" y="120" type="line"/>
      <point x="292" y="295" type="line"/>
      <point x="208" y="470" type="line"/>
      <point x="50" y="470" type="line"/>
      <point x="137" y="295" type="line"/>
      <point x="50" y="120" type="line"/>
    </contour>
  </outline>
</glyph>
<glyph name="fraction" format="1">
  <advance width="570"/>
  <unicode hex="2044"/>
  <outline>
    <contour>
      <point x="10" y="0" type="line"/>
      <point x="175" y="0" type="line"/>
      <point x="560" y="704" type="line"/>
      <point x="395" y="704" type="line"/>
    </contour>
  </outline>
</glyph>
<glyph name="Euro" format="1">
  <advance width="811"/>
  <unicode hex="20AC"/>
  <outline>
    <contour>
      <point x="441" y="381" type="line"/>
      <point x="441" y="487" type="line"/>
      <point x="20" y="487" type="line"/>
      <point x="20" y="381" type="line"/>
    </contour>
    <contour>
      <point x="441" y="220" type="line"/>
      <point x="441" y="325" type="line"/>
      <point x="20" y="325" type="line"/>
      <point x="20" y="220" type="line"/>
    </contour>
    <contour>
      <point x="81" y="353" type="curve" smooth="yes"/>
      <point x="81" y="142"/>
      <point x="242" y="-6"/>
      <point x="441" y="-6" type="curve" smooth="yes"/>
      <point x="594" y="-6"/>
      <point x="727" y="78"/>
      <point x="776" y="228" type="curve"/>
      <point x="572" y="228" type="line"/>
      <point x="543" y="172"/>
      <point x="501" y="151"/>
      <point x="441" y="151" type="curve" smooth="yes"/>
      <point x="328" y="151"/>
      <point x="255" y="231"/>
      <point x="255" y="353" type="curve" smooth="yes"/>
      <point x="255" y="476"/>
      <point x="328" y="555"/>
      <point x="441" y="555" type="curve" smooth="yes"/>
      <point x="501" y="555"/>
      <point x="543" y="534"/>
      <point x="572" y="478" type="curve"/>
      <point x="776" y="478" type="line"/>
      <point x="727" y="628"/>
      <point x="594" y="712"/>
      <point x="441" y="712" type="curve" smooth="yes"/>
      <point x="242" y="712"/>
      <point x="81" y="564"/>
    </contour>
  </outline>
</glyph>
<glyph name="ruble" format="1">
  <advance width="678"/>
  <unicode hex="20BD"/>
  <outline>
    <contour>
      <point x="20" y="273" type="line"/>
      <point x="392" y="273" type="line" smooth="yes"/>
      <point x="598" y="273"/>
      <point x="650" y="406"/>
      <point x="650" y="487" type="curve" smooth="yes"/>
      <point x="650" y="598"/>
      <point x="564" y="702"/>
      <point x="392" y="702" type="curve" smooth="yes"/>
      <point x="115" y="702" type="line"/>
      <point x="115" y="0" type="line"/>
      <point x="286" y="0" type="line"/>
      <point x="286" y="572" type="line"/>
      <point x="392" y="572" type="line" smooth="yes"/>
      <point x="444" y="572"/>
      <point x="476" y="536"/>
      <point x="476" y="487" type="curve" smooth="yes"/>
      <point x="476" y="437"/>
      <point x="444" y="403"/>
      <point x="392" y="403" type="curve" smooth="yes"/>
      <point x="20" y="403" type="line"/>
    </contour>
    <contour>
      <point x="20" y="82" type="line"/>
      <point x="440" y="82" type="line"/>
      <point x="440" y="212" type="line"/>
      <point x="20" y="212" type="line"/>
    </contour>
  </outline>
</glyph>
<glyph name="trademark" format="1">
  <advance width="880"/>
  <unicode hex="2122"/>
  <outline>
    <contour>
      <point x="30" y="605" type="line"/>
      <point x="107" y="605" type="line"/>
      <point x="103" y="353" type="line"/>
      <point x="232" y="353" type="line"/>
      <point x="230" y="605" type="line"/>
      <point x="307" y="605" type="line"/>
      <point x="307" y="704" type="line"/>
      <point x="30" y="704" type="line"/>
    </contour>
    <contour>
      <point x="358" y="353" type="line"/>
      <point x="467" y="353" type="line"/>
      <point x="467" y="664" type="line"/>
      <point x="437" y="678" type="line"/>
      <point x="549" y="353" type="line"/>
      <point x="632" y="353" type="line"/>
      <point x="750" y="678" type="line"/>
      <point x="713" y="664" type="line"/>
      <point x="717" y="353" type="line"/>
      <point x="830" y="353" type="line"/>
      <point x="830" y="704" type="line"/>
      <point x="661" y="704" type="line"/>
      <point x="563" y="416" type="line"/>
      <point x="627" y="418" type="line"/>
      <point x="540" y="704" type="line"/>
      <point x="358" y="704" type="line"/>
    </contour>
  </outline>
</glyph>
<glyph name="partialdiff" format="1">
  <advance width="618"/>
  <unicode hex="2202"/>
  <outline>
    <contour>
      <point x="399" y="319" type="curve" smooth="yes"/>
      <point x="399" y="222"/>
      <point x="361" y="139"/>
      <point x="286" y="139" type="curve" smooth="yes"/>
      <point x="245" y="139"/>
      <point x="209" y="172"/>
      <point x="209" y="249" type="curve" smooth="yes"/>
      <point x="209" y="346"/>
      <point x="253" y="418"/>
      <point x="328" y="418" type="curve" smooth="yes"/>
      <point x="369" y="418"/>
      <point x="399" y="386"/>
    </contour>
    <contour>
      <point x="35" y="250" type="curve" smooth="yes"/>
      <point x="35" y="74"/>
      <point x="142" y="-7"/>
      <point x="269" y="-7" type="curve" smooth="yes"/>
      <point x="435" y="-7"/>
      <point x="583" y="148"/>
      <point x="583" y="405" type="curve" smooth="yes"/>
      <point x="583" y="580"/>
      <point x="480" y="740"/>
      <point x="308" y="740" type="curve" smooth="yes"/>
      <point x="276" y="740"/>
      <point x="241" y="735"/>
      <point x="205" y="723" type="curve"/>
      <point x="205" y="636" type="line"/>
      <point x="235" y="644"/>
      <point x="260" y="648"/>
      <point x="282" y="648" type="curve" smooth="yes"/>
      <point x="356" y="648"/>
      <point x="390" y="605"/>
      <point x="402" y="547" type="curve"/>
      <point x="370" y="560"/>
      <point x="347" y="564"/>
      <point x="309" y="564" type="curve" smooth="yes"/>
      <point x="169" y="564"/>
      <point x="35" y="436"/>
    </contour>
  </outline>
</glyph>
<glyph name="Delta.math" format="1">
  <advance width="735"/>
  <unicode hex="2206"/>
  <outline>
    <contour>
      <point x="20" y="130" type="line"/>
      <point x="20" y="0" type="line"/>
      <point x="715" y="0" type="line"/>
      <point x="715" y="130" type="line"/>
      <point x="437" y="704" type="line"/>
      <point x="298" y="704" type="line"/>
    </contour>
    <contour>
      <point x="539" y="130" type="line"/>
      <point x="196" y="130" type="line"/>
      <point x="368" y="510" type="line"/>
    </contour>
  </outline>
</glyph>
<glyph name="product" format="1">
  <advance width="747"/>
  <unicode hex="220F"/>
  <outline>
    <contour>
      <point x="20" y="574" type="line"/>
      <point x="90" y="574" type="line"/>
      <point x="90" y="0" type="line"/>
      <point x="261" y="0" type="line"/>
      <point x="261" y="574" type="line"/>
      <point x="486" y="574" type="line"/>
      <point x="486" y="0" type="line"/>
      <point x="657" y="0" type="line"/>
      <point x="657" y="574" type="line"/>
      <point x="727" y="574" type="line"/>
      <point x="727" y="704" type="line"/>
      <point x="20" y="704" type="line"/>
    </contour>
  </outline>
</glyph>
<glyph name="minus" format="1">
  <advance width="580"/>
  <unicode hex="2212"/>
  <outline>
    <contour>
      <point x="70" y="280" type="line"/>
      <point x="510" y="280" type="line"/>
      <point x="510" y="422" type="line"/>
      <point x="70" y="422" type="line"/>
    </contour>
  </outline>
</glyph>
<glyph name="radical" format="1">
  <advance width="930"/>
  <unicode hex="221A"/>
  <outline>
    <contour>
      <point x="378" y="139" type="line"/>
      <point x="404" y="121" type="line"/>
      <point x="252" y="393" type="line"/>
      <point x="20" y="256" type="line"/>
      <point x="68" y="176" type="line"/>
      <point x="150" y="224" type="line"/>
      <point x="299" y="-41" type="line"/>
      <point x="382" y="-41" type="line"/>
      <point x="910" y="904" type="line"/>
      <point x="806" y="904" type="line"/>
    </contour>
  </outline>
</glyph>
<glyph name="infinity" format="1">
  <advance width="777"/>
  <unicode hex="221E"/>
  <outline>
    <contour>
      <point x="30" y="347" type="curve" smooth="yes"/>
      <point x="30" y="238"/>
      <point x="101" y="176"/>
      <point x="209" y="175" type="curve" smooth="yes"/>
      <point x="319" y="174"/>
      <point x="400" y="255"/>
      <point x="422" y="348" type="curve"/>
      <point x="337" y="379" type="line"/>
      <point x="315" y="322"/>
      <point x="267" y="289"/>
      <point x="222" y="289" type="curve" smooth="yes"/>
      <point x="189" y="289"/>
      <point x="165" y="309"/>
      <point x="165" y="347" type="curve" smooth="yes"/>
      <point x="165" y="385"/>
      <point x="189" y="406"/>
      <point x="222" y="406" type="curve" smooth="yes"/>
      <point x="317" y="406"/>
      <point x="365" y="175"/>
      <point x="569" y="175" type="curve" smooth="yes"/>
      <point x="666" y="175"/>
      <point x="747" y="239"/>
      <point x="747" y="348" type="curve" smooth="yes"/>
      <point x="747" y="457"/>
      <point x="676" y="519"/>
      <point x="568" y="520" type="curve" smooth="yes"/>
      <point x="458" y="521"/>
      <point x="377" y="440"/>
      <point x="355" y="347" type="curve"/>
      <point x="440" y="316" type="line"/>
      <point x="462" y="373"/>
      <point x="510" y="406"/>
      <point x="555" y="406" type="curve" smooth="yes"/>
      <point x="588" y="406"/>
      <point x="612" y="386"/>
      <point x="612" y="348" type="curve" smooth="yes"/>
      <point x="612" y="310"/>
      <point x="588" y="289"/>
      <point x="555" y="289" type="curve" smooth="yes"/>
      <point x="430" y="289"/>
      <point x="413" y="520"/>
      <point x="208" y="520" type="curve" smooth="yes"/>
      <point x="111" y="520"/>
      <point x="30" y="456"/>
    </contour>
  </outline>
</glyph>
<glyph name="notequal" format="1">
  <advance width="730"/>
  <unicode hex="2260"/>
  <outline>
    <contour>
      <point x="110" y="65" type="line"/>
      <point x="206" y="65" type="line"/>
      <point x="670" y="634" type="line"/>
      <point x="574" y="634" type="line"/>
    </contour>
    <component base="equal"/>
  </outline>
</glyph>
<glyph name="lessequal" format="1">
  <advance width="548"/>
  <unicode hex="2264"/>
  <outline>
    <contour>
      <point x="282" y="389" type="line"/>
      <point x="282" y="383" type="line"/>
      <point x="483" y="571" type="line"/>
      <point x="269" y="571" type="line"/>
      <point x="65" y="386" type="line"/>
      <point x="269" y="201" type="line"/>
      <point x="483" y="201" type="line"/>
    </contour>
    <contour>
      <point x="79" y="0" type="line"/>
      <point x="477" y="0" type="line"/>
      <point x="477" y="131" type="line"/>
      <point x="79" y="131" type="line"/>
    </contour>
  </outline>
</glyph>
<glyph name="greaterequal" format="1">
  <advance width="548"/>
  <unicode hex="2265"/>
  <outline>
    <contour>
      <point x="279" y="201" type="line"/>
      <point x="483" y="386" type="line"/>
      <point x="279" y="571" type="line"/>
      <point x="65" y="571" type="line"/>
      <point x="266" y="383" type="line"/>
      <point x="266" y="389" type="line"/>
      <point x="65" y="201" type="line"/>
    </contour>
    <contour>
      <point x="71" y="131" type="line"/>
      <point x="71" y="0" type="line"/>
      <point x="469" y="0" type="line"/>
      <point x="469" y="131" type="line"/>
    </contour>
  </outline>
</glyph>
<glyph name="lozenge" format="1">
  <advance width="565"/>
  <unicode hex="25CA"/>
  <outline>
    <contour>
      <point x="20" y="353" type="line"/>
      <point x="283" y="90" type="line"/>
      <point x="545" y="353" type="line"/>
      <point x="283" y="615" type="line"/>
    </contour>
    <contour>
      <point x="380" y="353" type="line"/>
      <point x="283" y="255" type="line"/>
      <point x="185" y="353" type="line"/>
      <point x="283" y="450" type="line"/>
    </contour>
  </outline>
</glyph>
<glyph name="commaaccent.alt" format="1">
  <advance width="171"/>
  <outline>
    <contour>
      <point x="78" y="10" type="move" name="_commaaccent"/>
    </contour>
    <contour>
      <point x="10" y="-40" type="line"/>
      <point x="10" y="-163" type="line"/>
      <point x="73" y="-163" type="line"/>
      <point x="73" y="-179" type="line" smooth="yes"/>
      <point x="73" y="-224"/>
      <point x="55" y="-245"/>
      <point x="21" y="-245" type="curve"/>
      <point x="21" y="-310" type="line"/>
      <point x="116" y="-310"/>
      <point x="161" y="-248"/>
      <point x="161" y="-158" type="curve" smooth="yes"/>
      <point x="161" y="-122"/>
      <point x="155" y="-82"/>
      <point x="141" y="-40" type="curve"/>
    </contour>
  </outline>
</glyph>
<glyph name="dvAbbreviationsign" format="1">
  <advance width="486"/>
  <outline>
    <contour>
      <point x="253" y="409" type="curve" smooth="yes"/>
      <point x="160" y="409"/>
      <point x="94" y="343"/>
      <point x="94" y="258" type="curve" smooth="yes"/>
      <point x="94" y="166"/>
      <point x="159" y="97"/>
      <point x="258" y="97" type="curve" smooth="yes"/>
      <point x="349" y="97"/>
      <point x="415" y="162"/>
      <point x="415" y="248" type="curve" smooth="yes"/>
      <point x="415" y="343"/>
      <point x="356" y="409"/>
    </contour>
    <contour>
      <point x="254" y="319" type="curve" smooth="yes"/>
      <point x="298" y="319"/>
      <point x="322" y="291"/>
      <point x="322" y="251" type="curve" smooth="yes"/>
      <point x="322" y="214"/>
      <point x="295" y="187"/>
      <point x="257" y="187" type="curve" smooth="yes"/>
      <point x="215" y="187"/>
      <point x="186" y="214"/>
      <point x="186" y="255" type="curve" smooth="yes"/>
      <point x="186" y="291"/>
      <point x="215" y="319"/>
    </contour>
  </outline>
</glyph>
<glyph name="dvBH" format="1">
  <advance width="577"/>
  <outline>
    <contour>
      <point x="355" y="286" type="line"/>
      <point x="355" y="233"/>
      <point x="340" y="196"/>
      <point x="290" y="196" type="curve" smooth="yes"/>
      <point x="250" y="196"/>
      <point x="220" y="220"/>
      <point x="220" y="261" type="curve" smooth="yes"/>
      <point x="220" y="312"/>
      <point x="262" y="332"/>
      <point x="313" y="332" type="curve" smooth="yes"/>
      <point x="785" y="332" type="line"/>
      <point x="785" y="466" type="line"/>
      <point x="311" y="466" type="line" smooth="yes"/>
      <point x="170" y="466"/>
      <point x="68" y="407"/>
      <point x="68" y="266" type="curve" smooth="yes"/>
      <point x="68" y="139"/>
      <point x="168" y="58"/>
      <point x="294" y="58" type="curve" smooth="yes"/>
      <point x="439" y="58"/>
      <point x="509" y="148"/>
      <point x="509" y="292" type="curve" smooth="yes"/>
      <point x="509" y="509" type="line" smooth="yes"/>
      <point x="509" y="654"/>
      <point x="458" y="750"/>
      <point x="307" y="750" type="curve" smooth="yes"/>
      <point x="149" y="750"/>
      <point x="99" y="652"/>
      <point x="101" y="512" type="curve"/>
      <point x="265" y="512" type="line"/>
      <point x="265" y="557"/>
      <point x="265" y="608"/>
      <point x="310" y="608" type="curve" smooth="yes"/>
      <point x="355" y="608"/>
      <point x="355" y="557"/>
      <point x="355" y="512" type="curve"/>
    </contour>
  </outline>
</glyph>
<glyph name="dvBH_LA" format="1">
  <advance width="1434"/>
  <outline>
    <contour>
      <point x="1240" y="-26" type="move" name="blwm.virama"/>
    </contour>
    <contour>
      <point x="1214" y="740" type="move" name="abvm.e"/>
    </contour>
    <contour>
      <point x="1233" y="-104" type="move" name="blwm.u"/>
    </contour>
    <contour>
      <point x="355" y="286" type="line"/>
      <point x="355" y="233"/>
      <point x="340" y="196"/>
      <point x="290" y="196" type="curve" smooth="yes"/>
      <point x="250" y="196"/>
      <point x="220" y="220"/>
      <point x="220" y="261" type="curve" smooth="yes"/>
      <point x="220" y="312"/>
      <point x="262" y="332"/>
      <point x="313" y="332" type="curve" smooth="yes"/>
      <point x="694" y="332" type="line"/>
      <point x="694" y="466" type="line"/>
      <point x="311" y="466" type="line" smooth="yes"/>
      <point x="170" y="466"/>
      <point x="68" y="407"/>
      <point x="68" y="266" type="curve" smooth="yes"/>
      <point x="68" y="139"/>
      <point x="168" y="58"/>
      <point x="294" y="58" type="curve" smooth="yes"/>
      <point x="439" y="58"/>
      <point x="509" y="148"/>
      <point x="509" y="292" type="curve" smooth="yes"/>
      <point x="509" y="509" type="line" smooth="yes"/>
      <point x="509" y="654"/>
      <point x="458" y="750"/>
      <point x="307" y="750" type="curve" smooth="yes"/>
      <point x="149" y="750"/>
      <point x="99" y="652"/>
      <point x="101" y="512" type="curve"/>
      <point x="265" y="512" type="line"/>
      <point x="265" y="557"/>
      <point x="265" y="608"/>
      <point x="310" y="608" type="curve" smooth="yes"/>
      <point x="355" y="608"/>
      <point x="355" y="557"/>
      <point x="355" y="512" type="curve"/>
    </contour>
    <contour>
      <point x="1065" y="206" type="line"/>
      <point x="1056" y="280"/>
      <point x="1060" y="371"/>
      <point x="1147" y="371" type="curve" smooth="yes"/>
      <point x="1204" y="371"/>
      <point x="1231" y="330"/>
      <point x="1231" y="270" type="curve" smooth="yes"/>
      <point x="1231" y="178"/>
      <point x="1172" y="150"/>
      <point x="1089" y="155" type="curve"/>
      <point x="1089" y="13" type="line"/>
      <point x="1283" y="-1"/>
      <point x="1396" y="101"/>
      <point x="1396" y="269" type="curve" smooth="yes"/>
      <point x="1396" y="414"/>
      <point x="1318" y="493"/>
      <point x="1214" y="511" type="curve"/>
      <point x="1214" y="600" type="line"/>
      <point x="1454" y="600" type="line"/>
      <point x="1454" y="740" type="line"/>
      <point x="576" y="740" type="line"/>
      <point x="576" y="600" type="line"/>
      <point x="1056" y="600" type="line"/>
      <point x="1056" y="487" type="line"/>
      <point x="1027" y="470"/>
      <point x="1006" y="445"/>
      <point x="992" y="415" type="curve"/>
      <point x="961" y="477"/>
      <point x="901" y="515"/>
      <point x="813" y="515" type="curve" smooth="yes"/>
      <point x="687" y="515"/>
      <point x="586" y="435"/>
      <point x="586" y="269" type="curve" smooth="yes"/>
      <point x="586" y="101"/>
      <point x="699" y="-1"/>
      <point x="893" y="13" type="curve"/>
      <point x="893" y="155" type="line"/>
      <point x="810" y="150"/>
      <point x="751" y="178"/>
      <point x="751" y="270" type="curve" smooth="yes"/>
      <point x="751" y="330"/>
      <point x="777" y="371"/>
      <point x="835" y="371" type="curve" smooth="yes"/>
      <point x="922" y="371"/>
      <point x="923" y="280"/>
      <point x="915" y="206" type="curve"/>
    </contour>
  </outline>
</glyph>
<glyph name="dvBH_YA" format="1">
  <advance width="1269"/>
  <outline>
    <contour>
      <point x="727" y="611" type="line"/>
      <point x="727" y="569" type="line"/>
      <point x="727" y="466"/>
      <point x="726" y="466"/>
      <point x="580" y="466" type="curve"/>
      <point x="549" y="226"/>
      <point x="651" y="78"/>
      <point x="853" y="78" type="curve" smooth="yes"/>
      <point x="1004" y="78"/>
      <point x="1072" y="172"/>
      <point x="1072" y="305" type="curve"/>
      <point x="1030" y="381" type="line"/>
      <point x="1030" y="281"/>
      <point x="980" y="218"/>
      <point x="884" y="218" type="curve" smooth="yes"/>
      <point x="788" y="218"/>
      <point x="740" y="270"/>
      <point x="744" y="351" type="curve"/>
      <point x="859" y="364"/>
      <point x="888" y="419"/>
      <point x="888" y="562" type="curve"/>
      <point x="888" y="611" type="line"/>
    </contour>
    <contour>
      <point x="1030" y="600" type="line"/>
      <point x="1030" y="0" type="line"/>
      <point x="1194" y="0" type="line"/>
      <point x="1194" y="600" type="line"/>
      <point x="1289" y="600" type="line"/>
      <point x="1289" y="740" type="line"/>
      <point x="558" y="740" type="line"/>
      <point x="558" y="600" type="line"/>
    </contour>
    <contour>
      <point x="355" y="286" type="line"/>
      <point x="355" y="233"/>
      <point x="340" y="196"/>
      <point x="290" y="196" type="curve" smooth="yes"/>
      <point x="250" y="196"/>
      <point x="220" y="220"/>
      <point x="220" y="261" type="curve" smooth="yes"/>
      <point x="220" y="312"/>
      <point x="262" y="332"/>
      <point x="313" y="332" type="curve" smooth="yes"/>
      <point x="689" y="332" type="line"/>
      <point x="785" y="466" type="line"/>
      <point x="311" y="466" type="line" smooth="yes"/>
      <point x="170" y="466"/>
      <point x="68" y="407"/>
      <point x="68" y="266" type="curve" smooth="yes"/>
      <point x="68" y="139"/>
      <point x="168" y="58"/>
      <point x="294" y="58" type="curve" smooth="yes"/>
      <point x="439" y="58"/>
      <point x="509" y="148"/>
      <point x="509" y="292" type="curve" smooth="yes"/>
      <point x="509" y="509" type="line" smooth="yes"/>
      <point x="509" y="654"/>
      <point x="458" y="750"/>
      <point x="307" y="750" type="curve" smooth="yes"/>
      <point x="149" y="750"/>
      <point x="99" y="652"/>
      <point x="101" y="512" type="curve"/>
      <point x="265" y="512" type="line"/>
      <point x="265" y="557"/>
      <point x="265" y="608"/>
      <point x="310" y="608" type="curve" smooth="yes"/>
      <point x="355" y="608"/>
      <point x="355" y="557"/>
      <point x="355" y="512" type="curve"/>
    </contour>
  </outline>
</glyph>
<glyph name="dvB_BH_RA" format="1">
  <advance width="1257"/>
  <outline>
    <contour>
      <point x="592" y="600" type="line"/>
      <point x="657" y="740" type="line"/>
      <point x="-20" y="740" type="line"/>
      <point x="-20" y="600" type="line"/>
    </contour>
    <contour>
      <point x="35" y="298" type="curve" smooth="yes"/>
      <point x="35" y="140"/>
      <point x="151" y="47"/>
      <point x="308" y="47" type="curve" smooth="yes"/>
      <point x="459" y="47"/>
      <point x="569" y="135"/>
      <point x="569" y="298" type="curve" smooth="yes"/>
      <point x="569" y="455"/>
      <point x="452" y="547"/>
      <point x="309" y="547" type="curve" smooth="yes"/>
      <point x="154" y="547"/>
      <point x="35" y="457"/>
    </contour>
    <contour>
      <point x="177" y="298" type="curve" smooth="yes"/>
      <point x="177" y="374"/>
      <point x="236" y="426"/>
      <point x="312" y="426" type="curve" smooth="yes"/>
      <point x="388" y="426"/>
      <point x="447" y="374"/>
      <point x="447" y="298" type="curve" smooth="yes"/>
      <point x="447" y="218"/>
      <point x="388" y="170"/>
      <point x="312" y="170" type="curve" smooth="yes"/>
      <point x="236" y="170"/>
      <point x="177" y="218"/>
    </contour>
    <contour>
      <point x="414" y="178" type="line"/>
      <point x="500" y="229" type="line"/>
      <point x="164" y="454" type="line"/>
      <point x="104" y="385" type="line"/>
    </contour>
    <contour>
      <point x="1018" y="0" type="line"/>
      <point x="1182" y="0" type="line"/>
      <point x="1182" y="723" type="line"/>
      <point x="1018" y="723" type="line"/>
    </contour>
    <contour>
      <point x="1277" y="600" type="line"/>
      <point x="1277" y="740" type="line"/>
      <point x="1018" y="740" type="line"/>
      <point x="1018" y="600" type="line"/>
    </contour>
    <contour>
      <point x="644" y="540" type="line"/>
      <point x="646" y="576"/>
      <point x="653" y="608"/>
      <point x="689" y="608" type="curve" smooth="yes"/>
      <point x="734" y="608"/>
      <point x="734" y="557"/>
      <point x="734" y="512" type="curve"/>
      <point x="734" y="299" type="line" smooth="yes"/>
      <point x="734" y="246"/>
      <point x="719" y="209"/>
      <point x="669" y="209" type="curve" smooth="yes"/>
      <point x="629" y="209"/>
      <point x="599" y="233"/>
      <point x="599" y="274" type="curve" smooth="yes"/>
      <point x="599" y="325"/>
      <point x="641" y="345"/>
      <point x="692" y="345" type="curve" smooth="yes"/>
      <point x="1164" y="345" type="line"/>
      <point x="1164" y="479" type="line"/>
      <point x="690" y="479" type="line" smooth="yes"/>
      <point x="549" y="479"/>
      <point x="447" y="420"/>
      <point x="447" y="279" type="curve" smooth="yes"/>
      <point x="447" y="152"/>
      <point x="547" y="71"/>
      <point x="673" y="71" type="curve" smooth="yes"/>
      <point x="818" y="71"/>
      <point x="888" y="161"/>
      <point x="888" y="305" type="curve" smooth="yes"/>
      <point x="888" y="509" type="line"/>
      <point x="888" y="654"/>
      <point x="837" y="750"/>
      <point x="686" y="750" type="curve" smooth="yes"/>
      <point x="539" y="750"/>
      <point x="485" y="665"/>
      <point x="480" y="540" type="curve"/>
    </contour>
    <contour>
      <point x="726" y="-61" type="curve"/>
      <point x="904" y="-61" type="line"/>
      <point x="1109" y="230" type="line"/>
      <point x="1026" y="295" type="line"/>
      <point x="1015" y="279"/>
      <point x="726" y="-61"/>
    </contour>
  </outline>
</glyph>
<glyph name="dvB_DA" format="1">
  <advance width="1003"/>
  <outline>
    <contour>
      <point x="939" y="-68" type="move" name="blwm.virama"/>
    </contour>
    <contour>
      <point x="911" y="740" type="move" name="abvm.e"/>
    </contour>
    <contour>
      <point x="938" y="-127" type="move" name="blwm.u"/>
    </contour>
    <contour>
      <point x="592" y="600" type="line"/>
      <point x="592" y="740" type="line"/>
      <point x="-20" y="740" type="line"/>
      <point x="-20" y="600" type="line"/>
    </contour>
    <contour>
      <point x="36" y="303" type="curve" smooth="yes"/>
      <point x="36" y="145"/>
      <point x="152" y="52"/>
      <point x="309" y="52" type="curve" smooth="yes"/>
      <point x="460" y="52"/>
      <point x="570" y="140"/>
      <point x="570" y="303" type="curve" smooth="yes"/>
      <point x="570" y="460"/>
      <point x="453" y="552"/>
      <point x="310" y="552" type="curve" smooth="yes"/>
      <point x="155" y="552"/>
      <point x="36" y="462"/>
    </contour>
    <contour>
      <point x="178" y="303" type="curve" smooth="yes"/>
      <point x="178" y="379"/>
      <point x="237" y="431"/>
      <point x="313" y="431" type="curve" smooth="yes"/>
      <point x="389" y="431"/>
      <point x="448" y="379"/>
      <point x="448" y="303" type="curve" smooth="yes"/>
      <point x="448" y="223"/>
      <point x="389" y="175"/>
      <point x="313" y="175" type="curve" smooth="yes"/>
      <point x="237" y="175"/>
      <point x="178" y="223"/>
    </contour>
    <contour>
      <point x="415" y="183" type="line"/>
      <point x="501" y="234" type="line"/>
      <point x="165" y="459" type="line"/>
      <point x="105" y="390" type="line"/>
    </contour>
    <component base="dvDA" xOffset="390"/>
  </outline>
</glyph>
<glyph name="dvB_JA" format="1">
  <advance width="1229"/>
  <outline>
    <contour>
      <point x="447" y="366" type="line"/>
      <point x="447" y="240"/>
      <point x="484" y="96"/>
      <point x="670" y="96" type="curve" smooth="yes"/>
      <point x="814" y="96"/>
      <point x="885" y="178"/>
      <point x="885" y="330" type="curve" smooth="yes"/>
      <point x="885" y="497" type="line"/>
      <point x="724" y="497" type="line"/>
      <point x="724" y="357" type="line" smooth="yes"/>
      <point x="724" y="283"/>
      <point x="717" y="236"/>
      <point x="657" y="236" type="curve" smooth="yes"/>
      <point x="613" y="236"/>
      <point x="590" y="261"/>
      <point x="589" y="303" type="curve"/>
    </contour>
    <contour>
      <point x="990" y="366" type="line"/>
      <point x="990" y="0" type="line"/>
      <point x="1154" y="0" type="line"/>
      <point x="1154" y="600" type="line"/>
      <point x="1249" y="600" type="line"/>
      <point x="1249" y="740" type="line"/>
      <point x="352" y="740" type="line"/>
      <point x="352" y="600" type="line"/>
      <point x="990" y="600" type="line"/>
      <point x="990" y="497" type="line"/>
      <point x="738" y="497" type="line"/>
      <point x="738" y="366" type="line"/>
    </contour>
    <contour>
      <point x="563" y="600" type="line"/>
      <point x="563" y="740" type="line"/>
      <point x="-20" y="740" type="line"/>
      <point x="-20" y="600" type="line"/>
    </contour>
    <contour>
      <point x="35" y="303" type="curve" smooth="yes"/>
      <point x="35" y="145"/>
      <point x="155" y="54"/>
      <point x="312" y="54" type="curve" smooth="yes"/>
      <point x="467" y="54"/>
      <point x="589" y="145"/>
      <point x="589" y="303" type="curve" smooth="yes"/>
      <point x="589" y="460"/>
      <point x="466" y="552"/>
      <point x="313" y="552" type="curve" smooth="yes"/>
      <point x="158" y="552"/>
      <point x="35" y="462"/>
    </contour>
    <contour>
      <point x="177" y="303" type="curve" smooth="yes"/>
      <point x="177" y="379"/>
      <point x="236" y="431"/>
      <point x="312" y="431" type="curve" smooth="yes"/>
      <point x="388" y="431"/>
      <point x="447" y="379"/>
      <point x="447" y="303" type="curve" smooth="yes"/>
      <point x="447" y="223"/>
      <point x="388" y="175"/>
      <point x="312" y="175" type="curve" smooth="yes"/>
      <point x="236" y="175"/>
      <point x="177" y="223"/>
    </contour>
    <contour>
      <point x="414" y="183" type="line"/>
      <point x="500" y="234" type="line"/>
      <point x="164" y="459" type="line"/>
      <point x="104" y="390" type="line"/>
    </contour>
  </outline>
</glyph>
<glyph name="dvB_LA" format="1">
  <advance width="1295"/>
  <outline>
    <contour>
      <point x="592" y="600" type="line"/>
      <point x="657" y="740" type="line"/>
      <point x="-20" y="740" type="line"/>
      <point x="-20" y="600" type="line"/>
    </contour>
    <contour>
      <point x="36" y="303" type="curve" smooth="yes"/>
      <point x="36" y="145"/>
      <point x="152" y="52"/>
      <point x="309" y="52" type="curve" smooth="yes"/>
      <point x="460" y="52"/>
      <point x="560" y="146"/>
      <point x="560" y="303" type="curve" smooth="yes"/>
      <point x="560" y="460"/>
      <point x="453" y="552"/>
      <point x="310" y="552" type="curve" smooth="yes"/>
      <point x="155" y="552"/>
      <point x="36" y="462"/>
    </contour>
    <contour>
      <point x="178" y="303" type="curve" smooth="yes"/>
      <point x="178" y="379"/>
      <point x="237" y="431"/>
      <point x="313" y="431" type="curve" smooth="yes"/>
      <point x="389" y="431"/>
      <point x="448" y="379"/>
      <point x="448" y="303" type="curve" smooth="yes"/>
      <point x="448" y="223"/>
      <point x="389" y="175"/>
      <point x="313" y="175" type="curve" smooth="yes"/>
      <point x="237" y="175"/>
      <point x="178" y="223"/>
    </contour>
    <contour>
      <point x="415" y="183" type="line"/>
      <point x="501" y="234" type="line"/>
      <point x="165" y="459" type="line"/>
      <point x="105" y="390" type="line"/>
    </contour>
    <component base="dvLA" xOffset="384"/>
  </outline>
</glyph>
<glyph name="dvB_NA" format="1">
  <advance width="1229"/>
  <outline>
    <contour>
      <point x="592" y="600" type="line"/>
      <point x="657" y="740" type="line"/>
      <point x="-20" y="740" type="line"/>
      <point x="-20" y="600" type="line"/>
    </contour>
    <contour>
      <point x="35" y="298" type="curve" smooth="yes"/>
      <point x="35" y="140"/>
      <point x="151" y="47"/>
      <point x="308" y="47" type="curve"/>
      <point x="459" y="47"/>
      <point x="569" y="135"/>
      <point x="569" y="298" type="curve" smooth="yes"/>
      <point x="569" y="455"/>
      <point x="452" y="547"/>
      <point x="309" y="547" type="curve" smooth="yes"/>
      <point x="154" y="547"/>
      <point x="35" y="457"/>
    </contour>
    <contour>
      <point x="414" y="178" type="line"/>
      <point x="500" y="229" type="line"/>
      <point x="164" y="454" type="line"/>
      <point x="104" y="385" type="line"/>
    </contour>
    <contour>
      <point x="177" y="298" type="curve" smooth="yes"/>
      <point x="177" y="374"/>
      <point x="236" y="426"/>
      <point x="312" y="426" type="curve"/>
      <point x="388" y="426"/>
      <point x="447" y="374"/>
      <point x="447" y="298" type="curve" smooth="yes"/>
      <point x="447" y="218"/>
      <point x="388" y="170"/>
      <point x="312" y="170" type="curve" smooth="yes"/>
      <point x="236" y="170"/>
      <point x="177" y="218"/>
    </contour>
    <component base="dvNA" xOffset="419"/>
  </outline>
</glyph>
<glyph name="dvB_RA" format="1">
  <advance width="667"/>
  <outline>
    <contour>
      <point x="280" y="66" type="curve" smooth="yes"/>
      <point x="346" y="66"/>
      <point x="401" y="86"/>
      <point x="435" y="126" type="curve"/>
      <point x="435" y="0" type="line"/>
      <point x="592" y="0" type="line"/>
      <point x="592" y="600" type="line"/>
      <point x="687" y="600" type="line"/>
      <point x="687" y="740" type="line"/>
      <point x="-20" y="740" type="line"/>
      <point x="-20" y="600" type="line"/>
      <point x="435" y="600" type="line"/>
      <point x="435" y="490" type="line"/>
      <point x="401" y="530"/>
      <point x="345" y="552"/>
      <point x="279" y="552" type="curve" smooth="yes"/>
      <point x="138" y="552"/>
      <point x="35" y="449"/>
      <point x="35" y="303" type="curve" smooth="yes"/>
      <point x="35" y="156"/>
      <point x="138" y="66"/>
    </contour>
    <contour>
      <point x="177" y="303" type="curve" smooth="yes"/>
      <point x="177" y="379"/>
      <point x="236" y="431"/>
      <point x="312" y="431" type="curve" smooth="yes"/>
      <point x="388" y="431"/>
      <point x="444" y="379"/>
      <point x="444" y="303" type="curve"/>
      <point x="444" y="227"/>
      <point x="388" y="175"/>
      <point x="312" y="175" type="curve" smooth="yes"/>
      <point x="236" y="175"/>
      <point x="177" y="223"/>
    </contour>
    <contour>
      <point x="414" y="183" type="line"/>
      <point x="500" y="234" type="line"/>
      <point x="164" y="459" type="line"/>
      <point x="104" y="390" type="line"/>
    </contour>
    <contour>
      <point x="147" y="-41" type="line"/>
      <point x="147" y="-46" type="line"/>
      <point x="302" y="-46" type="line"/>
      <point x="491" y="198" type="line"/>
      <point x="311" y="127" type="line"/>
    </contour>
  </outline>
</glyph>
<glyph name="dvB_SHA" format="1">
  <advance width="1255"/>
  <outline>
    <contour>
      <point x="613" y="600" type="line"/>
      <point x="685" y="740" type="line"/>
      <point x="-20" y="740" type="line"/>
      <point x="-20" y="600" type="line"/>
    </contour>
    <contour>
      <point x="654" y="600" type="line"/>
      <point x="665" y="604"/>
      <point x="677" y="607"/>
      <point x="695" y="607" type="curve" smooth="yes"/>
      <point x="744" y="607"/>
      <point x="778" y="581"/>
      <point x="778" y="525" type="curve" smooth="yes"/>
      <point x="778" y="427"/>
      <point x="677" y="420"/>
      <point x="577" y="420" type="curve" smooth="yes"/>
      <point x="470" y="420" type="line"/>
      <point x="470" y="222" type="line" smooth="yes"/>
      <point x="470" y="80"/>
      <point x="563" y="-4"/>
      <point x="708" y="-4" type="curve" smooth="yes"/>
      <point x="859" y="-4"/>
      <point x="933" y="76"/>
      <point x="932" y="229" type="curve"/>
      <point x="772" y="229" type="line"/>
      <point x="774" y="171"/>
      <point x="757" y="136"/>
      <point x="705" y="136" type="curve" smooth="yes"/>
      <point x="657" y="136"/>
      <point x="636" y="167"/>
      <point x="636" y="214" type="curve" smooth="yes"/>
      <point x="636" y="288" type="line"/>
      <point x="648" y="288"/>
      <point x="659" y="288"/>
      <point x="670" y="289" type="curve" smooth="yes"/>
      <point x="850" y="296"/>
      <point x="943" y="369"/>
      <point x="943" y="522" type="curve" smooth="yes"/>
      <point x="943" y="661"/>
      <point x="849" y="747"/>
      <point x="711" y="747" type="curve" smooth="yes"/>
      <point x="584" y="747"/>
      <point x="514" y="686"/>
      <point x="491" y="600" type="curve"/>
    </contour>
    <contour>
      <point x="1275" y="600" type="line"/>
      <point x="1275" y="740" type="line"/>
      <point x="1015" y="740" type="line"/>
      <point x="1015" y="0" type="line"/>
      <point x="1180" y="0" type="line"/>
      <point x="1180" y="600" type="line"/>
    </contour>
    <contour>
      <point x="57" y="303" type="curve" smooth="yes"/>
      <point x="57" y="145"/>
      <point x="177" y="54"/>
      <point x="334" y="54" type="curve" smooth="yes"/>
      <point x="489" y="54"/>
      <point x="602" y="145"/>
      <point x="602" y="303" type="curve" smooth="yes"/>
      <point x="602" y="460"/>
      <point x="488" y="552"/>
      <point x="335" y="552" type="curve" smooth="yes"/>
      <point x="180" y="552"/>
      <point x="57" y="462"/>
    </contour>
    <contour>
      <point x="199" y="303" type="curve" smooth="yes"/>
      <point x="199" y="379"/>
      <point x="258" y="431"/>
      <point x="334" y="431" type="curve" smooth="yes"/>
      <point x="410" y="431"/>
      <point x="469" y="379"/>
      <point x="469" y="303" type="curve" smooth="yes"/>
      <point x="469" y="223"/>
      <point x="410" y="175"/>
      <point x="334" y="175" type="curve" smooth="yes"/>
      <point x="258" y="175"/>
      <point x="199" y="223"/>
    </contour>
    <contour>
      <point x="436" y="183" type="line"/>
      <point x="522" y="234" type="line"/>
      <point x="186" y="459" type="line"/>
      <point x="126" y="390" type="line"/>
    </contour>
  </outline>
</glyph>
<glyph name="dvB_YA" format="1">
  <advance width="1138"/>
  <outline>
    <contour>
      <point x="591" y="600" type="line"/>
      <point x="656" y="740" type="line"/>
      <point x="-21" y="740" type="line"/>
      <point x="-21" y="600" type="line"/>
    </contour>
    <contour>
      <point x="35" y="303" type="curve" smooth="yes"/>
      <point x="35" y="145"/>
      <point x="151" y="52"/>
      <point x="308" y="52" type="curve" smooth="yes"/>
      <point x="459" y="52"/>
      <point x="569" y="140"/>
      <point x="569" y="303" type="curve" smooth="yes"/>
      <point x="569" y="460"/>
      <point x="452" y="552"/>
      <point x="309" y="552" type="curve" smooth="yes"/>
      <point x="154" y="552"/>
      <point x="35" y="462"/>
    </contour>
    <contour>
      <point x="177" y="303" type="curve" smooth="yes"/>
      <point x="177" y="379"/>
      <point x="236" y="431"/>
      <point x="312" y="431" type="curve" smooth="yes"/>
      <point x="388" y="431"/>
      <point x="447" y="379"/>
      <point x="447" y="303" type="curve" smooth="yes"/>
      <point x="447" y="223"/>
      <point x="388" y="175"/>
      <point x="312" y="175" type="curve" smooth="yes"/>
      <point x="236" y="175"/>
      <point x="177" y="223"/>
    </contour>
    <contour>
      <point x="414" y="183" type="line"/>
      <point x="500" y="234" type="line"/>
      <point x="164" y="459" type="line"/>
      <point x="104" y="390" type="line"/>
    </contour>
    <component base="dvYA" xOffset="380"/>
  </outline>
</glyph>
<glyph name="dvCH" format="1">
  <advance width="830"/>
  <outline>
    <contour>
      <point x="850" y="600" type="line"/>
      <point x="850" y="740" type="line"/>
      <point x="-20" y="740" type="line"/>
      <point x="-20" y="600" type="line"/>
    </contour>
    <contour>
      <point x="583" y="420" type="curve" smooth="yes"/>
      <point x="625" y="420"/>
      <point x="639" y="382"/>
      <point x="639" y="334" type="curve" smooth="yes"/>
      <point x="639" y="218"/>
      <point x="557" y="167"/>
      <point x="409" y="167" type="curve" smooth="yes"/>
      <point x="320" y="167"/>
      <point x="242" y="196"/>
      <point x="242" y="258" type="curve" smooth="yes"/>
      <point x="242" y="306"/>
      <point x="280" y="332"/>
      <point x="323" y="332" type="curve"/>
      <point x="344" y="332" type="line"/>
      <point x="344" y="464" type="line"/>
      <point x="330" y="464" type="line" smooth="yes"/>
      <point x="258" y="464"/>
      <point x="247" y="505"/>
      <point x="247" y="590" type="curve" smooth="yes"/>
      <point x="247" y="618" type="line"/>
      <point x="82" y="618" type="line"/>
      <point x="82" y="591" type="line" smooth="yes"/>
      <point x="82" y="493"/>
      <point x="101" y="432"/>
      <point x="170" y="400" type="curve"/>
      <point x="170" y="394" type="line"/>
      <point x="112" y="366"/>
      <point x="75" y="312"/>
      <point x="75" y="238" type="curve" smooth="yes"/>
      <point x="75" y="94"/>
      <point x="242" y="30"/>
      <point x="413" y="30" type="curve" smooth="yes"/>
      <point x="665" y="30"/>
      <point x="778" y="151"/>
      <point x="778" y="332" type="curve" smooth="yes"/>
      <point x="778" y="461"/>
      <point x="712" y="543"/>
      <point x="578" y="543" type="curve"/>
      <point x="452" y="543"/>
      <point x="371" y="493"/>
      <point x="387" y="262" type="curve"/>
      <point x="524" y="262" type="line"/>
      <point x="519" y="376"/>
      <point x="539" y="420"/>
    </contour>
  </outline>
</glyph>
<glyph name="dvCH_RA" format="1">
  <advance width="830"/>
  <outline>
    <contour>
      <point x="503" y="-113" type="move" name="blwm.virama"/>
    </contour>
    <contour>
      <point x="677" y="740" type="move" name="abvm.e"/>
    </contour>
    <contour>
      <point x="542" y="-184" type="move" name="blwm.u"/>
    </contour>
    <component base="dvCHA"/>
    <component base="dvRashtrasign" xOffset="757" yOffset="3"/>
  </outline>
</glyph>
<glyph name="dvC" format="1">
  <advance width="421"/>
  <outline>
    <contour>
      <point x="665" y="740" type="line"/>
      <point x="-20" y="740" type="line"/>
      <point x="-20" y="600" type="line"/>
      <point x="665" y="600" type="line"/>
    </contour>
    <contour>
      <point x="421" y="511" type="line"/>
      <point x="50" y="511" type="line"/>
      <point x="50" y="382" type="line"/>
      <point x="421" y="382" type="line"/>
    </contour>
    <contour>
      <point x="511" y="369" type="line"/>
      <point x="511" y="283"/>
      <point x="482" y="218"/>
      <point x="396" y="218" type="curve" smooth="yes"/>
      <point x="337" y="218"/>
      <point x="289" y="244"/>
      <point x="289" y="302" type="curve" smooth="yes"/>
      <point x="289" y="355"/>
      <point x="332" y="382"/>
      <point x="381" y="382" type="curve"/>
      <point x="341" y="433" type="line"/>
      <point x="227" y="438"/>
      <point x="135" y="382"/>
      <point x="135" y="278" type="curve" smooth="yes"/>
      <point x="135" y="143"/>
      <point x="261" y="82"/>
      <point x="396" y="82" type="curve" smooth="yes"/>
      <point x="588" y="82"/>
      <point x="666" y="188"/>
      <point x="666" y="369" type="curve"/>
    </contour>
  </outline>
</glyph>
<glyph name="dvC_CA" format="1">
  <advance width="1103"/>
  <outline>
    <contour>
      <point x="685" y="740" type="line"/>
      <point x="0" y="740" type="line"/>
      <point x="0" y="600" type="line"/>
      <point x="685" y="600" type="line"/>
    </contour>
    <contour>
      <point x="406" y="511" type="line"/>
      <point x="35" y="511" type="line"/>
      <point x="35" y="382" type="line"/>
      <point x="406" y="382" type="line"/>
    </contour>
    <contour>
      <point x="489" y="309" type="line"/>
      <point x="481" y="262"/>
      <point x="452" y="219"/>
      <point x="388" y="219" type="curve" smooth="yes"/>
      <point x="333" y="219"/>
      <point x="292" y="245"/>
      <point x="292" y="300" type="curve" smooth="yes"/>
      <point x="292" y="353"/>
      <point x="335" y="382"/>
      <point x="384" y="382" type="curve"/>
      <point x="340" y="444" type="line"/>
      <point x="227" y="439"/>
      <point x="140" y="376"/>
      <point x="140" y="272" type="curve" smooth="yes"/>
      <point x="140" y="142"/>
      <point x="251" y="82"/>
      <point x="371" y="82" type="curve" smooth="yes"/>
      <point x="515" y="82"/>
      <point x="584" y="181"/>
      <point x="584" y="306" type="curve"/>
    </contour>
    <contour>
      <point x="771" y="511" type="line"/>
      <point x="400" y="511" type="line"/>
      <point x="400" y="382" type="line"/>
      <point x="771" y="382" type="line"/>
    </contour>
    <contour>
      <point x="863" y="369" type="line"/>
      <point x="863" y="279"/>
      <point x="819" y="218"/>
      <point x="741" y="218" type="curve" smooth="yes"/>
      <point x="683" y="218"/>
      <point x="639" y="246"/>
      <point x="639" y="302" type="curve" smooth="yes"/>
      <point x="639" y="355"/>
      <point x="682" y="382"/>
      <point x="731" y="382" type="curve"/>
      <point x="679" y="433" type="line"/>
      <point x="596" y="451"/>
      <point x="485" y="390"/>
      <point x="485" y="272" type="curve" smooth="yes"/>
      <point x="485" y="150"/>
      <point x="586" y="82"/>
      <point x="708" y="82" type="curve" smooth="yes"/>
      <point x="853" y="82"/>
      <point x="913" y="177"/>
      <point x="903" y="311" type="curve"/>
    </contour>
    <contour>
      <point x="863" y="0" type="line"/>
      <point x="1028" y="0" type="line"/>
      <point x="1028" y="600" type="line"/>
      <point x="1123" y="600" type="line"/>
      <point x="1123" y="740" type="line"/>
      <point x="330" y="740" type="line"/>
      <point x="330" y="600" type="line"/>
      <point x="863" y="600" type="line"/>
    </contour>
  </outline>
</glyph>
<glyph name="dvC_CHA" format="1">
  <advance width="1247"/>
  <outline>
    <contour>
      <point x="946" y="-8" type="move" name="blwm.virama"/>
    </contour>
    <contour>
      <point x="1093" y="740" type="move" name="abvm.e"/>
    </contour>
    <contour>
      <point x="974" y="-78" type="move" name="blwm.u"/>
    </contour>
    <contour>
      <point x="1267" y="600" type="line"/>
      <point x="1267" y="740" type="line"/>
      <point x="397" y="740" type="line"/>
      <point x="397" y="600" type="line"/>
    </contour>
    <contour>
      <point x="1093" y="600" type="line"/>
      <point x="938" y="600" type="line"/>
      <point x="935" y="441" type="line"/>
      <point x="1093" y="441" type="line"/>
    </contour>
    <contour>
      <point x="1000" y="422" type="curve" smooth="yes"/>
      <point x="1040" y="422"/>
      <point x="1056" y="382"/>
      <point x="1056" y="334" type="curve" smooth="yes"/>
      <point x="1056" y="218"/>
      <point x="974" y="167"/>
      <point x="826" y="167" type="curve" smooth="yes"/>
      <point x="737" y="167"/>
      <point x="659" y="196"/>
      <point x="659" y="258" type="curve" smooth="yes"/>
      <point x="659" y="306"/>
      <point x="697" y="332"/>
      <point x="740" y="332" type="curve"/>
      <point x="761" y="332" type="line"/>
      <point x="761" y="464" type="line"/>
      <point x="747" y="464" type="line" smooth="yes"/>
      <point x="675" y="464"/>
      <point x="664" y="505"/>
      <point x="664" y="590" type="curve" smooth="yes"/>
      <point x="664" y="618" type="line"/>
      <point x="499" y="618" type="line"/>
      <point x="499" y="591" type="line" smooth="yes"/>
      <point x="499" y="493"/>
      <point x="518" y="432"/>
      <point x="587" y="400" type="curve"/>
      <point x="587" y="394" type="line"/>
      <point x="529" y="366"/>
      <point x="492" y="312"/>
      <point x="492" y="238" type="curve" smooth="yes"/>
      <point x="492" y="94"/>
      <point x="659" y="30"/>
      <point x="830" y="30" type="curve" smooth="yes"/>
      <point x="1082" y="30"/>
      <point x="1195" y="151"/>
      <point x="1195" y="332" type="curve" smooth="yes"/>
      <point x="1195" y="463"/>
      <point x="1131" y="543"/>
      <point x="995" y="543" type="curve"/>
      <point x="865" y="543"/>
      <point x="788" y="495"/>
      <point x="804" y="262" type="curve"/>
      <point x="941" y="262" type="line"/>
      <point x="936" y="376"/>
      <point x="948" y="422"/>
    </contour>
    <contour>
      <point x="665" y="740" type="line"/>
      <point x="-20" y="740" type="line"/>
      <point x="-20" y="600" type="line"/>
      <point x="665" y="600" type="line"/>
    </contour>
    <contour>
      <point x="421" y="511" type="line"/>
      <point x="50" y="511" type="line"/>
      <point x="50" y="382" type="line"/>
      <point x="421" y="382" type="line"/>
    </contour>
    <contour>
      <point x="506" y="309" type="line"/>
      <point x="492" y="259"/>
      <point x="467" y="219"/>
      <point x="403" y="219" type="curve" smooth="yes"/>
      <point x="348" y="219"/>
      <point x="307" y="245"/>
      <point x="307" y="300" type="curve" smooth="yes"/>
      <point x="307" y="353"/>
      <point x="350" y="382"/>
      <point x="399" y="382" type="curve"/>
      <point x="355" y="444" type="line"/>
      <point x="242" y="439"/>
      <point x="155" y="376"/>
      <point x="155" y="272" type="curve" smooth="yes"/>
      <point x="155" y="142"/>
      <point x="266" y="79"/>
      <point x="386" y="79" type="curve" smooth="yes"/>
      <point x="530" y="79"/>
      <point x="602" y="181"/>
      <point x="602" y="306" type="curve"/>
    </contour>
  </outline>
</glyph>
<glyph name="dvC_CH_VA" format="1">
  <advance width="1247"/>
  <outline>
    <contour>
      <point x="1051" y="-339" type="move" name="blwm.virama"/>
    </contour>
    <contour>
      <point x="1072" y="740" type="move" name="abvm.e"/>
    </contour>
    <contour>
      <point x="1051" y="-344" type="move" name="blwm.u"/>
    </contour>
    <contour>
      <point x="665" y="740" type="line"/>
      <point x="-20" y="740" type="line"/>
      <point x="-20" y="600" type="line"/>
      <point x="665" y="600" type="line"/>
    </contour>
    <contour>
      <point x="421" y="511" type="line"/>
      <point x="50" y="511" type="line"/>
      <point x="50" y="382" type="line"/>
      <point x="421" y="382" type="line"/>
    </contour>
    <contour>
      <point x="506" y="309" type="line"/>
      <point x="492" y="259"/>
      <point x="467" y="219"/>
      <point x="403" y="219" type="curve" smooth="yes"/>
      <point x="348" y="219"/>
      <point x="307" y="245"/>
      <point x="307" y="300" type="curve" smooth="yes"/>
      <point x="307" y="353"/>
      <point x="350" y="382"/>
      <point x="399" y="382" type="curve"/>
      <point x="355" y="444" type="line"/>
      <point x="242" y="439"/>
      <point x="155" y="376"/>
      <point x="155" y="272" type="curve" smooth="yes"/>
      <point x="155" y="142"/>
      <point x="266" y="79"/>
      <point x="386" y="79" type="curve" smooth="yes"/>
      <point x="530" y="79"/>
      <point x="602" y="181"/>
      <point x="602" y="306" type="curve"/>
    </contour>
    <contour>
      <point x="1051" y="156" type="line"/>
      <point x="906" y="156" type="line"/>
      <point x="906" y="-324" type="line"/>
      <point x="1051" y="-324" type="line"/>
    </contour>
    <contour>
      <point x="799" y="112" type="line"/>
      <point x="703" y="116"/>
      <point x="580" y="65"/>
      <point x="580" y="-69" type="curve" smooth="yes"/>
      <point x="580" y="-199"/>
      <point x="678" y="-271"/>
      <point x="792" y="-271" type="curve" smooth="yes"/>
      <point x="912" y="-271"/>
      <point x="954" y="-194"/>
      <point x="945" y="-51" type="curve"/>
      <point x="906" y="-22" type="line"/>
      <point x="906" y="-90"/>
      <point x="886" y="-139"/>
      <point x="821" y="-139" type="curve" smooth="yes"/>
      <point x="767" y="-139"/>
      <point x="729" y="-108"/>
      <point x="729" y="-55" type="curve" smooth="yes"/>
      <point x="729" y="2"/>
      <point x="767" y="32"/>
      <point x="834" y="32" type="curve"/>
    </contour>
    <contour>
      <point x="1267" y="600" type="line"/>
      <point x="1267" y="740" type="line"/>
      <point x="397" y="740" type="line"/>
      <point x="397" y="600" type="line"/>
    </contour>
    <contour>
      <point x="1000" y="420" type="curve" smooth="yes"/>
      <point x="1042" y="420"/>
      <point x="1056" y="382"/>
      <point x="1056" y="334" type="curve" smooth="yes"/>
      <point x="1056" y="218"/>
      <point x="974" y="167"/>
      <point x="826" y="167" type="curve" smooth="yes"/>
      <point x="737" y="167"/>
      <point x="659" y="196"/>
      <point x="659" y="258" type="curve" smooth="yes"/>
      <point x="659" y="306"/>
      <point x="697" y="332"/>
      <point x="740" y="332" type="curve"/>
      <point x="761" y="332" type="line"/>
      <point x="761" y="464" type="line"/>
      <point x="747" y="464" type="line" smooth="yes"/>
      <point x="675" y="464"/>
      <point x="664" y="505"/>
      <point x="664" y="590" type="curve" smooth="yes"/>
      <point x="664" y="618" type="line"/>
      <point x="499" y="618" type="line"/>
      <point x="499" y="591" type="line" smooth="yes"/>
      <point x="499" y="493"/>
      <point x="518" y="432"/>
      <point x="587" y="400" type="curve"/>
      <point x="587" y="394" type="line"/>
      <point x="529" y="366"/>
      <point x="492" y="312"/>
      <point x="492" y="238" type="curve" smooth="yes"/>
      <point x="492" y="94"/>
      <point x="659" y="30"/>
      <point x="830" y="30" type="curve" smooth="yes"/>
      <point x="1082" y="30"/>
      <point x="1195" y="151"/>
      <point x="1195" y="332" type="curve" smooth="yes"/>
      <point x="1195" y="461"/>
      <point x="1129" y="543"/>
      <point x="995" y="543" type="curve"/>
      <point x="869" y="543"/>
      <point x="788" y="493"/>
      <point x="804" y="262" type="curve"/>
      <point x="941" y="262" type="line"/>
      <point x="936" y="376"/>
      <point x="956" y="420"/>
    </contour>
    <contour>
      <point x="1072" y="683" type="line"/>
      <point x="927" y="683" type="line"/>
      <point x="927" y="459" type="line"/>
      <point x="1072" y="459" type="line"/>
    </contour>
  </outline>
</glyph>
<glyph name="dvC_NA" format="1">
  <advance width="1286"/>
  <outline>
    <contour>
      <point x="665" y="740" type="line"/>
      <point x="-20" y="740" type="line"/>
      <point x="-20" y="600" type="line"/>
      <point x="665" y="600" type="line"/>
    </contour>
    <contour>
      <point x="421" y="511" type="line"/>
      <point x="50" y="511" type="line"/>
      <point x="50" y="382" type="line"/>
      <point x="421" y="382" type="line"/>
    </contour>
    <contour>
      <point x="506" y="309" type="line"/>
      <point x="492" y="259"/>
      <point x="467" y="219"/>
      <point x="403" y="219" type="curve" smooth="yes"/>
      <point x="348" y="219"/>
      <point x="307" y="245"/>
      <point x="307" y="300" type="curve" smooth="yes"/>
      <point x="307" y="353"/>
      <point x="350" y="382"/>
      <point x="399" y="382" type="curve"/>
      <point x="355" y="444" type="line"/>
      <point x="242" y="439"/>
      <point x="155" y="376"/>
      <point x="155" y="272" type="curve" smooth="yes"/>
      <point x="155" y="142"/>
      <point x="266" y="79"/>
      <point x="386" y="79" type="curve" smooth="yes"/>
      <point x="530" y="79"/>
      <point x="602" y="181"/>
      <point x="602" y="306" type="curve"/>
    </contour>
    <component base="dvNA" xOffset="476"/>
  </outline>
</glyph>
<glyph name="dvDDH_VA" format="1">
  <advance width="657"/>
  <outline>
    <contour>
      <point x="271" y="237" type="curve"/>
      <point x="391" y="237" type="line"/>
      <point x="392" y="257"/>
      <point x="402" y="276"/>
      <point x="430" y="276" type="curve" smooth="yes"/>
      <point x="452" y="276"/>
      <point x="467" y="262"/>
      <point x="467" y="236" type="curve" smooth="yes"/>
      <point x="467" y="197"/>
      <point x="428" y="181"/>
      <point x="370" y="181" type="curve" smooth="yes"/>
      <point x="272" y="181"/>
      <point x="221" y="216"/>
      <point x="221" y="299" type="curve" smooth="yes"/>
      <point x="221" y="395"/>
      <point x="308" y="433"/>
      <point x="385" y="434" type="curve" smooth="yes"/>
      <point x="365" y="556" type="line"/>
      <point x="197" y="556"/>
      <point x="80" y="454"/>
      <point x="80" y="305" type="curve" smooth="yes"/>
      <point x="80" y="141"/>
      <point x="212" y="68"/>
      <point x="368" y="68" type="curve" smooth="yes"/>
      <point x="513" y="68"/>
      <point x="601" y="124"/>
      <point x="601" y="236" type="curve" smooth="yes"/>
      <point x="601" y="332"/>
      <point x="531" y="393"/>
      <point x="430" y="393" type="curve" smooth="yes"/>
      <point x="303" y="393"/>
      <point x="265" y="305"/>
    </contour>
    <contour>
      <point x="336" y="611" type="line"/>
      <point x="336" y="434" type="line"/>
      <point x="500" y="434" type="line"/>
      <point x="500" y="611" type="line"/>
    </contour>
    <contour>
      <point x="677" y="600" type="line"/>
      <point x="677" y="740" type="line"/>
      <point x="-20" y="740" type="line"/>
      <point x="-20" y="600" type="line"/>
    </contour>
    <contour>
      <point x="578" y="173" type="line"/>
      <point x="433" y="173" type="line"/>
      <point x="433" y="-287" type="line"/>
      <point x="578" y="-287" type="line"/>
    </contour>
    <contour>
      <point x="336" y="147" type="line"/>
      <point x="239" y="157"/>
      <point x="107" y="98"/>
      <point x="107" y="-36" type="curve" smooth="yes"/>
      <point x="107" y="-166"/>
      <point x="203" y="-233"/>
      <point x="315" y="-233" type="curve" smooth="yes"/>
      <point x="435" y="-233"/>
      <point x="491" y="-151"/>
      <point x="472" y="-14" type="curve"/>
      <point x="433" y="16" type="line"/>
      <point x="433" y="-52"/>
      <point x="410" y="-102"/>
      <point x="345" y="-102" type="curve" smooth="yes"/>
      <point x="294" y="-102"/>
      <point x="256" y="-71"/>
      <point x="256" y="-20" type="curve" smooth="yes"/>
      <point x="256" y="37"/>
      <point x="302" y="71"/>
      <point x="366" y="68" type="curve"/>
    </contour>
  </outline>
</glyph>
<glyph name="dvDDH_YA" format="1">
  <advance width="1291"/>
  <outline>
    <contour>
      <point x="425" y="410" type="line"/>
      <point x="674" y="410" type="line"/>
      <point x="732" y="410"/>
      <point x="783" y="404"/>
      <point x="783" y="368" type="curve" smooth="yes"/>
      <point x="783" y="329"/>
      <point x="734" y="325"/>
      <point x="674" y="325" type="curve"/>
      <point x="665" y="131"/>
      <point x="773" y="55"/>
      <point x="911" y="55" type="curve" smooth="yes"/>
      <point x="1066" y="55"/>
      <point x="1107" y="183"/>
      <point x="1106" y="303" type="curve"/>
      <point x="1052" y="344" type="line"/>
      <point x="1052" y="247"/>
      <point x="1026" y="188"/>
      <point x="938" y="188" type="curve" smooth="yes"/>
      <point x="862" y="188"/>
      <point x="838" y="230"/>
      <point x="839" y="271" type="curve"/>
      <point x="900" y="284"/>
      <point x="941" y="330"/>
      <point x="941" y="396" type="curve" smooth="yes"/>
      <point x="941" y="493"/>
      <point x="860" y="548"/>
      <point x="629" y="548" type="curve"/>
      <point x="439" y="548" type="line"/>
    </contour>
    <contour>
      <point x="262" y="195" type="curve"/>
      <point x="398" y="195" type="line"/>
      <point x="398" y="217"/>
      <point x="406" y="243"/>
      <point x="440" y="243" type="curve" smooth="yes"/>
      <point x="471" y="243"/>
      <point x="483" y="221"/>
      <point x="483" y="195" type="curve" smooth="yes"/>
      <point x="483" y="152"/>
      <point x="441" y="128"/>
      <point x="376" y="128" type="curve" smooth="yes"/>
      <point x="261" y="128"/>
      <point x="209" y="181"/>
      <point x="209" y="260" type="curve" smooth="yes"/>
      <point x="209" y="358"/>
      <point x="279" y="410"/>
      <point x="382" y="410" type="curve" smooth="yes"/>
      <point x="384" y="410"/>
      <point x="386" y="410"/>
      <point x="388" y="410" type="curve"/>
      <point x="384" y="546" type="line"/>
      <point x="382" y="546"/>
      <point x="380" y="546"/>
      <point x="378" y="546" type="curve"/>
      <point x="188" y="546"/>
      <point x="48" y="456"/>
      <point x="48" y="265" type="curve" smooth="yes"/>
      <point x="48" y="84"/>
      <point x="189" y="-10"/>
      <point x="370" y="-10" type="curve" smooth="yes"/>
      <point x="512" y="-10"/>
      <point x="632" y="58"/>
      <point x="632" y="200" type="curve" smooth="yes"/>
      <point x="632" y="303"/>
      <point x="547" y="367"/>
      <point x="440" y="367" type="curve" smooth="yes"/>
      <point x="318" y="367"/>
      <point x="259" y="305"/>
    </contour>
    <contour>
      <point x="330" y="410" type="line"/>
      <point x="494" y="410" type="line"/>
      <point x="494" y="600" type="line"/>
      <point x="1052" y="600" type="line"/>
      <point x="1052" y="0" type="line"/>
      <point x="1216" y="0" type="line"/>
      <point x="1216" y="600" type="line"/>
      <point x="1311" y="600" type="line"/>
      <point x="1311" y="740" type="line"/>
      <point x="-20" y="740" type="line"/>
      <point x="-20" y="600" type="line"/>
      <point x="330" y="600" type="line"/>
    </contour>
  </outline>
</glyph>
<glyph name="dvDD_DDA" format="1">
  <advance width="603"/>
  <outline>
    <contour>
      <point x="381" y="-280" type="move" name="blwm.virama"/>
    </contour>
    <contour>
      <point x="475" y="740" type="move" name="abvm.e"/>
    </contour>
    <contour>
      <point x="407" y="-361" type="move" name="blwm.u"/>
    </contour>
    <contour>
      <point x="86" y="246" type="line"/>
      <point x="91" y="127"/>
      <point x="190" y="83"/>
      <point x="317" y="83" type="curve" smooth="yes"/>
      <point x="452" y="83"/>
      <point x="533" y="134"/>
      <point x="533" y="237" type="curve" smooth="yes"/>
      <point x="533" y="357"/>
      <point x="424" y="378"/>
      <point x="327" y="378" type="curve" smooth="yes"/>
      <point x="278" y="378"/>
      <point x="251" y="379"/>
      <point x="251" y="405" type="curve" smooth="yes"/>
      <point x="251" y="434"/>
      <point x="283" y="437"/>
      <point x="332" y="437" type="curve" smooth="yes"/>
      <point x="475" y="437" type="line"/>
      <point x="475" y="524" type="line"/>
      <point x="336" y="554" type="line"/>
      <point x="286" y="554" type="line" smooth="yes"/>
      <point x="186" y="554"/>
      <point x="97" y="516"/>
      <point x="97" y="414" type="curve" smooth="yes"/>
      <point x="97" y="282"/>
      <point x="215" y="267"/>
      <point x="300" y="267" type="curve" smooth="yes"/>
      <point x="354" y="267"/>
      <point x="384" y="263"/>
      <point x="384" y="232" type="curve" smooth="yes"/>
      <point x="384" y="201"/>
      <point x="355" y="190"/>
      <point x="317" y="190" type="curve" smooth="yes"/>
      <point x="272" y="190"/>
      <point x="235" y="208"/>
      <point x="235" y="246" type="curve"/>
    </contour>
    <contour>
      <point x="623" y="600" type="line"/>
      <point x="623" y="740" type="line"/>
      <point x="-20" y="740" type="line"/>
      <point x="-20" y="600" type="line"/>
    </contour>
    <contour>
      <point x="322" y="513" type="line"/>
      <point x="475" y="513" type="line"/>
      <point x="475" y="709" type="line"/>
      <point x="322" y="709" type="line"/>
    </contour>
    <contour>
      <point x="310" y="175" type="line"/>
      <point x="230" y="175"/>
      <point x="100" y="161"/>
      <point x="100" y="46" type="curve" smooth="yes"/>
      <point x="100" y="-61"/>
      <point x="218" y="-78"/>
      <point x="300" y="-78" type="curve" smooth="yes"/>
      <point x="354" y="-78"/>
      <point x="384" y="-82"/>
      <point x="384" y="-113" type="curve" smooth="yes"/>
      <point x="384" y="-143"/>
      <point x="358" y="-158"/>
      <point x="317" y="-158" type="curve" smooth="yes"/>
      <point x="266" y="-158"/>
      <point x="235" y="-136"/>
      <point x="235" y="-98" type="curve"/>
      <point x="86" y="-98" type="line"/>
      <point x="91" y="-218"/>
      <point x="191" y="-266"/>
      <point x="318" y="-266" type="curve" smooth="yes"/>
      <point x="453" y="-266"/>
      <point x="533" y="-211"/>
      <point x="533" y="-108" type="curve" smooth="yes"/>
      <point x="533" y="12"/>
      <point x="424" y="33"/>
      <point x="327" y="33" type="curve" smooth="yes"/>
      <point x="278" y="33"/>
      <point x="251" y="33"/>
      <point x="251" y="59" type="curve" smooth="yes"/>
      <point x="251" y="88"/>
      <point x="291" y="83"/>
      <point x="329" y="83" type="curve"/>
    </contour>
  </outline>
</glyph>
<glyph name="dvDD_DDHA" format="1">
  <advance width="631"/>
  <outline>
    <contour>
      <point x="416" y="-327" type="move" name="blwm.virama"/>
    </contour>
    <contour>
      <point x="495" y="740" type="move" name="abvm.e"/>
    </contour>
    <contour>
      <point x="463" y="-397" type="move" name="blwm.u"/>
    </contour>
    <contour>
      <point x="106" y="246" type="line"/>
      <point x="111" y="127"/>
      <point x="210" y="83"/>
      <point x="337" y="83" type="curve" smooth="yes"/>
      <point x="472" y="83"/>
      <point x="553" y="134"/>
      <point x="553" y="237" type="curve" smooth="yes"/>
      <point x="553" y="357"/>
      <point x="444" y="378"/>
      <point x="347" y="378" type="curve" smooth="yes"/>
      <point x="298" y="378"/>
      <point x="271" y="379"/>
      <point x="271" y="405" type="curve" smooth="yes"/>
      <point x="271" y="434"/>
      <point x="303" y="437"/>
      <point x="352" y="437" type="curve" smooth="yes"/>
      <point x="495" y="437" type="line"/>
      <point x="495" y="524" type="line"/>
      <point x="356" y="554" type="line"/>
      <point x="306" y="554" type="line" smooth="yes"/>
      <point x="206" y="554"/>
      <point x="117" y="516"/>
      <point x="117" y="414" type="curve" smooth="yes"/>
      <point x="117" y="282"/>
      <point x="235" y="267"/>
      <point x="320" y="267" type="curve" smooth="yes"/>
      <point x="374" y="267"/>
      <point x="404" y="263"/>
      <point x="404" y="232" type="curve" smooth="yes"/>
      <point x="404" y="201"/>
      <point x="375" y="190"/>
      <point x="337" y="190" type="curve" smooth="yes"/>
      <point x="292" y="190"/>
      <point x="255" y="208"/>
      <point x="255" y="246" type="curve"/>
    </contour>
    <contour>
      <point x="651" y="600" type="line"/>
      <point x="651" y="740" type="line"/>
      <point x="-20" y="740" type="line"/>
      <point x="-20" y="600" type="line"/>
    </contour>
    <contour>
      <point x="342" y="513" type="line"/>
      <point x="495" y="513" type="line"/>
      <point x="495" y="709" type="line"/>
      <point x="342" y="709" type="line"/>
    </contour>
    <contour>
      <point x="253" y="-113" type="curve"/>
      <point x="369" y="-113" type="line"/>
      <point x="370" y="-93"/>
      <point x="380" y="-74"/>
      <point x="408" y="-74" type="curve" smooth="yes"/>
      <point x="430" y="-74"/>
      <point x="445" y="-88"/>
      <point x="445" y="-114" type="curve" smooth="yes"/>
      <point x="445" y="-153"/>
      <point x="408" y="-172"/>
      <point x="350" y="-172" type="curve" smooth="yes"/>
      <point x="257" y="-172"/>
      <point x="206" y="-132"/>
      <point x="206" y="-52" type="curve" smooth="yes"/>
      <point x="206" y="44"/>
      <point x="286" y="84"/>
      <point x="373" y="85" type="curve"/>
      <point x="353" y="171" type="line"/>
      <point x="194" y="171"/>
      <point x="68" y="104"/>
      <point x="68" y="-45" type="curve" smooth="yes"/>
      <point x="68" y="-209"/>
      <point x="200" y="-292"/>
      <point x="346" y="-292" type="curve" smooth="yes"/>
      <point x="491" y="-292"/>
      <point x="579" y="-216"/>
      <point x="579" y="-114" type="curve" smooth="yes"/>
      <point x="579" y="-18"/>
      <point x="509" y="43"/>
      <point x="408" y="43" type="curve" smooth="yes"/>
      <point x="286" y="43"/>
      <point x="247" y="-45"/>
    </contour>
  </outline>
</glyph>
<glyph name="dvDD_RA" format="1">
  <advance width="568"/>
  <outline>
    <contour>
      <point x="389" y="-158" type="move" name="blwm.virama"/>
    </contour>
    <contour>
      <point x="475" y="740" type="move" name="abvm.e"/>
    </contour>
    <contour>
      <point x="423" y="-233" type="move" name="blwm.u"/>
    </contour>
    <component base="dvRashtrasign" xOffset="635" yOffset="-47"/>
    <component base="dvDDA"/>
  </outline>
</glyph>
<glyph name="dvDD_YA" format="1">
  <advance width="1198"/>
  <outline>
    <contour>
      <point x="332" y="411" type="line"/>
      <point x="581" y="411" type="line"/>
      <point x="639" y="411"/>
      <point x="690" y="405"/>
      <point x="690" y="369" type="curve" smooth="yes"/>
      <point x="690" y="336"/>
      <point x="654" y="328"/>
      <point x="606" y="326" type="curve" smooth="yes"/>
      <point x="598" y="326"/>
      <point x="590" y="326"/>
      <point x="581" y="326" type="curve"/>
      <point x="572" y="132"/>
      <point x="680" y="56"/>
      <point x="818" y="56" type="curve" smooth="yes"/>
      <point x="973" y="56"/>
      <point x="1014" y="184"/>
      <point x="1013" y="304" type="curve"/>
      <point x="959" y="345" type="line"/>
      <point x="959" y="248"/>
      <point x="933" y="189"/>
      <point x="845" y="189" type="curve" smooth="yes"/>
      <point x="769" y="189"/>
      <point x="745" y="231"/>
      <point x="746" y="272" type="curve"/>
      <point x="807" y="285"/>
      <point x="850" y="333"/>
      <point x="850" y="399" type="curve" smooth="yes"/>
      <point x="850" y="504"/>
      <point x="774" y="549"/>
      <point x="536" y="549" type="curve" smooth="yes"/>
      <point x="346" y="549" type="line"/>
    </contour>
    <contour>
      <point x="54" y="179" type="line"/>
      <point x="60" y="50"/>
      <point x="167" y="-20"/>
      <point x="305" y="-20" type="curve" smooth="yes"/>
      <point x="451" y="-20"/>
      <point x="538" y="51"/>
      <point x="538" y="162" type="curve" smooth="yes"/>
      <point x="538" y="304"/>
      <point x="426" y="336"/>
      <point x="321" y="336" type="curve" smooth="yes"/>
      <point x="268" y="336"/>
      <point x="232" y="338"/>
      <point x="232" y="373" type="curve" smooth="yes"/>
      <point x="232" y="403"/>
      <point x="267" y="411"/>
      <point x="320" y="411" type="curve" smooth="yes"/>
      <point x="475" y="411" type="line"/>
      <point x="475" y="508" type="line"/>
      <point x="325" y="541" type="line"/>
      <point x="271" y="541" type="line" smooth="yes"/>
      <point x="162" y="541"/>
      <point x="66" y="494"/>
      <point x="66" y="384" type="curve" smooth="yes"/>
      <point x="66" y="228"/>
      <point x="194" y="210"/>
      <point x="285" y="210" type="curve" smooth="yes"/>
      <point x="344" y="210"/>
      <point x="376" y="199"/>
      <point x="376" y="159" type="curve" smooth="yes"/>
      <point x="376" y="122"/>
      <point x="346" y="107"/>
      <point x="305" y="107" type="curve" smooth="yes"/>
      <point x="256" y="107"/>
      <point x="220" y="130"/>
      <point x="216" y="179" type="curve"/>
    </contour>
    <contour>
      <point x="959" y="600" type="line"/>
      <point x="959" y="0" type="line"/>
      <point x="1123" y="0" type="line"/>
      <point x="1123" y="600" type="line"/>
      <point x="1218" y="600" type="line"/>
      <point x="1218" y="740" type="line"/>
      <point x="-20" y="740" type="line"/>
      <point x="-20" y="600" type="line"/>
      <point x="310" y="600" type="line"/>
      <point x="310" y="496" type="line"/>
      <point x="475" y="496" type="line"/>
      <point x="475" y="600" type="line"/>
    </contour>
  </outline>
</glyph>
